<?xml version="1.0" encoding="UTF-8" standalone="no"?>
<svg
   id="Layer_1"
   data-name="Layer 1"
   viewBox="0 0 900 900"
   version="1.1"
   sodipodi:docname="Axiom.svg"
   width="900"
   height="900"
   inkscape:version="1.4 (86a8ad7, 2024-10-11)"
   xmlns:inkscape="http://www.inkscape.org/namespaces/inkscape"
   xmlns:sodipodi="http://sodipodi.sourceforge.net/DTD/sodipodi-0.dtd"
   xmlns="http://www.w3.org/2000/svg"
   xmlns:svg="http://www.w3.org/2000/svg">
  <defs
     id="defs1" />
  <sodipodi:namedview
     id="namedview1"
     pagecolor="#ffffff"
     bordercolor="#000000"
     borderopacity="0.25"
     inkscape:showpageshadow="2"
     inkscape:pageopacity="0.0"
     inkscape:pagecheckerboard="0"
     inkscape:deskcolor="#d1d1d1"
     inkscape:zoom="0.773"
     inkscape:cx="627.42561"
     inkscape:cy="479.30142"
     inkscape:window-width="1920"
     inkscape:window-height="991"
     inkscape:window-x="-9"
     inkscape:window-y="-9"
     inkscape:window-maximized="1"
     inkscape:current-layer="Layer_1" />
  <path
     d="m 591.42872,533.97716 h -11.80047 c -15.08668,0 -27.30208,-12.2154 -27.30208,-27.30208 V 288.24184 L 772.23654,533.97716 H 591.44532 Z M 536.0279,281.03874 V 533.97716 H 213.14969 L 229.58073,517.72869 483.94649,264.6409 c 6.82137,-7.00394 11.68429,-10.42292 18.97038,-11.31916 1.41075,-0.26555 2.85469,-0.43152 4.33182,-0.43152 14.14065,0 28.77921,10.5391 28.77921,28.14852 z M 404.84515,395.07679 h 72.49573 c 6.77158,-0.16597 12.7631,-3.35259 16.71319,-8.28191 3.05385,-3.8339 5.17827,-8.71343 5.17827,-14.05766 v -71.25096 l -94.38719,93.60713 z m 94.55316,102.03841 v -13.55975 c 0,0 -0.0498,0 -0.0498,0 v -29.37671 c 0,-11.6345 -9.55987,-20.89563 -22.25658,-21.60931 h -99.99698 c -5.26126,0.29875 -9.07857,0.5975 -15.45182,5.82556 l -49.45909,49.21013 h -0.0664 l -9.51009,9.46029 -0.0498,0.0498 h 196.85712 z m -241.50308,98.70242 c -0.96263,1.34435 -0.96263,3.21982 0.0332,4.59737 l 31.48453,41.45933 h -14.35642 l -26.0407,-34.4056 -26.15689,34.4056 h -14.22364 l 31.51772,-41.50912 c 0.96263,-1.34436 0.96263,-3.20323 -0.0332,-4.59738 L 208.6353,554.3085 h 14.22364 l 26.15689,34.389 26.0407,-34.389 h 14.35642 z m 31.98243,45.94052 h 11.28597 v -87.58242 h -11.28597 z m 83.64893,-69.12655 v 0.0664 c 0,0 0,50.85324 0,50.85324 -0.29875,10.10758 -8.49767,18.3231 -18.27331,18.3231 h -31.48452 c -10.04119,-0.14938 -18.10734,-8.19893 -18.40609,-18.3231 v -50.91964 c 0.29875,-9.9914 8.3483,-18.04094 18.3231,-18.32309 h 31.6339 c 9.90841,0.28215 17.90817,8.34829 18.20692,18.32309 z m -11.40215,0.0664 c -0.0996,-3.75092 -3.07044,-6.77158 -6.93755,-6.98734 h -31.38494 c -3.91689,0.0996 -6.92095,3.13684 -7.02053,7.05373 v 50.72046 c 0.0996,3.93349 3.05384,6.90436 7.05372,6.98734 h 31.41814 c 3.73433,-0.0996 6.77158,-3.18663 6.87116,-7.05373 z m 107.08391,-19.30232 c -3.07045,0 -5.75917,1.51033 -7.40227,4.13266 -0.0498,0.083 -0.083,0.16597 -0.13278,0.23235 l -33.2604,69.3755 -33.26041,-69.3755 c 0,0 -0.083,-0.16597 -0.13277,-0.23235 -1.62651,-2.62233 -4.31523,-4.13266 -7.40227,-4.13266 -4.4148,0 -8.96239,3.28621 -8.96239,8.76322 v 77.19269 c 0,1.39415 1.1286,2.52275 2.52275,2.52275 h 6.22388 c 1.39415,0 2.52274,-1.1286 2.52274,-2.52275 v -65.95651 l 32.26459,67.05191 c 0.41492,0.87964 1.31116,1.42735 2.27379,1.42735 h 7.86698 c 0.97923,0 1.85887,-0.5643 2.27379,-1.42735 l 32.26459,-67.05191 v 65.95651 c 0,1.39415 1.12859,2.52275 2.52274,2.52275 h 6.22388 c 1.39415,0 2.53934,-1.1286 2.53934,-2.52275 v -77.19269 c 0,-5.49361 -4.56417,-8.76322 -8.96238,-8.76322 z m -262.76385,9.55988 v 78.91878 H 105.70065 l 5.12848,-5.06209 79.3669,-78.96857 c 2.12441,-2.19081 3.65134,-3.25301 5.92513,-3.53516 0.44812,-0.083 0.89624,-0.13278 1.34436,-0.13278 4.4148,0 8.97898,3.28621 8.97898,8.77982 z m -40.92822,35.58398 H 188.138 c 2.10782,-0.0498 3.98328,-1.04561 5.21146,-2.58913 0.94603,-1.19498 1.60991,-2.72191 1.60991,-4.38161 v -22.24 l -29.45969,29.21073 z m 29.50948,31.83307 v -4.23224 c 0,0 0,0 0,0 v -9.17815 c 0,-3.63474 -2.98746,-6.52262 -6.95415,-6.73838 h -31.20238 c -1.6431,0.0996 -2.83808,0.18257 -4.81313,1.80907 l -15.43522,15.35224 h -0.0166 l -2.97087,2.95426 v 0 c 0,0 61.42553,0 61.42553,0 z m 377.98028,-71.41694 c -3.53516,-3.58496 -8.36489,-5.62639 -13.2942,-5.62639 h -47.733 c -1.39415,0 -2.53934,1.1286 -2.53934,2.53934 v 39.46769 l 3.8339,4.28203 7.53505,8.41468 V 572.0175 c 0.21576,-4.13265 3.15343,-7.07032 7.15331,-7.1699 h 31.86626 c 3.78411,0 6.98734,3.25301 6.98734,7.12011 v 51.45073 c 0,3.75093 -3.17003,6.88776 -6.98734,6.98734 h -19.00358 l 6.93755,7.75081 3.3526,3.73432 h 8.76322 c 10.14077,-0.14937 18.58865,-8.63044 18.43927,-18.48907 v -51.41753 c 0.0664,-4.84633 -1.82567,-9.46029 -5.32764,-13.01205 z m 20.03259,-5.89194 h -6.30686 c -1.39415,0 -2.53935,1.1286 -2.53935,2.52275 v 83.61573 c 0,1.39415 1.1286,2.52274 2.53935,2.52274 h 6.30686 c 1.39415,0 2.52275,-1.12859 2.52275,-2.52274 v -83.61573 c 0,-1.39415 -1.1286,-2.52275 -2.52275,-2.52275 z m 56.44643,38.72082 h -31.93265 c -3.99988,-0.0996 -7.08692,-3.18662 -7.16991,-7.12011 v -12.7963 c 0.0996,-4.06627 3.12024,-7.08692 7.12012,-7.1865 h 38.20632 c 1.39414,0 2.52274,-1.1286 2.52274,-2.52275 v -6.43964 c 0,-1.39415 -1.1286,-2.52274 -2.52274,-2.52274 h -38.23951 c -10.12418,0.14937 -18.27331,8.2985 -18.57206,18.53886 v 13.01205 c 0.29875,10.24036 8.46448,18.38949 18.60525,18.53886 h 31.83306 c 3.9335,0.0996 6.95415,3.18663 7.05373,7.12012 v 12.79629 c -0.0996,3.93349 -3.18662,7.08692 -6.98734,7.18651 h -41.55891 c -1.39415,0 -2.52274,1.12859 -2.52274,2.52274 v 6.43964 c 0,1.39415 1.12859,2.52275 2.52274,2.52275 h 41.55891 c 10.04119,0 18.3231,-8.3317 18.48907,-18.60525 v -12.89588 c -0.14937,-10.24035 -8.39809,-18.57205 -18.38949,-18.57205 z m 81.72367,38.58805 h -41.35975 c -3.93349,-0.0996 -6.95414,-3.10364 -7.1699,-7.18651 v -51.33455 c 0.23235,-4.09946 3.2862,-7.1865 7.12011,-7.1865 h 41.42614 c 1.39415,0 2.52274,-1.1286 2.52274,-2.52275 v -6.43964 c 0,-1.39414 -1.12859,-2.52274 -2.52274,-2.52274 h -41.6419 c -4.71355,0 -9.39391,2.02483 -12.86268,5.5434 -3.50197,3.55176 -5.47701,8.3317 -5.39403,13.07844 v 51.41754 c -0.14937,9.9582 8.29851,18.48907 18.48907,18.65504 h 41.42613 c 1.39415,0 2.52275,-1.1286 2.52275,-2.52275 v -6.43964 c 0,-1.39415 -1.1286,-2.52274 -2.52275,-2.52274 z m 70.96881,-20.01599 c -0.14937,-10.24036 -8.39809,-18.57206 -18.38949,-18.57206 h -31.94924 c -3.99988,-0.0996 -7.07032,-3.18662 -7.16991,-7.12011 v -12.7963 c 0.0996,-4.06627 3.12024,-7.08692 7.12012,-7.1865 h 38.20632 c 1.39414,0 2.53934,-1.1286 2.53934,-2.52275 v -6.43964 c 0,-1.39415 -1.1286,-2.52274 -2.53934,-2.52274 h -38.23951 c -10.12418,0.14937 -18.27331,8.2985 -18.57206,18.53886 0,0.0166 0,0.0498 0,0.0664 v 12.86269 c 0,0 0,0.0498 0,0.0664 0.29875,10.24036 8.46448,18.38949 18.60525,18.53886 h 31.84966 c 3.9169,0.0996 6.95415,3.18663 7.05373,7.12012 v 12.79629 c -0.0996,3.93349 -3.18663,7.08693 -6.98734,7.18651 h -41.55891 c -1.39415,0 -2.52275,1.12859 -2.52275,2.52274 v 6.43964 c 0,1.39415 1.1286,2.52275 2.52275,2.52275 h 41.55891 c 10.04119,0 18.33969,-8.3317 18.48907,-18.60525 v -12.89587 z m -292.63846,9.29432 v 18.04095 c 0,2.10782 1.70949,3.81731 3.81731,3.81731 h 30.67127 l -34.47199,-38.53825 v 16.67999 z"
     id="path1"
     style="stroke-width:1" />
</svg>
