<?xml version="1.0" encoding="UTF-8" standalone="no"?>
<!-- Created with Inkscape (http://www.inkscape.org/) -->

<svg
   version="1.1"
   id="svg1"
   width="900"
   height="900"
   viewBox="0 0 900 900.00001"
   sodipodi:docname="Clash.svg"
   inkscape:version="1.4 (86a8ad7, 2024-10-11)"
   xmlns:inkscape="http://www.inkscape.org/namespaces/inkscape"
   xmlns:sodipodi="http://sodipodi.sourceforge.net/DTD/sodipodi-0.dtd"
   xmlns="http://www.w3.org/2000/svg"
   xmlns:svg="http://www.w3.org/2000/svg">
  <defs
     id="defs1" />
  <sodipodi:namedview
     id="namedview1"
     pagecolor="#ffffff"
     bordercolor="#000000"
     borderopacity="0.25"
     inkscape:showpageshadow="2"
     inkscape:pageopacity="0.0"
     inkscape:pagecheckerboard="0"
     inkscape:deskcolor="#d1d1d1"
     inkscape:zoom="0.7835627"
     inkscape:cx="722.34168"
     inkscape:cy="456.24938"
     inkscape:window-width="1920"
     inkscape:window-height="991"
     inkscape:window-x="-9"
     inkscape:window-y="-9"
     inkscape:window-maximized="1"
     inkscape:current-layer="g1" />
  <g
     inkscape:groupmode="layer"
     inkscape:label="Image"
     id="g1">
    <path
       style="fill:#000000"
       d="m 429.5293,595.20711 c -7.84303,-2.02476 -12.23562,-6.86586 -12.23562,-13.48496 0,-2.39232 0.56752,-2.97111 2.91324,-2.97111 2.10853,0 2.91325,0.62582 2.91325,2.26561 0,1.24609 1.26555,3.73691 2.81234,5.53516 2.59537,3.01729 3.45728,3.26955 11.17123,3.26955 7.71394,0 8.57585,-0.25226 11.17122,-3.26955 3.34726,-3.89142 3.49194,-5.54968 0.77307,-8.86069 -1.56093,-1.90089 -4.5906,-2.89271 -12.91632,-4.22842 -13.90713,-2.23113 -17.19744,-3.92521 -18.94364,-9.75349 -1.16505,-3.8886 -1.04598,-5.17974 0.82923,-8.99183 3.21175,-6.52913 8.56596,-9.17732 18.55504,-9.17732 11.33539,0 16.86628,3.89081 18.72222,13.17051 0.68228,3.4114 0.49439,3.7263 -2.22328,3.7263 -2.36215,0 -3.24485,-0.83726 -4.32126,-4.0988 -1.80971,-5.48348 -6.70781,-7.9893 -14.20788,-7.26864 -6.75766,0.64932 -11.42197,4.36433 -11.42197,9.09729 0,4.5439 2.12756,5.73875 13.6283,7.65369 16.90295,2.81444 20.16532,5.05411 20.16532,13.84387 0,8.56037 -5.21451,12.8131 -16.97082,13.84067 -3.80478,0.33256 -8.49093,0.19853 -10.41367,-0.29784 z m 72.68061,-0.73444 c -19.8688,-6.35901 -21.75044,-36.96935 -2.8811,-46.86937 5.81754,-3.05225 17.68929,-2.66138 23.71551,0.78081 7.91857,4.52311 13.029,17.54866 6.88501,17.54866 -2.16818,0 -3.01209,-0.94558 -4.10778,-4.60267 -1.92864,-6.43722 -7.01797,-9.83222 -14.84979,-9.90603 -10.4853,-0.0988 -17.93375,7.72444 -17.93375,18.83617 0,6.92963 1.09217,9.77118 5.62205,14.62719 8.0315,8.60975 25.29338,5.4805 27.59585,-5.0026 0.60142,-2.73827 1.38406,-3.46439 3.73403,-3.46439 2.73368,0 2.92105,0.32089 2.32655,3.98442 -0.91861,5.66071 -3.9663,9.77157 -9.23845,12.46122 -6.07964,3.1016 -14.23516,3.72948 -20.86813,1.60659 z m 72.39892,0.45718 c -4.7905,-1.44296 -7.77248,-3.89784 -10.02433,-8.25244 -2.56469,-4.95957 -2.11853,-7.92637 1.19201,-7.92637 2.19357,0 2.99329,0.78598 3.59716,3.53538 0.90356,4.11388 4.45749,6.78352 10.29063,7.73011 9.57819,1.55432 17.08519,-2.39767 17.08519,-8.99436 0,-2.91447 -0.68269,-3.83641 -3.78722,-5.11455 -2.08297,-0.85756 -6.67133,-1.9214 -10.19635,-2.36409 -10.52621,-1.32194 -14.89189,-2.83793 -17.41698,-6.04806 -6.05111,-7.69274 -0.62312,-18.72231 10.53065,-21.39806 13.56188,-3.25344 25.53109,3.01376 25.53109,13.36835 0,2.39232 -0.56752,2.97111 -2.91325,2.97111 -2.06616,0 -2.91324,-0.63196 -2.91324,-2.17344 0,-9.0231 -16.64611,-12.74941 -24.0188,-5.37673 -3.31323,3.31324 -3.48298,5.27669 -0.74377,8.60314 1.53059,1.85873 5.0085,3.03795 13.94274,4.72744 14.04994,2.65688 15.85677,3.48376 17.78512,8.13921 2.75966,6.6624 -0.32847,13.56807 -7.78555,17.41005 -3.72246,1.91785 -15.41042,2.59246 -20.1551,1.16331 z m -271.5143,-24.33589 v -24.47125 l 12.52695,0.0256 c 18.86023,0.0385 26.57464,4.67649 29.35686,17.64954 2.24224,10.45522 -0.0717,19.548 -6.52953,25.65806 -4.96468,4.69734 -8.64093,5.6093 -22.61187,5.6093 h -12.74241 z m 27.64753,16.69389 c 7.55667,-3.58588 10.90296,-17.10134 6.43561,-25.99305 -3.39033,-6.74804 -8.53898,-9.3456 -18.52395,-9.3456 h -8.56741 v 18.64476 18.64475 h 8.2723 c 5.32159,0 9.73873,-0.69586 12.38345,-1.95086 z m 46.93151,-16.69389 v -24.47125 h 3.49589 3.49589 v 24.47125 24.47124 h -3.49589 -3.49589 z M 174.91181,508.8949 c -34.81787,-7.39909 -58.44509,-29.96401 -67.78333,-64.73572 -3.2957,-12.27182 -3.66646,-45.37324 -0.65411,-58.39937 10.38663,-44.91437 43.49945,-74.56295 90.35388,-80.9011 12.81419,-1.73342 33.6389,-0.88179 43.92287,1.79624 17.79346,4.63355 31.94204,14.63291 37.922,26.80098 2.40437,4.89244 2.86016,7.50777 2.84315,16.31416 -0.0181,9.38818 -0.37808,11.13746 -3.43344,16.68572 -4.151,7.53788 -9.49276,12.39323 -18.05113,16.40743 -5.37375,2.5205 -8.13078,3.03086 -16.36734,3.02981 -10.24196,-0.001 -15.50903,-1.60546 -17.89605,-5.45049 -0.92442,-1.48906 -0.44662,-3.47296 2.00195,-8.31249 6.10366,-12.06367 5.21052,-26.89388 -2.13116,-35.38695 -3.76335,-4.35356 -4.0266,-4.45249 -11.84789,-4.45249 -9.17657,0 -14.00259,1.9445 -21.66258,8.72828 -8.81953,7.81069 -16.18875,22.76736 -20.35818,41.31925 -2.78058,12.3722 -2.4483,35.98123 0.67328,47.83746 8.8772,33.71687 33.13025,55.39025 58.74072,52.49275 3.92475,-0.44403 8.8219,-1.51179 10.88256,-2.37279 9.94252,-4.15425 10.4037,-17.97294 0.72338,-21.67507 -3.27666,-1.25312 -8.00969,0.44428 -12.0896,4.33568 l -3.05855,2.91723 -2.47266,-3.14349 c -5.68854,-7.2318 -5.53859,-16.50457 0.43222,-26.72783 6.70324,-11.47734 17.75965,-18.41078 30.29818,-18.9999 7.51532,-0.35311 8.66133,-0.0786 14.56622,3.48921 7.12685,4.30612 13.15865,12.20685 15.26026,19.98854 0.71959,2.66449 1.07921,9.0396 0.79915,14.16691 -0.70955,12.99014 -4.57986,20.85376 -15.48542,31.46303 -13.01179,12.65828 -27.05955,20.04908 -44.42138,23.37094 -12.48557,2.38889 -39.12916,2.08697 -51.707,-0.58593 z m 378.44211,0.45354 c -12.7433,-3.08866 -22.41696,-9.30753 -27.21578,-17.4961 -2.62937,-4.48667 -3.00326,-6.25544 -2.5747,-12.18017 0.53818,-7.44033 3.04724,-11.3804 9.32814,-14.64835 2.94215,-1.5308 16.15965,-2.33515 17.43386,-1.06094 0.31696,0.31696 0.0661,3.06998 -0.55737,6.11781 -4.23663,20.70927 19.88044,37.90341 33.38842,23.80412 4.53484,-4.73336 5.17638,-10.41187 1.93317,-17.11144 -3.33113,-6.8812 -9.50585,-11.7122 -29.02556,-22.70916 -17.48418,-9.85017 -26.15732,-17.34713 -31.0743,-26.86023 -2.86327,-5.53969 -3.34403,-7.95809 -3.76449,-18.93668 -0.46749,-12.20657 -0.37198,-12.80946 3.16875,-20.00168 4.18376,-8.49843 9.05155,-13.21898 18.51086,-17.95093 10.41794,-5.2115 17.76043,-6.56755 35.19981,-6.50092 23.63928,0.0903 36.98397,4.77051 42.07909,14.75777 5.86173,11.48994 -3.40184,25.38488 -16.92376,25.38488 h -4.20752 l 0.74626,-4.66689 c 2.08148,-13.01683 -8.33404,-25.63084 -21.16364,-25.63084 -5.2439,0 -10.95408,5.17723 -11.1471,10.10671 -0.64646,16.51003 5.65165,24.43781 31.59202,39.76656 19.45559,11.49675 28.86472,19.71118 32.6459,28.50078 2.17106,5.04677 2.49981,7.55504 2.09103,15.95415 -1.05031,21.5803 -12.89495,34.81302 -36.58444,40.87177 -10.81618,2.76631 -33.44399,3.01889 -43.87865,0.48978 z m -158.78354,-2.88173 c -7.95611,-3.06563 -14.03903,-8.36856 -17.8053,-15.52221 -2.79189,-5.30289 -3.15951,-7.28881 -3.16446,-17.09473 -0.005,-10.19485 0.30525,-11.72626 3.8265,-18.87893 8.61323,-17.49595 34.02134,-32.50156 64.62913,-38.16891 l 7.86576,-1.45643 -0.002,-16.47354 c -0.002,-19.9614 -1.26329,-23.65802 -8.98108,-26.32604 -4.39924,-1.52081 -5.32327,-1.49565 -8.97194,0.24428 -3.3562,1.60046 -4.38364,3.00394 -5.87466,8.02474 -0.99388,3.34676 -1.80706,8.62861 -1.80706,11.73744 0,6.00459 -2.29334,12.77764 -5.5796,16.47849 -3.11309,3.50583 -10.79271,6.52484 -16.66909,6.55294 -22.15534,0.10594 -27.98366,-28.86476 -8.4147,-41.82671 14.56729,-9.64897 48.82866,-13.42763 70.1309,-7.73469 22.06842,5.8977 37.58968,22.50264 40.90457,43.7605 0.64963,4.16594 1.1851,24.31232 1.18994,44.76973 l 0.009,37.19529 3.57413,6.33303 c 1.96578,3.48316 3.2932,7.06515 2.94982,7.95998 -0.92691,2.41549 -68.05449,2.41754 -68.98138,0.002 -0.34293,-0.89366 0.98449,-4.63817 2.94982,-8.32112 1.96533,-3.68294 3.57333,-7.30365 3.57333,-8.04602 0,-0.74237 -3.15334,1.71677 -7.00742,5.46475 -4.09304,3.98036 -10.02996,8.24441 -14.2749,10.25261 -6.42033,3.03733 -8.48998,3.43112 -17.75515,3.37829 -7.44397,-0.0424 -12.17862,-0.71135 -16.31416,-2.30484 z m 51.22396,-27.23213 4.12767,-3.14832 v -23.24665 c 0,-12.97391 -0.46278,-23.24664 -1.04725,-23.24664 -0.57598,0 -5.01963,3.70976 -9.87476,8.24392 -11.44423,10.68765 -16.46248,20.18491 -16.46248,31.15595 0,6.94526 0.24456,7.62172 3.95363,10.93577 3.5145,3.14021 4.57686,3.47269 9.56458,2.99344 3.6908,-0.35464 7.02349,-1.61655 9.73861,-3.68747 z m 197.19613,28.83927 c -1.54523,-1.54524 -0.75367,-4.90789 2.70151,-11.47628 l 3.49589,-6.6458 v -78.59711 c 0,-84.37729 0.0599,-83.48816 -5.83855,-86.64492 -1.29051,-0.69066 -2.31853,-2.43815 -2.31853,-3.94117 0,-2.55483 0.54075,-2.7419 10.03569,-3.47173 13.84605,-1.0643 25.90099,-3.70845 38.68023,-8.48421 5.96407,-2.22884 11.73229,-3.88146 12.81827,-3.6725 1.80299,0.34694 2.00117,3.85982 2.28133,40.43835 l 0.30682,40.0584 6.93247,-6.61246 c 4.08849,-3.89976 10.17732,-8.14943 14.84206,-10.35896 7.41743,-3.51339 8.70867,-3.7465 20.75235,-3.7465 12.18241,0 13.24568,0.19835 20.67856,3.85754 10.41879,5.12916 18.64851,13.31367 23.33436,23.20618 l 3.73977,7.8952 0.58265,47.28268 0.58265,47.28268 3.27448,4.94504 c 6.02813,9.10354 6.99859,8.82169 -31.57828,9.17124 -28.48811,0.25813 -34.20306,0.0383 -34.73031,-1.33563 -0.3471,-0.90454 0.94786,-4.45207 2.8777,-7.88341 l 3.5088,-6.2388 0.35666,-41.95071 c 0.32519,-38.24825 0.17575,-42.28167 -1.69324,-45.70063 -5.14398,-9.40994 -13.91194,-13.1718 -23.83314,-10.22552 -10.71499,3.18201 -10.18526,0.72863 -10.64435,49.29815 -0.42199,44.64403 -0.0901,48.55219 4.69406,55.28118 1.2539,1.76362 2.11237,4.38554 1.90771,5.82649 l -0.3721,2.6199 -33.29057,0.30885 c -18.30981,0.16987 -33.64803,-0.0486 -34.08495,-0.48554 z m -346.11086,-1.18282 c -1.58106,-1.58106 -0.68964,-5.23137 2.4277,-9.94133 l 3.20457,-4.84173 0.31443,-81.33636 0.31443,-81.33635 -4.22957,-4.68164 c -2.32627,-2.5749 -3.9565,-5.39327 -3.62274,-6.26304 0.41565,-1.08316 3.95085,-1.83385 11.22051,-2.38263 11.98273,-0.90458 28.51692,-4.78912 40.08797,-9.41827 13.19351,-5.27824 11.76582,-15.84804 12.4319,92.03869 l 0.58265,94.37331 3.32852,5.55773 c 5.45972,9.11626 5.84747,9.00848 -32.40943,9.00848 -18.08074,0 -33.22366,-0.34958 -33.65094,-0.77686 z"
       id="path1" />
  </g>
</svg>
