<?xml version="1.0" encoding="UTF-8" standalone="no"?>
<!-- Created with Inkscape (http://www.inkscape.org/) -->

<svg
   version="1.1"
   id="svg1"
   width="900"
   height="900"
   viewBox="0 0 900 900"
   sodipodi:docname="DGA.svg"
   inkscape:version="1.4 (86a8ad7, 2024-10-11)"
   xmlns:inkscape="http://www.inkscape.org/namespaces/inkscape"
   xmlns:sodipodi="http://sodipodi.sourceforge.net/DTD/sodipodi-0.dtd"
   xmlns="http://www.w3.org/2000/svg"
   xmlns:svg="http://www.w3.org/2000/svg">
  <defs
     id="defs1" />
  <sodipodi:namedview
     id="namedview1"
     pagecolor="#ffffff"
     bordercolor="#000000"
     borderopacity="0.25"
     inkscape:showpageshadow="2"
     inkscape:pageopacity="0.0"
     inkscape:pagecheckerboard="0"
     inkscape:deskcolor="#d1d1d1"
     inkscape:zoom="0.96625"
     inkscape:cx="458.47348"
     inkscape:cy="403.10479"
     inkscape:window-width="1920"
     inkscape:window-height="991"
     inkscape:window-x="-9"
     inkscape:window-y="-9"
     inkscape:window-maximized="1"
     inkscape:current-layer="g1" />
  <g
     inkscape:groupmode="layer"
     inkscape:label="Image"
     id="g1">
    <path
       style="fill:#000000"
       d="M 127.3894,409.84348 V 262.65331 l 47.42368,0 c 90.74102,0 96.2121,8.38738 96.24241,147.54334 0.0299,137.06178 -6.77697,146.837 -102.24784,146.837 H 127.3894 Z m 90.99442,94.85264 c 2.23119,-4.16902 3.62783,-41.50215 3.62783,-96.9747 0,-104.14116 0.31277,-103.01378 -28.57938,-103.01378 l -16.97948,0 v 103.38358 103.38357 h 19.1516 c 15.34789,0 19.87212,-1.34631 22.77943,-6.77867 z m 106.1577,48.42255 c -36.52074,-10.54712 -42.95883,-32.3961 -42.93335,-145.7032 0.028,-124.41409 9.63099,-144.76216 68.31875,-144.76216 45.97876,0 68.33829,25.45196 68.33829,77.7898 v 24.17596 l -21.9033,-1.04336 -21.9033,-1.04336 -1.75226,-25.54192 c -1.86856,-27.23705 -5.09588,-32.17546 -21.02717,-32.17546 -21.80417,0 -23.97746,9.11717 -24.30612,101.9666 -0.35856,101.29463 4.92409,117.85546 33.26789,104.29312 l 10.31313,-4.93478 0.99874,-35.88237 0.99873,-35.88237 h -8.88392 -8.88392 v -21.02716 -21.02717 h 31.54075 31.54075 l -0.077,56.94858 c -0.12422,91.9183 -27.98343,122.81268 -93.64672,103.84925 z m 97.22822,-3.02472 c 0,-6.61287 40.3242,-263.07576 43.95509,-279.55545 l 1.73731,-7.88519 h 34.97851 c 21.23291,0 34.97851,1.39212 34.97851,3.54254 0,1.9484 10.25074,67.31841 22.77943,145.26669 12.52869,77.94828 22.77943,142.58971 22.77943,143.64763 0,1.05791 -10.85755,1.92348 -24.12789,1.92348 h -24.12789 l -2.36427,-20.15103 c -3.98434,-33.95903 -2.39463,-32.41689 -33.41674,-32.41689 h -27.49202 l -2.29184,14.89425 c -1.26052,8.19183 -3.15168,20.01961 -4.20259,26.28395 l -1.91075,11.38972 H 442.40688 421.76974 Z M 518.999,451.02168 c -0.99803,-6.26434 -5.43703,-36.25341 -9.86443,-66.64236 -9.58163,-65.76668 -10.47751,-65.57342 -20.56733,4.43699 -4.30571,29.8761 -8.67741,58.65704 -9.71488,63.95764 l -1.88631,9.63745 h 21.92378 21.92377 z m 128.81279,97.59017 C 599.36013,519.12033 559.68199,408.71418 562.6756,311.7167 l 1.02752,-33.29302 14.01811,-7.00905 14.01811,-7.00906 h 71.84282 c 107.74498,0 111.65796,2.28342 107.2435,62.58185 C 760.37449,469.74285 699.2271,579.90729 647.81179,548.61185 Z M 646.1376,521.11224 C 619.21783,480.8711 601.20614,418.7302 597.64482,353.81061 l -2.40095,-43.76703 -6.67148,-1.27639 -6.67147,-1.27638 2.14534,39.78662 c 3.58569,66.49872 23.32291,128.00635 53.97296,168.19734 14.77638,19.37608 19.50607,22.66041 8.11838,5.63747 z m 18.8096,-99.87905 2.33038,-106.01196 h -9.32537 -9.32538 l 1.84814,72.71895 c 1.50667,59.28288 8.41989,144.03282 11.43648,140.20098 0.38795,-0.4928 1.75404,-48.60138 3.03575,-106.90797 z m -19.02845,70.3362 c -8.95261,-35.05047 -13.62483,-71.65902 -16.21967,-127.0873 -2.08343,-44.50388 -4.08089,-52.55848 -13.07196,-52.71173 -12.19015,-0.20777 5.04441,126.927 24.60073,181.47312 11.39167,31.77345 13.08019,31.17085 4.6909,-1.67409 z m 31.68152,-193.88372 c -51.5534,-3.10011 -69.33881,-6.27519 -73.1335,-13.05593 -3.25421,-5.81495 -21.48875,-3.7904 -21.48875,2.38587 0,7.51023 42.57106,13.33931 96.37452,13.19615 l 38.54981,-0.10257 z"
       id="path1" />
  </g>
</svg>
