<?xml version="1.0" encoding="UTF-8" standalone="no"?>
<!-- Created with Inkscape (http://www.inkscape.org/) -->

<svg
   version="1.1"
   id="svg1"
   width="900"
   height="900"
   viewBox="0 0 900 899.99999"
   sodipodi:docname="Discraft.svg"
   inkscape:version="1.4 (86a8ad7, 2024-10-11)"
   xmlns:inkscape="http://www.inkscape.org/namespaces/inkscape"
   xmlns:sodipodi="http://sodipodi.sourceforge.net/DTD/sodipodi-0.dtd"
   xmlns="http://www.w3.org/2000/svg"
   xmlns:svg="http://www.w3.org/2000/svg">
  <defs
     id="defs1">
    <clipPath
       clipPathUnits="userSpaceOnUse"
       id="clipPath2">
      <path
         d="M 0,87.5 H 288 V 0 H 0 Z"
         transform="translate(-93.147505,-60.990202)"
         id="path2" />
    </clipPath>
    <clipPath
       clipPathUnits="userSpaceOnUse"
       id="clipPath4">
      <path
         d="M 0,87.5 H 288 V 0 H 0 Z"
         transform="translate(-89.520505,-67.595701)"
         id="path4" />
    </clipPath>
    <clipPath
       clipPathUnits="userSpaceOnUse"
       id="clipPath6">
      <path
         d="M 0,87.5 H 288 V 0 H 0 Z"
         transform="translate(-51.994102,-22.0059)"
         id="path6" />
    </clipPath>
    <clipPath
       clipPathUnits="userSpaceOnUse"
       id="clipPath8">
      <path
         d="M 0,87.5 H 288 V 0 H 0 Z"
         transform="translate(-71.213902,-47.775401)"
         id="path8" />
    </clipPath>
    <clipPath
       clipPathUnits="userSpaceOnUse"
       id="clipPath10">
      <path
         d="M 0,87.5 H 288 V 0 H 0 Z"
         transform="translate(-105.0283,-33.554701)"
         id="path10" />
    </clipPath>
    <clipPath
       clipPathUnits="userSpaceOnUse"
       id="clipPath12">
      <path
         d="M 0,87.5 H 288 V 0 H 0 Z"
         transform="translate(-117.39651,-22.4346)"
         id="path12" />
    </clipPath>
    <clipPath
       clipPathUnits="userSpaceOnUse"
       id="clipPath14">
      <path
         d="M 0,87.5 H 288 V 0 H 0 Z"
         transform="translate(-181.5088,-29.356401)"
         id="path14" />
    </clipPath>
  </defs>
  <sodipodi:namedview
     id="namedview1"
     pagecolor="#ffffff"
     bordercolor="#000000"
     borderopacity="0.25"
     inkscape:showpageshadow="2"
     inkscape:pageopacity="0.0"
     inkscape:pagecheckerboard="0"
     inkscape:deskcolor="#d1d1d1"
     inkscape:zoom="0.40810557"
     inkscape:cx="1016.8937"
     inkscape:cy="726.52769"
     inkscape:window-width="1920"
     inkscape:window-height="991"
     inkscape:window-x="-9"
     inkscape:window-y="-9"
     inkscape:window-maximized="1"
     inkscape:current-layer="layer-MC0">
    <inkscape:page
       x="0"
       y="0"
       inkscape:label="1"
       id="page1"
       width="900"
       height="900"
       margin="18.261734 39.259998 22.934134 40.083332"
       bleed="0" />
  </sodipodi:namedview>
  <g
     id="layer-MC0"
     inkscape:groupmode="layer"
     inkscape:label="Layer 1"
     transform="matrix(2.3008493,0,0,2.3008493,8.0176692,259.30693)"
     style="display:inline;stroke-width:0.434622"
     sodipodi:insensitive="true">
    <path
       id="path1"
       d="m 0,0 c 0.39,-3.303 -6.216,-6.796 -14.752,-7.804 -8.538,-1.009 -15.775,0.848 -16.164,4.15 -0.391,3.3 6.213,6.795 14.75,7.804 C -7.628,5.159 -0.391,3.3 0,0"
       style="fill:#000000;fill-opacity:1;fill-rule:nonzero;stroke:none;stroke-width:0.434622"
       transform="matrix(1.3333333,0,0,-1.3333333,124.19667,35.3464)"
       clip-path="url(#clipPath2)" />
    <path
       id="path3"
       d="m 0,0 c 0,0 86.602,12.785 159.333,-17.249 0,0 0,-0.85 -0.169,-0.756 0,0 -67.327,26.627 -156.289,4.388 0,0 11.196,7.564 -2.875,13.617"
       style="fill:#000000;fill-opacity:1;fill-rule:nonzero;stroke:none;stroke-width:0.434622"
       transform="matrix(1.3333333,0,0,-1.3333333,119.36067,26.539067)"
       clip-path="url(#clipPath4)" />
    <path
       id="path5"
       d="m 0,0 -10.131,0.048 4.539,17.553 c 0,0 4.69,0.3 8.321,0.3 3.631,0 2.572,-1.815 2.572,-1.815 L 1.82,1.865 C 1.367,-0.405 -1.356,0.048 -1.356,0.048 M 15.135,15.48 c 0,0 3.177,9.685 -11.347,10.29 H -13.46 l -8.472,-33.739 20.425,-0.302 c 0,0 9.531,-0.456 12.709,8.319 z"
       style="fill:#000000;fill-opacity:1;fill-rule:nonzero;stroke:none;stroke-width:0.434622"
       transform="matrix(1.3333333,0,0,-1.3333333,69.325467,87.325467)"
       clip-path="url(#clipPath6)" />
    <path
       id="path7"
       d="M 0,0 -8.32,-33.89 H 1.514 L 9.835,-0.15 Z"
       style="fill:#000000;fill-opacity:1;fill-rule:nonzero;stroke:none;stroke-width:0.434622"
       transform="matrix(1.3333333,0,0,-1.3333333,94.951867,52.966133)"
       clip-path="url(#clipPath8)" />
    <path
       id="path9"
       d="m 0,0 c -2.155,2.383 -10.779,1.474 -11.801,1.474 -1.021,0 -3.517,0.454 -3.517,0.454 0.226,3.971 4.084,3.518 4.084,3.518 H 3.063 l 2.156,8.738 c 0,0 -11.687,0.226 -16.907,0.114 -5.219,-0.114 -7.942,-1.59 -11.233,-5.562 -3.291,-3.971 -1.815,-9.873 -1.815,-9.873 1.928,-5.672 8.509,-5.332 12.368,-5.218 3.858,0.114 4.765,-0.568 4.765,-0.568 0.34,-4.765 -6.581,-4.197 -6.581,-4.197 h -14.297 l -2.157,-8.624 c 0,0 15.887,-0.114 18.837,0 2.95,0.113 8.169,0.681 11.12,5.105 2.951,4.425 2.951,7.035 3.177,9.304 C 2.724,-3.063 2.157,-2.384 0,0"
       style="fill:#000000;fill-opacity:1;fill-rule:nonzero;stroke:none;stroke-width:0.434622"
       transform="matrix(1.3333333,0,0,-1.3333333,140.03773,71.927067)"
       clip-path="url(#clipPath10)" />
    <path
       id="path11"
       d="m 0,0 c -0.227,0.792 3.064,13.389 3.064,13.389 0,0 0.794,2.836 1.134,3.29 0.341,0.455 2.95,0.226 2.95,0.226 h 11.348 l 2.156,8.513 c 0,0 -17.021,0.112 -18.61,0 C 0.454,25.304 -2.384,24.281 -3.177,23.487 -3.971,22.693 -5.22,19.856 -5.446,19.062 -5.674,18.268 -9.759,1.36 -10.211,-1.362 c -0.455,-2.724 1.134,-4.767 3.289,-6.014 2.156,-1.248 6.809,-1.362 7.489,-1.362 H 13.163 L 15.092,0 Z"
       style="fill:#000000;fill-opacity:1;fill-rule:nonzero;stroke:none;stroke-width:0.434622"
       transform="matrix(1.3333333,0,0,-1.3333333,156.52867,86.753867)"
       clip-path="url(#clipPath12)" />
    <path
       id="path13"
       d="M 0,0 3.97,6.693 4.765,0 Z m -34.384,5.672 1.137,4.426 c 13.161,0.795 12.708,-1.021 12.708,-1.021 0.566,-5.221 -13.845,-3.405 -13.845,-3.405 M 23.261,18.269 15.772,-12.142 12.594,18.496 0.68,18.382 l -17.928,-30.184 -6.468,9.531 c 3.858,-0.228 6.581,1.362 7.488,1.929 0.91,0.568 4.653,2.951 4.994,8.171 0.34,5.219 -1.248,7.148 -3.859,8.963 -2.608,1.816 -10.212,1.816 -11.347,1.816 -1.134,0 -14.637,-0.112 -14.637,-0.112 l -8.511,-34.042 h 9.872 l 3.744,14.865 11.008,-14.865 h 15.772 l 4.199,7.148 H 5.446 l 0.795,-7.148 h 18.494 l 3.405,13.615 h 16.34 l 2.156,8.398 H 30.183 l 0.907,3.178 h 24.17 l -6.128,-25.191 h 9.759 l 6.582,25.076 9.643,0.227 1.93,8.512 z"
       style="fill:#000000;fill-opacity:1;fill-rule:nonzero;stroke:none;stroke-width:0.434622"
       transform="matrix(1.3333333,0,0,-1.3333333,242.01173,77.5248)"
       clip-path="url(#clipPath14)" />
  </g>
</svg>
