<?xml version="1.0" encoding="UTF-8" standalone="no"?>
<!-- Created with Inkscape (http://www.inkscape.org/) -->

<svg
   version="1.1"
   id="svg1"
   width="900"
   height="900"
   viewBox="0 0 900.00001 899.99999"
   sodipodi:docname="Discmania.svg"
   inkscape:version="1.4 (86a8ad7, 2024-10-11)"
   xmlns:inkscape="http://www.inkscape.org/namespaces/inkscape"
   xmlns:sodipodi="http://sodipodi.sourceforge.net/DTD/sodipodi-0.dtd"
   xmlns="http://www.w3.org/2000/svg"
   xmlns:svg="http://www.w3.org/2000/svg">
  <defs
     id="defs1" />
  <sodipodi:namedview
     id="namedview1"
     pagecolor="#ffffff"
     bordercolor="#000000"
     borderopacity="0.25"
     inkscape:showpageshadow="2"
     inkscape:pageopacity="0.0"
     inkscape:pagecheckerboard="0"
     inkscape:deskcolor="#d1d1d1"
     inkscape:zoom="0.72468753"
     inkscape:cx="676.15349"
     inkscape:cy="400.86243"
     inkscape:window-width="1920"
     inkscape:window-height="991"
     inkscape:window-x="-9"
     inkscape:window-y="-9"
     inkscape:window-maximized="1"
     inkscape:current-layer="g1" />
  <g
     inkscape:groupmode="layer"
     inkscape:label="Image"
     id="g1">
    <path
       style="fill:#000000;stroke-width:1"
       d="M 392.68307,772.00504 C 272.85901,709.57387 189.33357,628.42323 160.51968,546.44251 145.11852,502.62347 141.59455,454.8981 143.02336,309.48803 l 1.35765,-138.16873 51.79839,-5.40218 c 46.79852,-4.88074 95.56123,-15.74191 198.9026,-44.30264 19.32975,-5.34221 45.6885,-9.72417 58.57499,-9.73767 13.12517,-0.0137 67.74076,11.29862 124.179,25.72084 55.41195,14.15998 117.0344,27.22457 136.93878,29.03245 20.93558,1.90154 38.39746,5.94715 41.42739,9.59799 8.42137,10.14713 3.11546,316.10702 -6.0073,346.40467 -22.53214,74.83166 -68.03263,134.20667 -148.65484,193.98439 -42.00486,31.1447 -134.66872,80.22478 -151.02109,79.98939 -6.00597,-0.0865 -32.03209,-11.15713 -57.83586,-24.6015 z m 98.63676,-10.61949 c 83.579,-39.66166 173.74379,-114.25332 209.29851,-173.1488 35.88339,-59.43988 38.01011,-71.76526 40.23413,-233.1752 1.09232,-79.27768 0.73046,-149.14391 -0.80416,-155.25833 -2.47622,-9.86602 -6.35533,-11.49364 -34.46978,-14.46304 -28.38438,-2.99792 -74.86483,-13.78629 -190.58162,-44.2351 -51.94598,-13.66866 -73.58614,-12.37798 -151.7361,9.04996 -77.05772,21.12846 -124.22249,30.83835 -171.22864,35.25111 l -32.01084,3.00506 1.658,155.39577 c 1.63915,153.62854 1.79662,155.7782 13.84841,189.02322 24.15681,66.63688 73.9027,125.5636 150.98625,178.85142 37.34873,25.81915 112.55321,66.33812 123.12565,66.33812 3.64485,0 22.40093,-7.48539 41.68019,-16.63419 z m -90.8197,-20.84594 C 289.9125,681.83651 217.18393,608.9578 188.76039,528.36272 179.27075,501.4548 178.33026,488.52664 176.58282,360.96577 c -1.04153,-76.03033 -0.65506,-142.61595 0.85882,-147.96803 2.38865,-8.44464 9.67738,-10.77102 55.13594,-17.59798 28.81088,-4.32681 87.048,-17.34461 129.41582,-28.92845 42.3678,-11.58383 84.5418,-21.01924 93.71999,-20.96758 9.17818,0.0516 36.72025,5.41885 61.2046,11.9271 113.87796,30.27018 149.7079,38.74009 176.89649,41.81686 l 29.28751,3.31431 v 146.65529 c 0,133.05352 -0.86282,149.4487 -9.30285,176.77437 C 694.71269,587.78634 638.49533,654.39 563.64039,703.89257 521.92516,731.47939 460.40396,764.0245 450.25948,763.8718 446.97351,763.8224 424.5818,753.32284 400.50013,740.53961 Z M 456,705.38674 v -30.459 h 18.19747 c 14.91024,0 18.70787,-1.9046 21.02301,-10.54349 5.04313,-18.81841 3.35134,-22.2585 -10.94645,-22.2585 h -13.89996 l 9.30883,-15.7773 c 5.5514,-9.40893 9.74341,-25.95925 10.38547,-41.00251 l 1.07662,-25.22518 h -39.831 -39.83099 l 1.07662,25.22518 c 0.64206,15.04326 4.83407,31.59358 10.38547,41.00251 l 9.30883,15.7773 h -13.89996 c -10.57841,0 -13.89996,2.14796 -13.89996,8.98874 0,18.62909 5.20987,23.81325 23.93134,23.81325 h 18.24265 v 30.459 c 0,17.182 2.04262,30.45899 4.686,30.45899 2.64338,0 4.68601,-13.27699 4.68601,-30.45899 z M 246.1992,490.55085 c -1.92413,-29.98207 -1.12569,-34.8407 6.18664,-37.6467 4.92751,-1.89087 9.97285,-0.73648 12.21327,2.7944 5.43402,8.56402 4.8738,49.41589 -0.72511,52.8762 -2.5773,1.59287 -4.68599,5.93471 -4.68599,9.64857 0,4.86561 5.81507,6.75245 20.81044,6.75245 19.4084,0 34.56285,-8.87724 22.19321,-13.00046 -8.96159,-2.98719 -7.23842,-55.62576 1.93621,-59.1464 4.09855,-1.57275 9.37029,-1.67391 11.71501,-0.2248 5.80131,3.58542 5.43287,52.3516 -0.42287,55.97064 -2.5773,1.59287 -4.68601,5.90229 -4.68601,9.5765 0,5.31118 8.40399,6.581 41.00249,6.19543 22.55138,-0.26674 44.82752,-2.48935 49.50254,-4.93914 5.30663,-2.78075 10.58814,-2.80043 14.05801,-0.0523 8.39223,6.64639 77.00865,6.63867 81.11723,-0.009 1.88047,-3.04267 0.93699,-6.35949 -2.09661,-7.37069 -8.21921,-2.73974 -7.13433,-50.11262 1.30807,-57.11919 3.75304,-3.11476 9.0248,-4.30286 11.71499,-2.64022 6.26453,3.87168 6.45626,58.70186 0.20527,58.70186 -2.5773,0 -4.68599,3.16304 -4.68599,7.029 0,5.7794 8.33066,7.029 46.86,7.029 25.77299,0 46.85999,-1.92553 46.85999,-4.27897 0,-2.35341 6.3261,-1.89111 14.05799,1.02736 10.57752,3.99256 17.69363,3.934 28.74267,-0.23655 10.44752,-3.9435 17.33398,-4.12495 23.86646,-0.62889 11.57057,6.19239 29.80444,1.85909 33.5802,-7.98038 4.64288,-12.09916 -2.4276,-18.593 -9.58561,-8.80382 -5.53747,7.57293 -6.31372,4.96897 -6.31372,-21.17964 0,-38.4937 -6.94044,-46.9531 -38.52233,-46.9531 -28.51332,0 -41.13966,6.36862 -41.13966,20.75052 0,12.33369 10.66639,18.44548 24.51855,14.04898 6.28058,-1.99338 8.38768,-5.7788 6.73486,-12.0992 -1.91313,-7.31582 -0.32259,-8.90159 7.77209,-7.74875 18.29855,2.60602 10.86019,15.18209 -16.767,28.34808 -19.60487,9.34286 -26.9445,15.40605 -26.9445,22.2585 0,5.17981 -2.1087,9.41786 -4.686,9.41786 -2.7335,0 -4.68601,-15.62 -4.68601,-37.488 v -37.48799 h -18.74399 c -13.53734,0 -18.74399,1.9525 -18.74399,7.02899 0,3.86596 2.10869,7.029 4.68599,7.029 2.64338,0 4.686,13.277 4.686,30.459 0,27.33499 -0.96124,30.459 -9.37199,30.459 -8.45319,0 -9.37202,-3.12401 -9.37202,-31.8648 0,-35.78858 -4.37765,-43.11119 -25.77299,-43.11119 -7.98963,0 -17.05703,2.53043 -20.14979,5.62319 -4.3736,4.37361 -5.6232,4.37361 -5.6232,0 0,-3.43639 -7.28934,-5.62319 -18.74401,-5.62319 -13.53732,0 -18.744,1.9525 -18.744,7.02899 0,3.86596 2.10871,7.029 4.68601,7.029 2.67525,0 4.62485,13.57251 4.5435,31.6305 -0.10712,23.77458 -1.32878,29.59377 -4.91885,23.43 -2.62699,-4.51028 -6.62565,-8.2005 -8.8859,-8.2005 -2.26025,0 -5.07392,3.69022 -6.25257,8.2005 -1.17867,4.51027 -2.38764,-4.50967 -2.68661,-20.04433 -0.77127,-40.0765 -8.22262,-49.07416 -40.64029,-49.07416 -19.16175,0 -27.81234,2.30505 -34.77299,9.26571 -10.49017,10.49017 -8.42105,21.49427 4.68608,24.92185 10.72179,2.80382 25.9753,-7.362 21.62009,-14.40889 -5.04054,-8.15576 4.22723,-10.67799 13.7228,-3.73465 11.6151,8.49315 3.81567,18.02415 -20.77972,25.39312 -19.67821,5.89574 -26.41864,11.84749 -30.0227,26.50985 -1.26703,5.15459 -2.54829,-5.49433 -2.84726,-23.6643 -0.30815,-18.7283 -2.97899,-35.4717 -6.16678,-38.6595 -6.84017,-6.84017 -29.26799,-7.34271 -41.26048,-0.92452 -5.86881,3.14089 -9.74231,3.14089 -11.68348,0 -3.79013,-6.13256 -28.57932,-6.03858 -40.1469,0.15212 -6.248,3.34382 -9.06394,3.34382 -9.06394,0 0,-2.66799 -8.4348,-4.85087 -18.74399,-4.85087 -13.53734,0 -18.74399,1.9525 -18.74399,7.02899 0,3.86596 2.10869,7.029 4.68599,7.029 2.64338,0 4.686,13.27701 4.686,30.459 0,17.182 -2.04262,30.459 -4.686,30.459 -2.5773,0 -4.68599,3.16304 -4.68599,7.029 0,5.28178 5.64912,7.02901 22.72622,7.02901 h 22.72622 z m 134.8248,14.39009 c 0,-6.7506 14.31575,-22.13918 20.59574,-22.13918 1.90123,0 2.78953,5.79893 1.97401,12.8865 -1.06166,9.22676 -4.47708,13.31177 -12.02626,14.38392 -6.67068,0.94739 -10.54349,-0.93741 -10.54349,-5.13124 z m 245.53565,0.51524 c -1.97726,-3.19927 2.27555,-9.98814 10.26694,-16.38938 10.61673,-8.50416 13.96793,-9.4259 15.1102,-4.15598 3.70723,17.10354 -17.09545,33.9454 -25.37714,20.54536 z m -41.69466,-85.9154 c 0,-6.28852 -3.64675,-9.88798 -11.08397,-10.94025 -13.50912,-1.91136 -21.64966,5.28264 -17.68089,15.62508 4.42205,11.52367 28.76486,7.55902 28.76486,-4.68483 z m -298.60365,-9.63772 c 5.8375,-4.08874 10.41466,-5.11848 10.41466,-2.34301 0,6.68088 160.28303,6.80428 166.95876,0.12847 3.30689,-3.30689 9.12585,-2.57938 18.50971,2.31413 29.03782,15.14276 61.95994,6.73582 80.32137,-20.51071 5.87628,-8.7198 10.68416,-12.77384 10.68416,-9.00893 0,3.7649 6.46456,13.03871 14.36568,20.60848 13.06154,12.51374 17.30596,13.76321 46.75349,13.76321 28.48078,0 33.83141,-1.4436 44.35469,-11.96688 6.58179,-6.58178 13.23172,-19.76115 14.77762,-29.2875 2.73934,-16.8805 2.43796,-17.32061 -11.86037,-17.32061 -11.70276,0 -14.67113,1.95853 -14.67113,9.68005 0,18.50821 -8.71311,27.80793 -26.05385,27.80793 -19.95988,0 -25.52571,-11.09519 -25.42307,-50.67954 0.0925,-35.64105 7.54491,-49.65326 27.42837,-51.57111 8.5628,-0.82592 19.05822,0.0325 23.32315,1.90764 5.98768,2.63255 4.55152,4.04918 -6.30359,6.21781 -10.21188,2.0401 -14.49069,5.86035 -15.6395,13.96341 -2.70513,19.08051 25.38027,26.72377 42.21501,11.48854 19.45343,-17.60512 1.79495,-49.61347 -30.73797,-55.71669 -50.65026,-9.50204 -86.8808,21.04463 -87.51157,73.78275 -0.21328,17.83208 -1.38673,22.14585 -4.16181,15.29952 -5.60392,-13.82523 -13.62271,-19.26869 -49.83918,-33.83271 -24.79496,-9.971 -32.39298,-15.20574 -32.39298,-22.31753 0,-7.00212 3.65042,-9.64526 14.81735,-10.72873 12.21577,-1.18525 17.15229,1.48868 28.11601,15.22936 8.1544,10.21981 17.37712,16.66707 23.84213,16.66716 9.65603,1.2e-4 10.54351,-2.16927 10.54351,-25.77286 0,-24.3672 -0.639,-25.773 -11.715,-25.773 -6.44325,0 -11.715,2.16285 -11.715,4.80634 0,2.68113 -6.55935,1.41436 -14.83453,-2.8649 -34.02958,-17.59738 -78.88546,2.88483 -78.88546,36.02087 0,19.15546 15.98659,33.79622 50.73903,46.46761 31.27117,11.40203 40.8416,19.3246 36.62329,30.31739 -6.9023,17.98707 -54.37772,1.69443 -61.62813,-21.14955 -1.86292,-5.86953 -7.10149,-9.24976 -14.33498,-9.24976 -10.20928,0 -11.39921,1.99248 -11.39921,19.08758 0,15.65374 -1.47527,18.80469 -8.2005,17.51504 -7.21419,-1.38343 -8.35824,-8.75168 -9.51201,-61.2616 l -1.3115,-59.68902 H 392.599 c -27.195,0 -30.319,0.96568 -30.319,9.37199 0,5.20667 3.124,9.37201 7.029,9.37201 5.82444,0 7.02901,8.88432 7.02901,51.84288 v 51.84298 l -15.2295,-1.46839 -15.2295,-1.46841 -1.27964,-83.17648 -1.27963,-83.17649 h -30.35086 c -29.25026,0 -30.35087,0.42481 -30.35087,11.71499 0,7.28933 2.65539,11.71499 7.029,11.71499 4.67301,0 7.02899,4.67312 7.02899,13.94203 0,13.02958 -0.78665,13.64292 -12.02005,9.372 -34.45942,-13.10145 -63.10187,3.8314 -72.45902,42.83634 -10.39928,43.34904 1.0586,88.16868 25.00576,97.81465 16.17712,6.51619 37.70114,5.39137 49.05865,-2.56374 z m -25.15191,-27.83605 c -11.08633,-16.91988 -7.61772,-75.63672 5.01376,-84.87309 11.33009,-8.28477 14.16202,-8.1815 23.1891,0.84557 11.30893,11.30895 10.40215,77.468 -1.20576,87.97301 -11.77735,10.65836 -18.02673,9.74504 -26.9971,-3.94549 z M 420.35645,252.01629 c 10.71986,-17.11407 -14.71643,-35.41547 -35.09896,-25.25369 -13.08714,6.52467 -16.80735,19.2639 -8.53602,29.23024 7.81514,9.41666 36.90638,6.76551 43.63498,-3.97655 z m 274.95552,3.12171 c 7.71722,-9.29869 1.01316,-21.54136 -12.96406,-23.67444 -14.01661,-2.13908 -22.22828,9.11107 -15.63823,21.42468 6.15837,11.50706 20.01488,12.59696 28.60229,2.24976 z m -21.36575,-2.02665 c 1.61885,-2.61934 4.90634,-3.54924 7.30555,-2.06645 4.18966,2.58935 6.44729,-4.43524 4.58242,-14.25811 -0.4893,-2.5773 1.64968,-2.19186 4.75329,0.85653 7.93188,7.79073 1.91263,20.23047 -9.78898,20.23047 -5.44197,0 -8.48746,-2.11667 -6.85228,-4.76244 z"
       id="path1" />
  </g>
</svg>
