<?xml version="1.0" encoding="UTF-8" standalone="no"?>
<!-- Created with Inkscape (http://www.inkscape.org/) -->

<svg
   version="1.1"
   id="svg1"
   width="900"
   height="900"
   viewBox="0 0 899.99999 899.99999"
   sodipodi:docname="DynamicDiscs.svg"
   inkscape:version="1.4 (86a8ad7, 2024-10-11)"
   xmlns:inkscape="http://www.inkscape.org/namespaces/inkscape"
   xmlns:sodipodi="http://sodipodi.sourceforge.net/DTD/sodipodi-0.dtd"
   xmlns="http://www.w3.org/2000/svg"
   xmlns:svg="http://www.w3.org/2000/svg">
  <defs
     id="defs1" />
  <sodipodi:namedview
     id="namedview1"
     pagecolor="#ffffff"
     bordercolor="#000000"
     borderopacity="0.25"
     inkscape:showpageshadow="2"
     inkscape:pageopacity="0.0"
     inkscape:pagecheckerboard="0"
     inkscape:deskcolor="#d1d1d1"
     inkscape:zoom="0.72468753"
     inkscape:cx="458.12849"
     inkscape:cy="494.69597"
     inkscape:window-width="1920"
     inkscape:window-height="991"
     inkscape:window-x="-9"
     inkscape:window-y="-9"
     inkscape:window-maximized="1"
     inkscape:current-layer="g1" />
  <g
     inkscape:groupmode="layer"
     inkscape:label="Image"
     id="g1">
    <path
       style="fill:#000000;stroke-width:1"
       d="m 474.85241,732.64365 c -16.69115,-6.73077 -16.33838,-33.3471 0.49798,-37.57276 12.05816,-3.0264 27.84753,-0.64704 26.5836,4.00598 -0.55129,2.02956 -6.7272,3.79411 -13.72424,3.92121 -10.89423,0.19791 -12.72187,1.63943 -12.72187,10.03415 0,8.38261 1.83296,9.83682 12.65039,10.03624 16.98448,0.3131 20.21314,4.52933 7.24423,9.4601 -5.83117,2.217 -10.9284,3.91907 -11.32717,3.78236 -0.39877,-0.13662 -4.54008,-1.78697 -9.20292,-3.66728 z m -297.9509,-19.5895 0.57424,-19.58415 15.88091,-0.022 c 18.41436,-0.0254 25.29182,5.29999 25.29182,19.58415 0,14.38241 -6.89151,19.60606 -25.86606,19.60606 h -16.45515 z m 31.59207,5.36289 c 3.09675,-8.07001 -4.2368,-17.14845 -13.85251,-17.14845 -5.56618,0 -7.36228,2.86986 -7.36228,11.76364 0,9.79347 1.57152,11.76363 9.3835,11.76363 5.16092,0 10.48501,-2.87048 11.83129,-6.37882 z m 33.38216,13.24094 c -0.16501,-0.53918 -0.8818,-4.00461 -1.59289,-7.70099 -0.71108,-3.69637 -5.10759,-12.07797 -9.77002,-18.62576 -6.31726,-8.87176 -7.06534,-11.90507 -2.93607,-11.90507 3.0476,0 8.73574,3.53005 12.6403,7.84453 l 7.0992,7.84453 5.49452,-7.84453 c 3.02198,-4.31448 8.13108,-7.84453 11.35355,-7.84453 4.37191,0 3.32022,3.32855 -4.14356,13.11406 -5.50143,7.21275 -10.00259,16.03548 -10.00259,19.60607 0,5.10822 -6.84739,9.74328 -8.14244,5.51169 z m 31.66971,-18.62575 c 0,-22.53774 5.19991,-25.13768 19.60607,-9.80305 5.0652,5.39168 10.87213,9.80305 12.90428,9.80305 2.03215,0 2.85152,-4.41137 1.82083,-9.80305 -1.25661,-6.57355 -0.11532,-9.80302 3.4641,-9.80302 3.79152,0 5.33806,5.68023 5.33806,19.60607 0,22.5177 -6.32452,25.79715 -18.9055,9.80302 -4.24109,-5.39166 -8.78053,-9.80302 -10.08764,-9.80302 -1.3071,0 -2.37656,4.41136 -2.37656,9.80302 0,6.09966 -2.22202,9.80303 -5.88181,9.80303 -4.44405,0 -5.88183,-4.79259 -5.88183,-19.60605 z m 50.97576,17.75033 c 0,-6.83464 18.19415,-37.3564 22.26833,-37.3564 4.87438,0 20.865,26.9267 20.865,35.1347 0,2.24257 -2.64681,4.07742 -5.88182,4.07742 -3.23499,0 -5.88181,-1.76455 -5.88181,-3.92122 0,-2.15667 -4.41136,-3.9212 -9.80303,-3.9212 -5.39167,0 -9.80304,1.76453 -9.80304,3.9212 0,2.15667 -2.64681,3.92122 -5.88181,3.92122 -3.23501,0 -5.88182,-0.83507 -5.88182,-1.85572 z m 24.94529,-19.71094 c -1.24139,-3.23501 -2.76177,-5.88183 -3.37862,-5.88183 -0.61686,0 -2.13723,2.64682 -3.37863,5.88183 -1.36107,3.54692 -0.0198,5.88181 3.37863,5.88181 3.39849,0 4.7397,-2.33489 3.37862,-5.88181 z m 26.03046,1.96061 c 0,-18.03234 0.74869,-19.60607 9.32731,-19.60607 6.76976,0 10.7333,3.39432 14.45487,12.37902 l 5.12756,12.37902 5.86261,-12.37902 c 3.41179,-7.20406 8.84367,-12.37902 12.99361,-12.37902 5.70538,0 7.13102,3.13573 7.13102,15.68485 0,8.62667 0.13236,16.96413 0.29408,18.52773 0.16169,1.56357 -1.483,3.43524 -3.65501,4.15924 -2.17201,0.724 -4.62325,-4.52551 -5.44719,-11.6656 l -1.4981,-12.98198 -5.03352,12.74395 c -2.76843,7.00916 -7.18758,12.74393 -9.82032,12.74393 -2.63275,0 -7.64092,-5.73477 -11.12926,-12.74393 l -6.34246,-12.74395 -0.25077,12.74395 c -0.16929,8.60234 -2.16229,12.74393 -6.1326,12.74393 -4.44405,0 -5.88183,-4.79259 -5.88183,-19.60605 z m 66.66061,0 c 0,-14.81348 1.43778,-19.60607 5.88183,-19.60607 4.44403,0 5.88181,4.79259 5.88181,19.60607 0,14.81346 -1.43778,19.60605 -5.88181,19.60605 -4.44405,0 -5.88183,-4.79259 -5.88183,-19.60605 z m 86.26668,0 V 693.42616 H 543.829 c 17.3365,0 27.72857,7.89379 27.72857,21.0625 0,12.99609 -7.4599,18.14962 -26.27212,18.14962 h -16.8612 z m 29.40908,0 c 0,-7.1807 -2.3601,-10.13822 -8.82272,-11.05607 -7.54189,-1.07112 -8.82273,0.53395 -8.82273,11.05607 0,10.52209 1.28084,12.12716 8.82273,11.05605 6.46262,-0.91784 8.82272,-3.87537 8.82272,-11.05605 z m 25.48789,0 c 0,-14.81348 1.43776,-19.60607 5.88181,-19.60607 4.44405,0 5.88182,4.79259 5.88182,19.60607 0,14.81346 -1.43777,19.60605 -5.88182,19.60605 -4.44405,0 -5.88181,-4.79259 -5.88181,-19.60605 z m 19.60605,13.82129 c 0,-4.6445 2.05818,-5.00225 10.44156,-1.81489 17.25916,6.56192 20.55269,-2.57723 3.49693,-9.70358 -10.24387,-4.28016 -14.14721,-8.12615 -13.20625,-13.01216 1.02691,-5.33228 5.17686,-6.93612 17.94722,-6.93612 9.1363,0 16.17031,1.76455 15.63115,3.92121 -0.53916,2.15667 -2.74485,3.26937 -4.90151,2.47268 -7.70365,-2.84579 -11.7929,-2.41419 -13.72425,1.44852 -1.07834,2.15667 1.88149,4.4683 6.57736,5.13694 10.80761,1.53887 18.51177,10.62491 15.55106,18.3404 -3.17879,8.28378 -37.81327,8.41842 -37.81327,0.14695 z m 51.93926,1.25857 c -6.62035,-6.62035 -6.17925,-24.80888 0.74096,-30.55213 6.82026,-5.66032 30.43795,-3.95429 32.50414,2.34795 0.94209,2.87354 -3.23478,4.3025 -11.46165,3.92121 -11.53262,-0.53452 -13.08514,0.63731 -14.23912,10.74756 -1.25852,11.02614 -0.89027,11.2818 13.00252,9.0273 10.16753,-1.64996 13.85229,-0.96339 12.75573,2.37674 -2.13201,6.49418 -27.32726,8.10667 -33.30258,2.13137 z m 44.89058,2.01865 c -5.04341,-5.04341 1.71783,-8.86786 10.16201,-5.74806 9.99443,3.69255 19.5813,1.43501 16.31936,-3.84295 -1.21907,-1.97247 -5.30417,-3.5863 -9.07801,-3.5863 -3.77385,0 -10.22015,-2.45587 -14.32512,-5.45749 -6.34134,-4.63691 -6.67663,-6.40568 -2.22993,-11.76363 5.89876,-7.10757 35.64307,-8.86364 35.64307,-2.10431 0,2.311 -3.97023,3.88023 -8.82273,3.48718 -14.60107,-1.18275 -19.21689,-0.0542 -16.66515,4.07461 1.33288,2.15667 5.72235,3.92122 9.75435,3.92122 11.32698,0 20.97775,11.32655 15.38874,18.06089 -4.54362,5.47473 -31.42988,7.67557 -36.14659,2.95884 z M 285.30909,677.61176 C 226.22965,671.13273 192.07186,639.01825 179.49076,578.1235 168.00382,522.52461 194.48269,465.25761 243.65268,439.35773 263.5895,428.85616 264.4513,428.76567 356.87121,427.46866 L 450,426.1617 V 450 473.8383 h -17.64546 -17.64546 v 78.42424 c 0,59.8351 1.16183,78.55319 4.90152,78.96826 2.69584,0.2992 10.63629,0.24011 17.64546,-0.13139 L 450,630.42408 v 25.18042 25.18044 l -69.60152,-0.18905 c -38.28083,-0.10402 -81.07106,-1.44685 -95.08939,-2.9842 z M 344.12728,552.26254 V 473.8383 h -20.73581 c -27.96124,0 -52.81277,12.80395 -62.73192,32.32061 -9.41221,18.51921 -12.83606,54.93961 -7.1429,75.98112 9.04881,33.44374 29.70762,48.13216 68.06365,48.39325 l 22.54698,0.1535 z M 480.3894,678.48492 465.68484,677.2679 v -23.29057 -23.29056 l 18.62577,-0.002 18.62576,-0.002 0.83395,-78.42259 0.83398,-78.4226 h -19.45973 -19.45973 v -23.52727 -23.52727 h 85.55496 c 96.79747,0 113.56488,2.98437 142.98675,25.44963 12.68273,9.68399 21.80982,21.49476 30.93548,40.03159 11.38654,23.12937 12.94707,30.09347 12.96321,57.85069 0.0254,43.73441 -9.2551,68.87659 -34.82581,94.34775 -28.66253,28.55099 -45.14529,32.69489 -135.66306,34.10689 -39.89835,0.62239 -79.15948,0.58396 -87.24697,-0.0853 z m 156.72313,-57.95183 c 5.99977,-4.37299 15.00503,-15.78803 20.01168,-25.36679 7.77357,-14.87244 8.87506,-21.7742 7.54222,-47.25884 -2.6631,-50.91971 -20.52593,-70.85284 -65.78571,-73.41025 l -27.32315,-1.5439 v 79.30923 79.30923 l 27.32315,-1.5439 c 19.42025,-1.09735 30.47834,-3.8436 38.23181,-9.49478 z m -197.0938,-50.44687 c -5.29364,-5.29363 -9.62479,-13.31428 -9.62479,-17.82368 0,-4.50939 4.33115,-12.53006 9.62479,-17.82369 5.29364,-5.29364 13.3143,-9.6248 17.82369,-9.6248 4.5094,0 12.53005,4.33116 17.8237,9.6248 5.29363,5.29363 9.62479,13.3143 9.62479,17.82369 0,4.5094 -4.33116,12.53005 -9.62479,17.82368 -5.29365,5.29365 -13.3143,9.62481 -17.8237,9.62481 -4.50939,0 -12.53005,-4.33116 -17.82369,-9.62481 z M 229.0318,411.88359 c -6.22406,-38.92316 -41.33134,-85.6457 -86.47458,-115.08476 l -23.15491,-15.0999 h 19.51774 c 16.87094,0 24.51866,3.05759 56.3951,22.54697 39.37593,24.07459 116.50383,94.93348 111.73364,102.65184 -1.42806,2.31064 -7.62877,4.20117 -13.77934,4.20117 -6.15057,0 -22.36847,3.50633 -36.03979,7.79184 -13.67131,4.28551 -25.07254,7.81461 -25.33608,7.84242 -0.26352,0.0279 -1.55132,-6.65449 -2.86178,-14.84958 z m 432.71366,6.4815 c -11.86168,-3.73289 -26.86031,-6.92188 -33.33031,-7.08667 -24.81766,-0.63206 -24.05544,-5.37826 5.93399,-36.94931 49.8882,-52.51932 108.40436,-90.4857 144.30159,-93.6256 l 20.83557,-1.82248 -23.78609,15.0396 c -45.00702,28.45731 -74.03658,65.18265 -86.23932,109.1015 l -6.14877,22.13002 z M 381.65694,309.43171 c 13.86534,-30.03699 25.17246,-56.06403 25.12692,-57.83788 -0.0455,-1.77386 -10.53563,-11.05027 -23.31131,-20.61423 -12.77568,-9.56397 -22.48014,-18.59992 -21.56547,-20.0799 0.91469,-1.47997 6.55228,-3.73257 12.52799,-5.00575 16.2869,-3.47011 35.9901,-17.03658 43.33844,-29.84034 3.58982,-6.25489 12.30935,-14.12997 19.37672,-17.50017 12.67532,-6.04445 12.84977,-5.99823 12.84977,3.4043 0,5.35345 -8.48139,20.73739 -19.34767,35.09375 l -19.34766,25.56181 13.46585,13.46584 c 7.40621,7.40621 13.39094,15.84798 13.29938,18.75948 -0.0916,2.91151 -5.00417,25.58591 -10.9169,50.38758 l -10.75046,45.09393 -23.3937,6.54834 c -39.82538,11.14787 -39.33706,13.18839 -11.3519,-47.43676 z m 140.98766,47.43676 -23.42508,-6.54834 -10.62839,-43.13333 c -5.8456,-23.72332 -10.74408,-46.92076 -10.88551,-51.54984 -0.15137,-4.95634 5.49543,-13.46734 13.73535,-20.70209 l 13.99248,-12.28558 -15.3796,-18.51002 c -18.34848,-22.08316 -24.36901,-32.87379 -24.36901,-43.67669 0,-7.72183 0.50622,-7.79537 12.91841,-1.87641 7.10512,3.3882 15.11345,11.11932 17.79629,17.18028 4.47113,10.10095 30.69656,26.52365 53.17584,33.29937 6.13614,1.84955 3.41017,5.3482 -15.68485,20.13072 -12.71146,9.84065 -23.6273,19.28565 -24.25743,20.98887 -0.63013,1.70321 10.25063,28.01825 24.17945,58.47787 28.09918,61.44731 28.59206,59.31984 -11.16795,48.20519 z M 257.06455,333.92838 c -6.11347,-1.6092 -13.64296,-15.57025 -10.23523,-18.97797 0.79664,-0.79664 8.45707,0.17651 17.02319,2.16256 24.86656,5.76527 56.98857,4.14691 80.27477,-4.04436 28.73152,-10.10674 34.65158,-10.12576 25.56223,-0.0822 -12.19128,13.47122 -46.36017,23.65808 -77.6654,23.15458 -15.55492,-0.25017 -31.28673,-1.24587 -34.95956,-2.21265 z m 316.01639,-5.45069 c -20.37993,-7.83904 -39.59996,-23.37909 -28.59928,-23.12349 3.03008,0.0704 15.21424,3.5419 27.07591,7.71441 25.50213,8.97076 58.43626,9.94249 83.30552,2.45794 l 17.89131,-5.38449 -3.77254,10.82188 c -2.66564,7.64667 -7.3008,11.52756 -15.79766,13.22692 -23.27187,4.65438 -59.95093,2.03833 -80.10326,-5.71317 z"
       id="path1" />
  </g>
</svg>
