<?xml version="1.0" encoding="UTF-8" standalone="no"?>
<!-- Created with Inkscape (http://www.inkscape.org/) -->

<svg
   version="1.1"
   id="svg1"
   width="900"
   height="900"
   viewBox="0 0 899.99999 899.99999"
   sodipodi:docname="Handeye.svg"
   inkscape:version="1.4 (86a8ad7, 2024-10-11)"
   xmlns:inkscape="http://www.inkscape.org/namespaces/inkscape"
   xmlns:sodipodi="http://sodipodi.sourceforge.net/DTD/sodipodi-0.dtd"
   xmlns="http://www.w3.org/2000/svg"
   xmlns:svg="http://www.w3.org/2000/svg">
  <defs
     id="defs1" />
  <sodipodi:namedview
     id="namedview1"
     pagecolor="#ffffff"
     bordercolor="#000000"
     borderopacity="0.25"
     inkscape:showpageshadow="2"
     inkscape:pageopacity="0.0"
     inkscape:pagecheckerboard="0"
     inkscape:deskcolor="#d1d1d1"
     inkscape:zoom="0.72468753"
     inkscape:cx="644.41567"
     inkscape:cy="429.84043"
     inkscape:window-width="1920"
     inkscape:window-height="991"
     inkscape:window-x="-9"
     inkscape:window-y="-9"
     inkscape:window-maximized="1"
     inkscape:current-layer="g1" />
  <g
     inkscape:groupmode="layer"
     inkscape:label="Image"
     id="g1">
    <path
       style="fill:#000000;stroke-width:1"
       d="m 389.66495,813.6732 c -17.86846,-3.77445 -50.12321,-15.34668 -71.67722,-25.71604 -31.33061,-15.07278 -46.70008,-26.41764 -76.64493,-56.57489 -40.34646,-40.63267 -59.88071,-72.5613 -77.02899,-125.9035 -9.41707,-29.29316 -10.65255,-44.24607 -12.56296,-152.05062 -1.16533,-65.75939 -0.74354,-126.89328 0.93733,-135.85309 7.44215,-39.67 50.31986,-64.64328 89.08006,-51.88292 l 20.26488,6.67146 0.10201,-21.40929 c 0.13659,-28.69242 14.27339,-58.44223 33.27662,-70.0282 18.51803,-11.29016 57.92117,-12.71633 71.32073,-2.58142 12.54775,9.49064 13.37965,9.11833 19.89699,-8.90505 11.91215,-32.94248 49.27085,-50.70958 84.45875,-40.16704 19.17225,5.74415 46.20866,33.80324 46.20866,47.95656 0,10.0953 1.95179,10.20099 16.18297,0.87637 15.24127,-9.98647 50.09713,-9.34285 68.58745,1.26646 8.44073,4.84311 19.58652,17.63514 25.45708,29.21713 9.95472,19.63961 10.44261,25.73311 10.44261,130.42424 v 109.82207 l 17.45691,-8.63698 c 38.64665,-19.12085 93.83216,-14.96159 104.22834,7.85556 4.27184,9.37564 3.26373,17.11695 -5.4394,41.76964 -5.87568,16.64358 -15.51327,54.56415 -21.41685,84.26793 -15.06099,75.7792 -34.30712,113.34296 -82.79176,161.5894 -72.5798,72.2232 -161.51712,98.86698 -260.3392,77.99222 z m 144.82353,-39.12956 c 44.52833,-16.45814 88.29187,-48.72018 116.29869,-85.73425 29.14827,-38.52262 40.59844,-67.03468 52.93025,-131.80147 5.07597,-26.65897 13.24278,-59.03103 18.14848,-71.93793 4.90573,-12.9069 8.92054,-23.98923 8.92182,-24.62738 10e-4,-0.63816 -8.95346,-1.1603 -19.89945,-1.1603 -28.04606,0 -59.39159,16.84919 -69.07374,37.12927 -4.26539,8.93423 -9.91063,33.33937 -12.54496,54.23365 -8.53751,67.71543 -46.64584,121.17255 -106.31955,149.1416 -23.51369,11.02086 -32.10388,12.43857 -75.36818,12.43857 -45.80421,0 -50.74608,-0.9434 -79.75747,-15.22567 -50.96891,-25.09191 -87.99167,-74.64779 -100.61828,-134.68011 -2.9147,-13.85768 -5.20285,-70.58895 -5.24139,-129.9524 -0.0742,-114.2757 -1.82051,-123.77573 -24.77568,-134.78238 -15.81916,-7.58505 -31.98581,-4.08113 -45.0118,9.75575 -9.54802,10.1424 -9.7363,13.38498 -8.01407,138.01826 1.96564,142.24571 4.81716,157.97273 38.81548,214.07928 19.3859,31.99201 70.44152,80.78461 102.73175,98.17817 60.20029,32.42769 147.65655,39.51849 208.7781,16.92734 z m 30.11571,-133.0959 c 11.55526,-13.45435 13.31918,-24.26326 6.20473,-38.02112 -8.62967,-16.68793 -14.76805,-18.83306 -53.89171,-18.83306 h -32.10852 v -34.80867 -34.80868 h 34.29452 c 26.41339,0 36.72359,-1.96694 44.86452,-8.55908 14.37066,-11.63665 14.37066,-36.2214 0,-47.85806 C 554.40236,450.81351 543.57019,450 450,450 c -93.57017,0 -104.40235,0.81351 -113.96773,8.55907 -14.37066,11.63666 -14.37066,36.22141 0,47.85806 8.14095,6.59214 18.45114,8.55908 44.86453,8.55908 h 34.29452 v 34.80868 34.80867 h -34.80868 c -28.62048,0 -36.45887,1.6502 -44.091,9.28233 -13.35672,13.3567 -13.85486,33.39894 -1.18238,47.57185 6.52092,7.293 18.24799,8.12203 114.89074,8.12203 96.75192,0 108.33351,-0.82079 114.60419,-8.12203 z M 350.36815,417.4137 l 23.59171,-15.13876 -1.42977,-89.72779 c -1.3645,-85.63175 -1.90177,-90.1993 -11.76923,-100.05637 -15.23785,-15.22179 -41.01583,-14.07316 -55.23822,2.46134 -10.96733,12.7503 -11.00142,13.16569 -11.00142,134.03663 v 121.24669 l 16.12761,-18.8415 c 8.87021,-10.36284 26.7439,-25.65393 39.71932,-33.98024 z M 598.35409,219.36263 c -16.67062,-25.44258 -49.86546,-23.61866 -63.64573,3.49705 -6.8129,13.40585 -8.11598,29.07911 -8.12203,97.69111 l -0.007,81.72345 25.18601,16.72257 c 13.85231,9.19741 31.08261,24.11489 38.28955,33.14992 l 13.10354,16.42732 1.24005,-119.04714 c 1.06016,-101.77792 0.18338,-120.65983 -6.04418,-130.16428 z M 489.44985,287.91558 V 186.16621 l -12.01547,-14.27956 c -14.88378,-17.68837 -33.27262,-18.78961 -51.54164,-3.08664 l -13.022,11.19292 -1.40709,104.83601 -1.4071,104.83601 h 39.69666 39.69664 z"
       id="path1" />
  </g>
</svg>
