<?xml version="1.0" encoding="UTF-8" standalone="no"?>
<!-- Created with Inkscape (http://www.inkscape.org/) -->

<svg
   version="1.1"
   id="svg1"
   width="900"
   height="900"
   viewBox="0 0 900 900"
   sodipodi:docname="Infinate.svg"
   inkscape:version="1.4 (86a8ad7, 2024-10-11)"
   xmlns:inkscape="http://www.inkscape.org/namespaces/inkscape"
   xmlns:sodipodi="http://sodipodi.sourceforge.net/DTD/sodipodi-0.dtd"
   xmlns="http://www.w3.org/2000/svg"
   xmlns:svg="http://www.w3.org/2000/svg">
  <defs
     id="defs1" />
  <sodipodi:namedview
     id="namedview1"
     pagecolor="#ffffff"
     bordercolor="#000000"
     borderopacity="0.25"
     inkscape:showpageshadow="2"
     inkscape:pageopacity="0.0"
     inkscape:pagecheckerboard="0"
     inkscape:deskcolor="#d1d1d1"
     inkscape:zoom="0.42944445"
     inkscape:cx="-15.135834"
     inkscape:cy="783.5705"
     inkscape:window-width="1920"
     inkscape:window-height="991"
     inkscape:window-x="-9"
     inkscape:window-y="-9"
     inkscape:window-maximized="1"
     inkscape:current-layer="g1" />
  <g
     inkscape:groupmode="layer"
     inkscape:label="Image"
     id="g1">
    <path
       style="fill:#000000"
       d="m 481.7441,706.51274 c 24.75001,-4.88907 31.68498,-12.18001 35.36415,-37.17941 l 2.06038,-14 0.41569,13.37672 c 0.7861,25.29686 -14.70149,41.4303 -39.09649,40.72686 l -11.82116,-0.34087 z m -25.03969,-8.6466 c -7.73679,-8.54905 -6.52082,-21.2682 2.6049,-27.2476 4.26457,-2.79425 9.86457,-4.27047 12.44445,-3.28047 3.32218,1.27484 4.69068,-0.23873 4.69068,-5.18791 0,-11.25596 8.57334,-20.81683 18.66667,-20.81683 9.57313,0 18.66667,9.43077 18.66667,19.35891 0,9.18665 -11.89122,18.78782 -20.57096,16.60934 l -7.58731,-1.90429 1.90429,7.58731 c 3.97559,15.83999 -19.63468,27.24051 -30.81939,14.88154 z M 475.82222,693.6 c 2.05334,-2.05333 3.73334,-6.95333 3.73334,-10.88889 0,-5.87654 -1.66828,-7.15555 -9.33334,-7.15555 -5.13333,0 -9.33333,0.58549 -9.33333,1.3011 0,0.71561 -0.78052,3.33509 -1.73448,5.82108 -1.65264,4.30671 5.88032,14.65559 10.66781,14.65559 1.24667,0 3.94667,-1.68 6,-3.73333 z m 28.5066,-30.27283 c 2.42636,-4.53371 2.01736,-7.20322 -1.66832,-10.88889 -2.6855,-2.6855 -5.90272,-4.88272 -7.14939,-4.88272 -4.61803,0 -9.73333,7.68463 -9.73333,14.62222 0,5.53128 1.74067,7.15555 7.66831,7.15555 4.39229,0 9.04157,-2.56593 10.88273,-6.00616 z M 176.45001,697.7019 c -1.13521,-1.83681 0.0991,-13.81213 2.74299,-26.61184 2.64385,-12.7997 4.807,-24.03121 4.807,-24.9589 0,-0.92769 2.1,-1.68672 4.66667,-1.68672 5.60847,0 5.66144,1.37004 1.06872,27.6413 -3.66212,20.94802 -9.36936,31.95241 -13.28538,25.61616 z m 14.81168,-4.25746 c 0.9427,-3.85 3.43647,-16.45 5.5417,-28 3.0012,-16.46557 5.00301,-21 9.27088,-21 3.55303,0 6.73781,4.05126 9.1714,11.66667 5.63023,17.61863 8.20562,18.24493 10.55663,2.56723 1.39759,-9.31979 3.67982,-14.2339 6.61055,-14.2339 2.46182,0 4.47604,1.58859 4.47604,3.53019 0,8.80661 -7.55593,45.07077 -10.0837,48.396 -4.92108,6.47359 -10.86992,1.01811 -15.00863,-13.76391 -3.22025,-11.5016 -4.47345,-13.15024 -6.35214,-8.35647 -1.28723,3.28459 -2.43882,9.67219 -2.55909,14.19467 -0.12026,4.52249 -2.43317,9.07249 -5.13978,10.11111 -7.63534,2.92996 -8.32061,2.38972 -6.48386,-5.11159 z m 43.75977,-1.79598 c 0.89785,-4.57332 3.26747,-17.06513 5.26582,-27.75957 l 3.63337,-19.44445 h 18.2619 c 14.15872,0 18.26189,1.04853 18.26189,4.66667 0,3.4384 -3.58931,4.66667 -13.63714,4.66667 -11.02069,0 -13.94934,1.19381 -15.2643,6.22222 -1.3485,5.1567 -0.0954,6.22222 7.31729,6.22222 6.67242,0 8.48955,1.1854 7.15366,4.66667 -0.98492,2.56667 -4.9912,4.66667 -8.90284,4.66667 -7.19949,0 -10.88889,5.23383 -10.88889,15.44715 0,3.0827 -2.88747,6.36001 -6.41661,7.2829 l -6.41661,1.67798 z m 43.98805,5.88004 c -1.17547,-1.90195 -1.26673,-7.97393 -0.20279,-13.4933 5.92825,-30.75394 8.79351,-39.59076 12.83692,-39.59076 5.39925,0 5.372,2.47339 -0.32348,29.35915 -4.73723,22.36235 -8.57807,29.76435 -12.31065,23.72491 z m 16.0578,0.44674 c -0.62257,-1.20861 1.08259,-13.38704 3.78926,-27.06318 3.58681,-18.12334 6.31677,-25.12922 10.06801,-25.83747 3.59116,-0.67803 6.29071,2.60617 8.93139,10.86572 5.68861,17.79291 8.25605,18.45528 10.613,2.73803 1.60943,-10.73243 3.4876,-14.2339 7.63501,-14.2339 h 5.50051 l -5.10167,27.02574 c -6.60138,34.97039 -12.54262,37.32771 -22.05801,8.75204 l -4.14387,-12.44444 -2.78034,14.55871 c -2.47153,12.94169 -9.37612,21.61243 -12.45329,15.63875 z m 44.68008,-4.62844 c 0.10551,-3.79629 1.92569,-15.9967 4.04484,-27.112 2.78002,-14.58169 5.32573,-20.49327 9.14149,-21.22812 2.90868,-0.56016 5.28826,-0.56582 5.28797,-0.0126 -2.9e-4,0.55325 -2.10029,11.97906 -4.66667,25.39069 -2.56637,13.41163 -4.66613,24.81185 -4.66613,25.33381 0,0.52197 -2.1,1.75487 -4.66667,2.73979 -3.31057,1.27039 -4.61092,-0.215 -4.47483,-5.11159 z m 59.11902,-1.30265 c 0.10986,-4.79095 1.96533,-17.11082 4.12327,-27.37748 L 406.91319,646 l 19.16899,-0.92517 c 15.96239,-0.7704 18.8706,-0.14759 17.38525,3.72317 -1.09225,2.84637 -6.79462,5.01408 -14.70985,5.59183 -9.37484,0.68429 -13.20985,2.43929 -13.95886,6.38795 -0.76676,4.04225 1.02915,5.44444 6.97316,5.44444 5.04228,0 8.0059,1.72751 8.0059,4.66667 0,3.06916 -3.0708,4.66667 -8.97048,4.66667 -6.35403,0 -9.44508,1.81486 -10.59763,6.22222 L 408.58252,688 h 13.93686 c 11.59384,0 13.76267,0.9153 12.90073,5.44444 -0.81733,4.29471 -4.80747,5.64148 -18.89479,6.37748 l -17.85865,0.93304 z m 124.24523,6.06696 c 3e-4,-1.28333 2.1003,-13.30649 4.66667,-26.71812 2.56637,-13.41164 4.66613,-24.96164 4.66613,-25.66667 0,-0.70503 6.12858,-1.28188 13.61907,-1.28188 18.51026,0 21.96639,4.85099 19.43034,27.27226 -2.4876,21.99297 -9.22229,28.72774 -28.7274,28.72774 -7.51044,0 -13.6551,-1.05 -13.65481,-2.33333 z m 31.8515,-23.97825 c 3.09658,-15.00376 1.35942,-20.35508 -6.6077,-20.35508 -4.76347,0 -6.78374,3.36505 -9.43097,15.70869 -1.8529,8.63977 -3.36891,16.43277 -3.36891,17.31775 0,0.88499 3.79499,1.16608 8.43331,0.62465 l 8.43332,-0.98443 z m 14.81464,21.79805 c 0,-3.93646 3.15969,-21.5496 7.9806,-44.48647 1.48206,-7.0513 10.68606,-10.03989 10.68606,-3.46981 0,9.07852 -7.59482,45.12006 -10.23717,48.58093 -4.0046,5.24509 -8.42949,4.91719 -8.42949,-0.62465 z m 18.66666,-1.70869 V 688 h 13.66715 c 8.8551,0 14.25656,-1.53599 15.3412,-4.36251 2.16851,-5.65104 -0.44299,-8.08193 -8.68242,-8.08193 -13.40623,0 -19.13498,-16.30206 -9.21481,-26.22223 6.68508,-6.68509 35.55555,-6.86553 35.55555,-0.22222 0,3.43995 -3.59264,4.66667 -13.66714,4.66667 -8.8551,0 -14.25657,1.53599 -15.3412,4.3625 -2.07942,5.41888 0.40074,8.08194 7.52686,8.08194 7.25079,0 15.25926,8.2806 15.25926,15.77778 0,10.7006 -11.10262,18.44444 -26.44445,18.44444 h -14 z m 53.03443,0.14554 c -5.2781,-5.2781 -6.07899,-8.7961 -4.46696,-19.62168 1.08031,-7.25479 3.55684,-16.69052 5.5034,-20.9683 l 3.5392,-7.77778 18.17577,-0.94241 c 13.84759,-0.71799 17.85822,0.0228 16.84227,3.11111 -0.73343,2.22944 -7.4688,4.75352 -14.96749,5.60908 -14.49401,1.65368 -17.52351,5.91683 -18.23939,25.66666 L 647.55556,688 h 12.67256 c 10.38809,0 12.48657,0.98147 11.64079,5.44444 -1.60427,8.46544 -22.22152,9.09184 -30.39004,0.92332 z M 679.24415,695 c 0.74468,-3.92209 4.94057,-5.8794 15.0059,-7 15.53386,-1.72942 19.91003,-10.12708 6.19439,-11.88675 -14.18112,-1.81938 -20.29004,-17.15654 -10.66666,-26.77992 6.54967,-6.54967 35.55555,-6.87688 35.55555,-0.4011 0,3.05387 -4.21612,4.79345 -13.19538,5.44444 -16.80772,1.21856 -19.61971,9.14442 -4.79237,13.5077 8.39558,2.47059 10.37926,4.74824 11.16258,12.81677 1.23338,12.70437 -8.30782,19.7433 -26.76185,19.7433 -11.21104,0 -13.35834,-0.9351 -12.50216,-5.44444 z m -309.70253,-7.77778 c 1.00678,-5.56111 2.92296,-15.36111 4.25818,-21.77778 l 2.42768,-11.66666 h -7.70633 c -4.77577,0 -7.21807,-1.47887 -6.42237,-3.88889 0.79836,-2.41808 8.6624,-4.24226 20.79292,-4.82321 14.92312,-0.71469 19.19564,0.0166 18.17605,3.11112 -0.7331,2.22498 -4.29199,4.48215 -7.90865,5.01592 -5.30134,0.78241 -7.2493,4.40011 -10.05115,18.66667 -4.71618,24.01403 -5.32999,25.47394 -10.71031,25.47394 -3.58878,0 -4.25776,-2.36837 -2.85602,-10.11111 z m 75.84086,-4.66666 c -2.2888,-19.37491 -1.0029,-24.3639 9.30608,-36.10517 10.1605,-11.57217 25.35522,-16.37103 37.55103,-11.8595 l 7.32717,2.71049 -16.50483,1.58591 c -22.27079,2.13994 -32.14492,11.85786 -34.86923,34.31765 -1.09081,8.99284 -2.35541,13.20062 -2.81022,9.35062 z m -42.04915,-65.99893 c -23.61408,-6.25373 -53.08279,-18.06643 -50.78983,-20.35939 0.78329,-0.78329 5.58283,-0.23147 10.66565,1.22626 5.08282,1.45773 35.0901,2.29382 66.68284,1.85797 43.2348,-0.59647 62.05803,-2.12149 76.10801,-6.16614 50.15618,-14.43876 96.65654,-51.96786 117.65031,-94.95219 16.16202,-33.0914 21.05086,-54.98415 20.82897,-93.27425 -0.10411,-17.96667 0.64872,-42.46667 1.67296,-54.44445 1.31684,-15.39945 0.46169,-26.2912 -2.91979,-37.18816 -2.63012,-8.47571 -4.33501,-15.85742 -3.78863,-16.4038 2.17391,-2.17392 21.01038,44.32779 25.26572,62.37363 5.25907,22.30243 6.00629,68.51105 1.49873,92.68259 -14.44858,77.47963 -78.49179,144.43188 -157.48059,164.63381 -31.03119,7.93644 -75.45723,7.9424 -105.39435,0.0141 z m -41.92457,-32.91852 c -48.85718,-13.64838 -78.80768,-52.28517 -78.17103,-100.84234 0.55395,-42.25042 18.72306,-69.91758 59.42894,-90.49591 14.54398,-7.35253 39.62079,-9.44054 72.99173,-6.07764 l 15.43618,1.55556 -1.43618,-15.55556 c -0.7899,-8.55555 -1.39124,-25.35555 -1.33632,-37.33333 l 0.0998,-21.77778 10.57076,-19.68093 C 458.33931,257.4101 482.5589,242.318 523.85662,240.5484 l 27.18994,-1.16509 19.47672,9.31141 c 31.93589,15.26787 48.40157,35.15825 57.01491,68.87343 11.85032,46.38571 -9.66703,91.62295 -55.11779,115.8775 l -13.53151,7.22102 -39.06707,-0.45162 -39.06706,-0.45162 2.28439,16.00717 c 6.32667,44.33228 -0.41891,71.89384 -24.02047,98.14445 -25.59231,28.46481 -62.20471,39.6136 -97.60992,29.72306 z m 42.80228,-43.57356 c 15.35839,-6.4058 30.84697,-21.78354 35.18761,-34.93582 2.31072,-7.00152 2.75953,-20.74126 1.30936,-40.08383 l -2.20651,-29.43068 -7.47505,-2.84201 c -4.11129,-1.56311 -19.81384,-3.74685 -34.89457,-4.85277 -30.40225,-2.2295 -38.84881,0.32555 -54.07795,16.35837 C 332.67228,454.15454 324,472.74702 324,482.98357 c 0,14.23858 8.0952,32.66718 19.24971,43.82169 17.37712,17.37712 39.53406,22.19633 60.96133,13.25929 z M 563.37531,388.26634 c 6.88273,-4.55478 14.64383,-13.58394 18.47001,-21.48776 19.80542,-40.91255 -10.61067,-87.36492 -55.6231,-84.94926 -24.77077,1.32936 -45.09765,17.00744 -52.96768,40.85386 -4.55888,13.81354 -1.22892,69.5018 4.27416,71.47866 8.7177,3.13164 54.32534,6.08621 63.66796,4.12457 5.66928,-1.19036 15.64967,-5.69939 22.17865,-10.02007 z M 267.16754,509.88889 c -18.64696,-32.2465 -28.21963,-81.31049 -23.89025,-122.44777 5.58727,-53.08957 23.28576,-89.96327 61.99858,-129.1701 l 26.50191,-26.8401 29.55555,-14.2048 c 30.03467,-14.43507 67.59549,-23.89279 94.88889,-23.89279 36.25772,0 90.03581,17.01877 121.64045,38.49468 14.63485,9.94464 12.9823,10.27916 -6.91164,1.39911 l -15.17325,-6.77289 -70,-0.17369 -70,-0.17369 -19.18511,6.89227 c -42.5554,15.28808 -82.10174,46.87129 -103.14562,82.37603 -15.33303,25.86952 -24.95185,57.21929 -25.70966,83.79318 -1.17354,41.15252 2.47177,110.22209 6.18325,117.15705 6.60683,12.34498 1.03858,7.03778 -6.7531,-6.43649 z"
       id="path50627" />
  </g>
</svg>
