<?xml version="1.0" encoding="UTF-8" standalone="no"?>
<!-- Created with Inkscape (http://www.inkscape.org/) -->

<svg
   version="1.1"
   id="svg1"
   width="900"
   height="900"
   viewBox="0 0 900 900"
   sodipodi:docname="Innova.svg"
   inkscape:version="1.4 (86a8ad7, 2024-10-11)"
   xmlns:inkscape="http://www.inkscape.org/namespaces/inkscape"
   xmlns:sodipodi="http://sodipodi.sourceforge.net/DTD/sodipodi-0.dtd"
   xmlns="http://www.w3.org/2000/svg"
   xmlns:svg="http://www.w3.org/2000/svg">
  <defs
     id="defs1" />
  <sodipodi:namedview
     id="namedview1"
     pagecolor="#ffffff"
     bordercolor="#000000"
     borderopacity="0.25"
     inkscape:showpageshadow="2"
     inkscape:pageopacity="0.0"
     inkscape:pagecheckerboard="0"
     inkscape:deskcolor="#d1d1d1"
     inkscape:zoom="1.182"
     inkscape:cx="537.22504"
     inkscape:cy="373.51946"
     inkscape:window-width="1920"
     inkscape:window-height="991"
     inkscape:window-x="-9"
     inkscape:window-y="-9"
     inkscape:window-maximized="1"
     inkscape:current-layer="g1" />
  <g
     inkscape:groupmode="layer"
     inkscape:label="Image"
     id="g1">
    <path
       style="fill:#000000"
       d="m 462.13333,533.47947 v -0.52051 l 5.48201,-13.01282 5.482,-13.01282 11.59506,-0.56293 11.59507,-0.56293 1.80071,1.8007 1.8007,1.80071 -4.96136,10.83706 -4.96137,10.83705 -2.24974,1.42992 -2.24974,1.42992 -11.66667,0.0286 -11.66667,0.0286 z m 22.06347,-7.47399 1.98727,-2.39451 1.92843,-5.07216 1.92843,-5.07216 h -5.50586 -5.50586 l -2.92423,5.65482 -2.92422,5.65482 1.11979,1.81185 1.11978,1.81185 h 3.3946 3.39461 z m 19.0032,6.30184 v -1.69266 l 5.52193,-12.30734 5.52193,-12.30733 H 517.12193 520 v 1.8297 1.82971 l -4.99797,12.17029 -4.99797,12.1703 H 506.60203 503.2 Z m 21.72496,-1.10733 1.07446,-2.8 h 10.06696 10.06695 v -2.8 -2.8 H 538.66667 531.2 v -4.31469 -4.31469 l 3.80605,-4.08531 3.80605,-4.08531 h 10.33082 10.33082 l -0.61964,3.26666 -0.61964,3.26667 -8.3839,0.58451 -8.38389,0.58451 -1.77334,1.74882 -1.77333,1.74883 h 8.77333 8.77334 v 4.25132 4.25132 l -2.90585,4.14868 -2.90585,4.14868 H 536.75274 523.8505 Z m 39.01964,1.05943 -1.07573,-1.74056 4.77451,-10.796 4.7745,-10.796 2.25773,-1.43485 2.25772,-1.43486 10.93305,-0.0286 10.93304,-0.0286 -1.13304,2.95267 -1.13305,2.95267 v 0.78066 0.78066 h -9.32798 -9.32798 l -2.54487,6.06667 -2.54487,6.06667 0.78302,1.4 0.78301,1.4 h 7.29792 7.29792 l -1.07446,2.8 -1.07446,2.8 h -10.89013 -10.89012 z m 54.98873,-1.57276 v -3.4839 l 5.13334,-10.13472 5.13333,-10.13472 12.75397,-0.55547 12.75398,-0.55546 -0.63878,3.35546 -0.63879,3.35547 -10.56348,0.55529 -10.56348,0.5553 -2.01838,5.78992 -2.01837,5.78992 v 1.58812 1.58812 h 4.5565 4.5565 l 1.28265,-2.07537 1.28264,-2.07537 -2.34496,-1.44926 -2.34496,-1.44927 1.28264,-2.07537 1.28265,-2.07536 h 6.42317 6.42317 l -0.0897,1.4 -0.0897,1.4 -3.18716,6.53333 -3.18716,6.53333 -12.58985,0.55196 -12.58985,0.55195 z m 39.2,0.7456 v -2.56773 l 4.53195,-10.24753 4.53194,-10.24753 3.08739,-1.18474 3.0874,-1.18474 h 9.07049 9.0705 l 1.16899,1.89146 1.16899,1.89146 -4.87575,10.65003 -4.87575,10.65004 -2.24974,1.42992 -2.24974,1.42992 -10.73333,0.0286 -10.73334,0.0286 z m 19.93991,-5.36561 1.73037,-2.33333 2.19151,-5.13333 2.19151,-5.13334 h -5.55463 -5.55463 l -2.54487,6.06667 -2.54487,6.06667 0.78302,1.4 0.78301,1.4 h 3.39461 3.3946 z m 23.7577,-5.6 6.14338,-13.53333 4.00152,-0.59501 4.00152,-0.59501 -3.72201,8.6831 -3.72202,8.6831 v 2.64524 2.64525 h 5.6 5.6 v 2.8 2.8 h -12.02289 -12.02289 z m 29.64189,11.2 0.93893,-2.33333 5.10478,-11.66667 5.10479,-11.66666 h 11.15571 11.15572 l -1.13305,2.95267 -1.13304,2.95267 v 0.78066 0.78066 h -8.4 -8.4 v 1.86667 1.86667 h 3.88889 3.88888 l -0.76617,2.33333 -0.76618,2.33333 -4.84514,0.57674 -4.84514,0.57674 -1.9138,5.48993 -1.9138,5.48993 h -4.03015 -4.03015 z m -397.20616,-5.26382 -100.8,-1.21463 -62.20354,-0.26077 -62.20354,-0.26078 0.62622,-3.26666 0.62622,-3.26667 55.04398,-1.12089 55.04399,-1.12088 112.93333,-0.74578 112.93334,-0.74578 0.55674,3.89667 0.55675,3.89668 -2.42341,1.94153 -2.42342,1.94153 -3.73333,0.77053 -3.73333,0.77053 z m -209.12591,-46.06951 2.57515,-7 8.35897,-20.53334 8.35897,-20.53333 16.27862,-0.54268 16.27863,-0.54268 -0.98618,2.40935 -0.98617,2.40934 -8.67958,21.46667 -8.67957,21.46667 -2.7395,4.2 -2.7395,4.2 h -14.8075 -14.80749 z m 53.21652,-1.86667 3.62825,-8.86667 7.0739,-18.19727 7.0739,-18.19727 16.35839,-0.003 16.35838,-0.003 -2.97117,7 -2.97117,7 -6.67267,16.8 -6.67267,16.80001 -2.80385,3.26666 -2.80386,3.26667 h -14.61284 -14.61284 z m 64.36849,-17.66579 -5.67423,-26.66754 22.47423,-0.55686 22.47423,-0.55685 6.06667,1.1081 6.06666,1.10811 -0.0924,2.24875 -0.0924,2.24875 -9.74745,23.33333 -9.74744,23.33334 -13.02687,0.5342 L 248.4,487.4684 Z m 62.25326,0.5056 10.62097,-26.16894 15.4,-0.0354 15.4,-0.0354 -0.14698,2.33333 -0.14699,2.33334 -9.65301,23.33333 -9.65302,23.33334 -16.22097,0.5377 -16.22097,0.5377 z m 62.99309,23.69353 -0.71071,-2.33334 -4.83071,-22.51868 -4.8307,-22.51869 v -1.22642 -1.22641 l 27.53333,1.13738 27.53334,1.13739 0.74492,0.64153 0.74493,0.64153 -8.99002,21.96619 -8.99002,21.96618 -1.78347,2.33334 -1.78347,2.33333 h -11.96336 -11.96335 z m 64.34203,-1.35252 -3.68586,-3.68586 -1.22234,-4.8702 -1.22234,-4.87019 1.0784,-9.10544 1.07841,-9.10543 2.25859,-7.53852 2.2586,-7.53851 8.57119,0.0104 8.5712,0.0104 7.01765,1.94887 7.01765,1.94887 3.11777,4.75831 3.11777,4.75832 -2.31455,11.4824 -2.31454,11.48241 -1.82616,7 -1.82615,7 H 448.99472 436 Z m 52.95302,-12.64749 8.23797,-16.33333 5.3141,-5.03431 5.31409,-5.03431 7.43364,-3.10526 7.43364,-3.10526 14.71482,-1.00857 14.71483,-1.00858 -1.35972,4.48148 -1.35973,4.48148 -4.85791,9.06113 -4.85792,9.06114 -7.08518,8.04919 -7.08519,8.04919 -8.03499,3.88968 -8.03499,3.88967 H 491.39191 477.0292 Z m 94.46616,-8.7074 v -25.04073 l 13.53334,-1.21074 13.53333,-1.21074 22.87754,0.58481 22.87755,0.5848 -17.87685,22.4 -17.87684,22.40001 -3.8075,3.26666 -3.80749,3.26667 h -14.72654 -14.72654 z m 59.03139,22.70741 1.38504,-2.33334 18.30636,-22.62253 18.30635,-22.62253 2.3521,-1.91783 2.3521,-1.91782 41.53333,-0.6717 41.53333,-0.6717 v 23.93477 23.93478 l -1.93234,3.61061 -1.93234,3.61062 h -13.00099 -13.00099 v -22.4 -22.4 H 720.87043 707.0742 l -14.61462,18.2 -14.61463,18.2 -4.17096,4.2 -4.17096,4.2 h -16.06168 -16.06168 z m -480.84827,-86.45685 11.0159,-27.33211 2.16239,-2.60552 2.16239,-2.60553 h 14.70477 14.70477 l -0.13767,1.4 -0.13768,1.4 -11.60044,28 -11.60044,28 -16.14495,0.53764 -16.14494,0.53764 z m 589.35022,25.80595 -12.6,-0.65301 -0.0505,-6.91472 -0.0505,-6.91471 -6.69415,7.20318 -6.69415,7.20318 -15.73905,-1.31105 -15.73905,-1.31106 1.6963,-2.15879 1.6963,-2.15879 19.77874,-24.50471 19.77874,-24.50472 3.028,-1.16195 3.02801,-1.16196 h 12.914 12.91399 v 29.86667 29.86667 l -2.33333,-0.36561 -2.33333,-0.3656 z m -545.93904,-2.81577 0.92706,-2.33334 9.7071,-24.26666 9.7071,-24.26667 1.99268,-2.41192 1.99267,-2.41193 12.22478,0.54526 12.22478,0.54526 5.77748,27.31722 5.77748,27.31721 -9.42938,1.13323 -9.42938,1.13322 -21.19971,0.0162 -21.19971,0.0162 z m 68.56215,-0.93334 0.0231,-1.4 10.30147,-25.12563 10.30147,-25.12563 2.27542,-1.44578 2.27542,-1.44579 13.53333,-0.0286 13.53333,-0.0286 v 1.37466 1.37466 l -10.60153,26.62534 -10.60153,26.62534 h -15.5318 -15.5318 z m 52.234,-0.46666 -0.004,-0.93334 9.60777,-24.26666 9.60777,-24.26667 2.99469,-2.41041 2.9947,-2.41041 11.20448,0.54374 11.20448,0.54375 5.47048,25.64063 5.47047,25.64064 -0.81789,0.81789 -0.81789,0.8179 -28.45519,0.60813 -28.45519,0.60814 z m 315.12609,0.55333 -6.88347,-0.7648 19.24603,-23.69427 19.24603,-23.69426 3.73519,-3.34278 3.73518,-3.34278 15.98075,0.54278 15.98074,0.54278 -21.81965,27.06666 -21.81965,27.06667 -10.25884,0.1924 -10.25885,0.1924 z M 585.8,418.78298 l -6.06667,-0.75287 v -22.40445 -22.40444 l 1.93235,-3.61062 1.93234,-3.61062 h 13.93432 13.93433 v 27.06667 27.06667 l -9.8,-0.29874 -9.8,-0.29873 z m -194.6,-1.44019 v -0.92387 l 8.66014,-21.9428 8.66014,-21.9428 3.14285,-3.35114 3.14284,-3.35113 14.06306,0.55113 14.06305,0.55114 -10.37732,25.66666 -10.37732,25.66667 H 406.68872 391.2 Z m 51.29275,-5.80431 3.03667,-7.27183 4.78363,-8.16594 4.78362,-8.16593 6.437,-7.125 6.437,-7.12499 7.93735,-3.8424 7.93735,-3.84241 h 11.54398 11.54398 v 0.97064 0.97063 l -8.31549,16.55715 -8.3155,16.55714 -6.72286,5.54155 -6.72287,5.54155 -7.8283,2.3478 -7.82831,2.3478 -10.87196,0.98803 -10.87196,0.98804 z m 86.84058,4.57493 -6.53333,-1.89816 -3.21901,-2.88715 -3.21901,-2.88715 -1.12276,-3.53748 -1.12275,-3.53749 4.02833,-17.683 4.02833,-17.683 h 15.5475 15.5475 l 4.8326,5.74322 4.8326,5.74323 -0.14937,8.72344 -0.14938,8.72345 -3.1195,11.2 -3.1195,11.2 -10.26446,0.33912 -10.26445,0.33912 z m 243.38355,-37.87105 -1.03262,-2.69097 0.73108,-3.3757 0.73108,-3.37571 0.97016,6.06667 0.97017,6.06667 h -0.66863 -0.66862 z m 12.49892,-0.57571 2.61557,-4.2 -2.61557,-4.2 -2.61558,-4.2 3.09989,2.5619 3.09989,2.56189 v 3.27621 3.27621 l -3.09989,2.56189 -3.09989,2.5619 z m -5.07589,-1.89525 -2.12676,-1.37142 2.59342,-2.40693 2.59343,-2.40693 v 3.80693 3.80693 l -0.46667,-0.0286 -0.46666,-0.0286 z"
       id="path1" />
  </g>
</svg>
