<?xml version="1.0" encoding="UTF-8" standalone="no"?>
<!-- Created with Inkscape (http://www.inkscape.org/) -->

<svg
   version="1.1"
   id="svg1"
   width="900"
   height="900"
   viewBox="0 0 899.99999 899.99999"
   sodipodi:docname="Kastaplast.svg"
   inkscape:version="1.4 (86a8ad7, 2024-10-11)"
   xmlns:inkscape="http://www.inkscape.org/namespaces/inkscape"
   xmlns:sodipodi="http://sodipodi.sourceforge.net/DTD/sodipodi-0.dtd"
   xmlns="http://www.w3.org/2000/svg"
   xmlns:svg="http://www.w3.org/2000/svg">
  <defs
     id="defs1" />
  <sodipodi:namedview
     id="namedview1"
     pagecolor="#ffffff"
     bordercolor="#000000"
     borderopacity="0.25"
     inkscape:showpageshadow="2"
     inkscape:pageopacity="0.0"
     inkscape:pagecheckerboard="0"
     inkscape:deskcolor="#d1d1d1"
     inkscape:zoom="0.72468753"
     inkscape:cx="593.35918"
     inkscape:cy="482.27682"
     inkscape:window-width="1920"
     inkscape:window-height="991"
     inkscape:window-x="-9"
     inkscape:window-y="-9"
     inkscape:window-maximized="1"
     inkscape:current-layer="g1" />
  <g
     inkscape:groupmode="layer"
     inkscape:label="Image"
     id="g1"
     transform="translate(281.01319,99.525504)">
    <path
       style="fill:#000000;stroke-width:1"
       d="M 110.95565,686.95657 86.446353,682.87361 57.395592,673.19206 28.344832,663.51049 2.7291523,649.21912 -22.88653,634.92775 l -26.85521,-21.04841 -26.855219,-21.04841 -23.419951,-28.36262 -23.41997,-28.36262 -18.39764,-37.25915 -18.39763,-37.25917 -7.95207,-30.27307 -7.95207,-30.27307 0.0667,-53.56006 0.0667,-53.56004 8.13251,-30.27308 8.13253,-30.27307 18.30245,-37.25917 18.30246,-37.25915 23.896162,-29.12963 23.896163,-29.1296 L -47.040463,79.323747 -18.74022,58.050076 0.63788064,46.693756 20.015981,35.337436 52.914332,23.843442 85.812654,12.349452 119.95358,7.0142525 l 34.14091,-5.3351981 41.16558,2.8846663 41.16556,2.8846676 42.66756,14.2670867 42.66757,14.267094 20.95829,12.04133 20.95829,12.041329 30.81631,24.643272 30.81631,24.64328 22.0845,29.37888 22.08449,29.37886 13.41851,26.58193 13.41853,26.58192 10.32374,36.32389 10.32375,36.32387 -0.0182,53.56004 -0.0182,53.56006 -8.07681,30.27307 -8.07684,30.27307 -18.42483,37.25917 -18.42483,37.25915 -23.26802,28.36262 -23.268,28.36262 -27.92761,21.94117 -27.92762,21.94118 -36.70475,18.62386 -36.70477,18.62386 -43.72728,9.02254 -43.72727,9.02254 -32.6018,-0.48326 -32.60177,-0.48328 z m 140.97375,-39.62539 27.97392,-6.99639 33.76224,-17.18407 33.76225,-17.18409 25.05754,-20.95827 25.05756,-20.95828 5.22933,-8.15046 5.22933,-8.15044 h -21.24113 -21.24115 l 1.40775,-24.45132 1.40773,-24.45132 40.11332,-1.33636 40.11328,-1.33636 7.25035,-18.45757 7.25034,-18.45758 h -48.52798 -48.528 v -23.28698 -23.28697 h 55.39046 55.39047 l 2.82699,-7.36702 2.82699,-7.36701 v -13.59126 -13.59127 h -58.21745 -58.21746 v -23.28699 -23.28698 h 58.49861 58.49858 l -1.44548,-17.46522 -1.4455,-17.46523 -57.0531,-1.30771 -57.05311,-1.3077 v -25.47232 -25.47233 h 48.99732 48.99731 l -9.50411,-18.62958 -9.50409,-18.62958 h -39.49322 -39.49321 v -25.61568 -25.61569 l 22.12262,-0.20621 22.12263,-0.20622 -29.12897,-27.17191 -29.12899,-27.171887 -31.49325,-16.549227 -31.49324,-16.54924 -34.85441,-9.790068 -34.85439,-9.790094 h -48.90267 -48.90265 l -34.85439,9.790094 -34.854405,9.790068 -31.493245,16.54924 -31.493249,16.549227 -29.128983,27.171887 -29.128982,27.17191 22.122633,0.20622 22.122633,0.20621 v 25.61569 25.61568 h -39.493213 -39.493209 l -9.50411,18.62958 -9.50411,18.62958 h 48.997323 48.997319 v 25.61567 25.61569 h -55.390471 -55.390461 l -2.82699,7.367 -2.82699,7.36701 v 11.26256 11.26258 h 58.217458 58.217454 v 23.28698 23.28699 h -58.217454 -58.217458 v 13.59127 13.59126 l 2.82699,7.36701 2.82699,7.36702 h 55.390461 55.390471 v 23.12941 23.12942 l -48.394279,1.3219 -48.394273,1.32192 6.906,17.29016 6.906,17.29015 40.323932,1.33943 40.323921,1.33943 1.407743,24.45132 1.407743,24.45132 -22.366025,0.20123 -22.366028,0.20121 30.748979,28.90751 30.7489774,28.9075 34.4545726,16.98353 34.45457,16.98353 20.958284,5.75799 20.958281,5.758 25.61569,3.69415 25.61567,3.69416 34.93049,-2.25521 34.93046,-2.25522 z M -6.5856419,522.13351 V 496.51785 H 7.3865467 21.358737 V 347.48117 198.44452 H 7.3865467 -6.5856419 V 172.82884 147.21315 H 74.91879 156.42323 v 25.61569 25.61568 h -13.97219 -13.97218 v 49.32879 49.3288 l 40.25037,-48.16446 40.25038,-48.16444 -14.63469,-1.45944 -14.6347,-1.45941 v -25.42807 -25.42806 l 82.66878,1.27181 82.66878,1.27181 v 23.28699 23.28697 l -12.92012,1.48453 -12.92012,1.48455 -40.03464,49.74682 -40.03465,49.74682 23.09366,2.89268 23.09365,2.89271 13.03131,8.53842 13.03128,8.53844 6.35067,15.1993 6.35069,15.19931 v 72.33923 72.33923 h 11.64349 11.64348 v 25.72828 25.72828 l -78.01138,-1.27696 -78.01139,-1.27696 v -23.28698 -23.28697 l 10.61575,-1.50618 10.61573,-1.50618 -1.30094,-59.03997 -1.30096,-59.03996 -40.75222,-1.34568 -40.75221,-1.34566 v 60.72746 60.72748 h 11.64349 11.64349 v 25.61566 25.61567 H 72.590095 -6.5856419 Z"
       id="path1" />
  </g>
</svg>
