<?xml version="1.0" encoding="UTF-8" standalone="no"?>
<!-- Created with Inkscape (http://www.inkscape.org/) -->

<svg
   version="1.1"
   id="svg1"
   width="900"
   height="900"
   viewBox="0 0 900.00001 899.99999"
   sodipodi:docname="Latitude64.svg"
   inkscape:version="1.4 (86a8ad7, 2024-10-11)"
   xmlns:inkscape="http://www.inkscape.org/namespaces/inkscape"
   xmlns:sodipodi="http://sodipodi.sourceforge.net/DTD/sodipodi-0.dtd"
   xmlns="http://www.w3.org/2000/svg"
   xmlns:svg="http://www.w3.org/2000/svg">
  <defs
     id="defs1" />
  <sodipodi:namedview
     id="namedview1"
     pagecolor="#ffffff"
     bordercolor="#000000"
     borderopacity="0.25"
     inkscape:showpageshadow="2"
     inkscape:pageopacity="0.0"
     inkscape:pagecheckerboard="0"
     inkscape:deskcolor="#d1d1d1"
     inkscape:zoom="0.72468753"
     inkscape:cx="689.95254"
     inkscape:cy="541.61274"
     inkscape:window-width="1920"
     inkscape:window-height="991"
     inkscape:window-x="-9"
     inkscape:window-y="-9"
     inkscape:window-maximized="1"
     inkscape:current-layer="g1" />
  <g
     inkscape:groupmode="layer"
     inkscape:label="Image"
     id="g1">
    <path
       style="fill:#000000;stroke-width:1"
       d="m 106.88562,613.89795 c -4.56754,-4.56757 -6.19487,-14.23287 -6.19487,-36.79382 0,-33.61384 0.84511,-35.92698 12.05486,-32.99555 6.70796,1.75416 7.65612,5.60678 7.65612,31.10878 v 29.10668 h 15.76878 c 13.14064,0 15.76877,1.31407 15.76877,7.88439 0,10.26489 -35.15976,11.58339 -45.05366,1.68952 z m 52.93805,2.52161 c 0,-7.71171 24.31845,-69.2032 28.35481,-71.69779 10.75782,-6.64872 16.9819,0.59057 29.503,34.31529 15.39822,41.47401 15.34607,41.05576 5.11973,41.05576 -4.88675,0 -9.43498,-3.82172 -11.72901,-9.8555 -2.86501,-7.53556 -6.57381,-9.85548 -15.75572,-9.85548 -8.98366,0 -13.13983,2.48262 -16.49913,9.85548 -4.23687,9.29893 -18.99368,14.10209 -18.99368,6.18224 z M 203.1878,586.8408 c 0,-0.94296 -1.96936,-6.70841 -4.37636,-12.81214 -4.06633,-10.31151 -4.60523,-10.53915 -7.60731,-3.21328 -5.31901,12.97984 -4.21907,17.73987 4.0993,17.73987 4.33641,0 7.88437,-0.77149 7.88437,-1.71445 z m 47.30635,1.71445 c 0,-31.53754 0,-31.53754 -11.82658,-31.53754 -8.92279,0 -11.82659,-1.80935 -11.82659,-7.36909 0,-7.6297 38.09895,-11.85331 55.91509,-6.1987 11.93757,3.78885 8.57417,13.56779 -4.66656,13.56779 -11.82659,0 -11.82659,0 -11.82659,31.53754 0,28.90943 -0.65702,31.53757 -7.88438,31.53757 -7.22737,0 -7.88439,-2.62814 -7.88439,-31.53757 z m 47.30633,-7.53556 c 0,-34.96695 0.725,-38.96758 6.89884,-38.06883 11.44992,1.6668 12.55386,77.14196 1.1283,77.14196 -7.53481,0 -8.02714,-2.39651 -8.02714,-39.07313 z m 47.30634,7.53556 c 0,-31.53754 0,-31.53754 -12.11565,-31.53754 -9.41243,0 -11.82171,-1.53926 -10.79829,-6.89884 2.17399,-11.38494 62.33588,-12.49616 62.33588,-1.15137 0,6.31654 -2.54693,8.05021 -11.82657,8.05021 -11.82659,0 -11.82659,0 -11.82659,31.53754 0,28.90943 -0.65704,31.53757 -7.88439,31.53757 -7.22736,0 -7.88439,-2.62814 -7.88439,-31.53757 z m 60.2364,27.51615 c -10.95102,-4.40649 -13.67274,-14.99979 -12.15506,-47.30914 0.95295,-20.28674 2.56388,-25.72354 7.9245,-26.74442 5.80244,-1.10504 6.88748,2.95845 7.88438,29.52686 1.156,30.80825 1.156,30.80825 15.76929,32.02162 l 14.6133,1.21339 1.15548,-30.77983 c 1.04236,-27.76657 1.92734,-30.77985 9.03987,-30.77985 8.60531,0 12.9111,29.66698 8.06576,55.57334 -3.45775,18.48739 -28.62677,26.80272 -52.29752,17.27803 z m 61.97163,-35.87435 V 540.3013 l 24.23951,1.75331 c 30.49563,2.20586 38.8356,10.63101 38.8356,39.23218 0,27.97299 -11.5052,38.80603 -41.21385,38.80603 h -21.86126 z m 42.5757,19.39635 c 2.60186,-2.60184 4.73063,-11.11699 4.73063,-18.92252 0,-17.05722 -5.7165,-23.65317 -20.4994,-23.65317 -10.86295,0 -11.03815,0.37544 -11.03815,23.65317 0,23.27771 0.1752,23.65316 11.03815,23.65316 6.07097,0 13.16692,-2.12879 15.76877,-4.73064 z m 34.57868,14.30455 c -4.43559,-4.43559 -6.19488,-13.92595 -6.19488,-33.41778 0,-33.77441 8.08967,-41.86919 37.44368,-37.46729 24.57871,3.68581 24.584,14.00483 0.008,14.00483 -15.11175,0 -17.73988,1.16805 -17.73988,7.88439 0,6.57032 2.62813,7.88439 15.76877,7.88439 13.14066,0 15.76878,1.31405 15.76878,7.88439 0,6.57032 -2.62812,7.88437 -15.76878,7.88437 -13.14064,0 -15.76877,1.31408 -15.76877,7.8844 0,6.71633 2.62813,7.88439 17.73988,7.88439 12.53508,0 17.73987,1.61118 17.73987,5.49152 0,11.4934 -38.38644,14.69178 -48.99585,4.08239 z m 96.30218,-1.68952 c -10.66421,-10.66422 -11.3256,-50.94696 -0.98554,-60.02674 9.56928,-8.40296 23.43848,-12.08874 34.77872,-9.24251 14.70608,3.69099 12.16922,14.07853 -3.43828,14.07853 -12.32707,0 -22.47051,5.69456 -22.47051,12.61502 0,1.73456 6.74115,3.15376 14.98034,3.15376 18.84876,0 24.4416,5.56111 24.4416,24.30289 0,22.88886 -29.96102,32.46435 -47.30633,15.11905 z m 31.53756,-15.34701 c 0,-8.36081 -8.7721,-13.17302 -17.73987,-9.73176 -6.1345,2.35403 -7.85754,9.99387 -3.28517,14.56625 6.02311,6.02312 21.02504,2.57357 21.02504,-4.83449 z m 62.36375,14.36274 c -1.0673,-7.51395 -3.36737,-8.70839 -15.05741,-7.81943 -25.65229,1.95069 -27.45334,-3.46965 -11.13483,-33.51076 9.67951,-17.81923 17.20427,-27.09213 22.66762,-27.93368 10.71364,-1.65028 10.40329,0.35311 -3.93772,25.41857 -12.11591,21.17639 -12.11591,21.17639 -1.97111,21.17639 8.193,0 10.14482,-1.89613 10.14482,-9.85548 0,-7.22735 2.10249,-9.85548 7.88439,-9.85548 5.78188,0 7.88438,2.62813 7.88438,9.85548 0,5.42053 1.77399,9.85548 3.94219,9.85548 2.16822,0 3.9422,2.66098 3.9422,5.91331 0,3.2523 -1.77398,5.91328 -3.9422,5.91328 -2.1682,0 -3.94219,4.43497 -3.94219,9.85548 0,13.0995 -14.63515,13.97586 -16.48014,0.98684 z m 26.827,-44.42276 c -7.74616,-7.74619 -7.90412,-10.16831 -1.25604,-19.2601 10.80909,-14.78231 37.61826,0.93171 27.93726,16.37524 -5.83621,9.31016 -18.84892,10.71713 -26.68122,2.88486 z M 341.16462,501.23061 C 140.37218,482.64392 53.228708,421.81009 126.06517,351.07222 223.471,256.47289 639.16947,227.51551 694.1959,311.49647 c 28.09741,42.88207 -32.21501,80.11587 -171.38778,105.80601 -63.19856,11.66593 -67.37901,8.46339 -13.00393,-9.96199 70.31023,-23.82513 111.25626,-51.07209 111.25626,-74.03397 0,-11.56085 -25.77829,-31.78007 -49.55193,-38.86611 -46.33553,-13.8109 -150.22724,-7.00351 -224.4306,14.70556 -91.57486,26.79131 -136.13429,73.41427 -99.57004,104.18106 43.93801,36.97139 195.07156,65.14641 411.0034,76.62114 110.08026,5.84974 132.06353,7.87932 132.06353,12.19259 0,4.63522 -398.21563,3.82876 -449.41019,-0.91015 z"
       id="path1" />
  </g>
</svg>
