<?xml version="1.0" encoding="UTF-8" standalone="no"?>
<svg
   version="1.0"
   width="675pt"
   height="675pt"
   viewBox="0 0 675 675"
   preserveAspectRatio="xMidYMid"
   id="svg13"
   sodipodi:docname="LoneStarBlack.svg"
   inkscape:version="1.4 (86a8ad7, 2024-10-11)"
   xmlns:inkscape="http://www.inkscape.org/namespaces/inkscape"
   xmlns:sodipodi="http://sodipodi.sourceforge.net/DTD/sodipodi-0.dtd"
   xmlns="http://www.w3.org/2000/svg"
   xmlns:svg="http://www.w3.org/2000/svg">
  <defs
     id="defs13" />
  <sodipodi:namedview
     id="namedview13"
     pagecolor="#ffffff"
     bordercolor="#000000"
     borderopacity="0.25"
     inkscape:showpageshadow="2"
     inkscape:pageopacity="0.0"
     inkscape:pagecheckerboard="0"
     inkscape:deskcolor="#d1d1d1"
     inkscape:document-units="pt"
     inkscape:zoom="0.40260417"
     inkscape:cx="439.63777"
     inkscape:cy="445.84734"
     inkscape:window-width="1920"
     inkscape:window-height="991"
     inkscape:window-x="-9"
     inkscape:window-y="-9"
     inkscape:window-maximized="1"
     inkscape:current-layer="svg13" />
  <g
     transform="matrix(0.05790782,0,0,-0.05790782,-26.334833,537.86106)"
     fill="#000000"
     stroke="none"
     id="g13"
     style="stroke-width:1.72689;fill:#000000;fill-opacity:1">
    <path
       d="m 4285,5564 c -16,-2 -307,-8 -645,-14 -900,-16 -1134,-29 -1590,-86 -350,-43 -516,-84 -708,-174 -211,-99 -232,-124 -240,-289 -5,-117 7,-198 37,-240 11,-14 61,-47 112,-73 119,-60 192,-120 275,-225 37,-46 78,-92 92,-103 50,-40 132,-14 132,43 0,12 11,165 24,339 22,286 26,321 46,353 12,19 34,42 48,49 30,15 315,57 542,80 493,50 1475,66 3990,66 2515,0 3497,-16 3990,-66 227,-23 512,-65 542,-80 14,-7 36,-30 48,-49 20,-32 24,-67 46,-353 13,-174 24,-327 24,-340 0,-56 82,-82 132,-42 14,11 55,57 92,103 83,105 156,165 275,225 51,26 101,59 112,73 30,42 42,123 37,240 -8,165 -29,190 -240,289 -192,90 -358,131 -708,174 -680,85 -1219,98 -4195,101 -1232,1 -2253,1 -2270,-1 z"
       id="path1"
       style="stroke-width:1.72689;fill:#000000;fill-opacity:1" />
    <path
       d="m 7145,5076 c -147,-37 -250,-150 -290,-318 -19,-81 -19,-238 0,-311 41,-156 131,-247 275,-276 30,-6 108,-20 174,-31 153,-26 202,-47 222,-97 28,-67 -3,-175 -63,-223 -90,-71 -213,-74 -350,-10 -113,52 -170,111 -182,188 -4,20 -11,37 -16,39 -13,4 -115,-359 -105,-370 4,-5 16,-4 27,1 15,8 34,0 98,-44 198,-133 391,-157 572,-70 69,34 146,104 176,162 39,76 61,178 61,284 0,165 -43,281 -134,363 -65,59 -128,82 -309,113 -182,31 -204,38 -237,77 -23,28 -26,37 -22,94 3,51 9,69 34,100 48,60 94,78 194,77 117,-1 182,-27 267,-108 46,-43 67,-71 72,-95 3,-19 11,-36 16,-37 16,-5 127,349 112,358 -6,4 -19,0 -27,-7 -15,-13 -23,-11 -76,21 -206,125 -338,157 -489,120 z"
       id="path2"
       style="stroke-width:1.72689;fill:#000000;fill-opacity:1" />
    <path
       d="m 2240,5042 c 0,-9 9,-23 20,-30 20,-12 20,-23 20,-712 0,-688 0,-700 -20,-717 -11,-10 -20,-25 -20,-35 0,-17 25,-18 438,-18 240,0 442,-4 449,-8 6,-4 16,-20 22,-35 24,-63 31,-25 31,168 0,193 -7,231 -31,168 -6,-15 -16,-31 -22,-35 -7,-4 -150,-8 -319,-8 h -308 v 605 605 l 25,22 c 50,43 37,48 -130,48 -141,0 -155,-2 -155,-18 z"
       id="path3"
       style="stroke-width:1.72689;fill:#000000;fill-opacity:1" />
    <path
       d="m 6239,4828 -14,-33 -379,-5 c -254,-3 -381,-9 -383,-16 -2,-5 8,-21 22,-34 l 25,-23 v -559 -559 l -24,-22 c -48,-45 -35,-47 375,-49 l 384,-3 15,-32 c 8,-18 18,-33 23,-33 4,0 7,83 7,185 0,102 -3,185 -7,185 -5,0 -15,-15 -23,-33 l -15,-32 -273,-3 -273,-2 3,152 3,153 146,3 c 167,3 197,-4 205,-48 15,-73 24,-17 24,150 0,165 -8,218 -24,155 -10,-40 -35,-46 -198,-43 l -153,3 v 135 135 h 260 260 l 14,-32 c 8,-18 18,-33 23,-33 4,0 8,83 8,185 0,102 -4,185 -8,185 -5,0 -15,-15 -23,-32 z"
       id="path4"
       style="stroke-width:1.72689;fill:#000000;fill-opacity:1" />
    <path
       d="m 7840,4675 c 0,-102 3,-185 8,-185 4,0 14,15 22,33 l 15,32 133,3 132,3 v -481 -481 l -25,-23 c -45,-42 -35,-46 120,-46 156,0 164,3 123,48 l -23,24 v 476 477 l 126,3 c 135,3 159,-4 159,-49 0,-10 7,-19 15,-19 13,0 15,27 15,185 0,190 -6,217 -34,150 l -15,-35 -363,2 -363,3 -15,32 c -8,18 -18,33 -22,33 -5,0 -8,-83 -8,-185 z"
       id="path5"
       style="stroke-width:1.72689;fill:#000000;fill-opacity:1" />
    <path
       d="m 3288,4818 c -16,-16 -18,-39 -18,-258 v -240 h -160 c -147,0 -160,-1 -170,-19 -5,-11 -10,-24 -10,-30 0,-12 42,-55 133,-137 39,-36 57,-59 57,-76 0,-42 33,-79 113,-125 64,-37 98,-30 128,28 15,31 25,39 47,39 37,-1 87,-46 110,-101 11,-26 36,-68 55,-95 19,-27 38,-60 42,-74 27,-91 64,-125 172,-160 102,-33 137,-1 116,104 -18,89 0,121 112,193 39,25 84,58 101,72 16,15 44,33 62,40 31,13 52,52 58,111 1,14 6,42 10,63 6,36 3,51 -37,142 -5,11 -10,58 -11,104 -2,63 -7,86 -18,91 -108,50 -101,49 -230,48 -98,-1 -131,2 -150,14 -14,9 -40,16 -59,16 -18,0 -41,8 -50,16 -10,9 -25,16 -34,16 -15,0 -17,13 -17,103 0,56 -4,108 -9,116 -7,11 -43,15 -167,16 -140,1 -160,-1 -176,-17 z m 272,-147 c 0,-79 3,-93 23,-116 22,-26 112,-65 149,-65 10,0 29,-7 42,-16 19,-11 54,-15 153,-16 186,0 203,-12 203,-133 0,-24 9,-64 20,-90 16,-36 18,-58 13,-106 -3,-34 -11,-65 -17,-70 -30,-25 -99,-75 -172,-123 -125,-84 -161,-140 -152,-237 4,-43 3,-49 -14,-49 -10,0 -36,9 -57,19 -37,19 -52,43 -65,103 -3,15 -12,33 -19,40 -28,30 -64,86 -86,134 -14,31 -41,67 -67,88 -38,32 -51,37 -103,39 -64,2 -94,-14 -112,-61 -8,-21 -10,-22 -36,-8 -38,19 -57,43 -77,97 -11,32 -33,60 -66,88 -28,23 -50,46 -50,52 0,5 52,9 122,9 99,0 125,3 140,17 16,15 18,36 18,255 v 238 h 105 105 z"
       id="path6"
       style="stroke-width:1.72689;fill:#000000;fill-opacity:1" />
    <path
       d="m 4350,4774 c 0,-9 10,-24 23,-34 l 22,-18 v -560 -560 l -22,-24 c -42,-44 -33,-48 112,-48 145,0 154,4 113,48 -23,23 -23,25 -26,400 -2,235 1,373 7,367 34,-36 471,-723 471,-741 0,-12 -7,-27 -15,-34 -8,-7 -15,-19 -15,-26 0,-11 29,-14 145,-14 99,0 145,3 145,11 0,6 -11,25 -25,41 l -25,30 2,555 3,555 23,18 c 12,10 22,25 22,34 0,14 -18,16 -135,16 -117,0 -135,-2 -135,-16 0,-9 10,-24 23,-34 22,-18 22,-18 25,-387 2,-318 1,-366 -11,-353 -38,39 -447,687 -447,706 0,13 7,29 15,38 8,8 15,22 15,30 0,14 -21,16 -155,16 -135,0 -155,-2 -155,-16 z"
       id="path7"
       style="stroke-width:1.72689;fill:#000000;fill-opacity:1" />
    <path
       d="m 8940,4775 c 0,-9 9,-25 20,-37 13,-14 20,-36 20,-60 0,-35 -74,-278 -257,-847 -55,-171 -81,-240 -99,-256 -44,-41 -34,-45 126,-45 161,0 171,4 125,46 -32,29 -32,55 2,171 l 27,93 h 187 187 l 27,-72 c 14,-40 29,-94 32,-120 5,-41 3,-49 -21,-71 -47,-44 -38,-47 139,-47 115,0 165,3 165,11 0,6 -12,26 -28,43 -36,41 -372,1028 -372,1092 0,26 7,51 20,67 11,14 20,30 20,36 0,8 -51,11 -160,11 -137,0 -160,-2 -160,-15 z m 218,-565 60,-185 -64,-3 c -35,-2 -93,-2 -128,0 l -63,3 60,193 c 33,106 64,189 68,185 4,-4 34,-91 67,-193 z"
       id="path8"
       style="stroke-width:1.72689;fill:#000000;fill-opacity:1" />
    <path
       d="m 9710,4772 c 0,-10 9,-27 20,-37 20,-18 20,-31 20,-577 0,-545 0,-558 -20,-578 -11,-11 -20,-27 -20,-35 0,-13 22,-15 140,-15 118,0 140,2 140,15 0,8 -9,24 -20,35 -19,19 -20,33 -20,245 v 225 h 94 94 l 91,-203 c 90,-202 107,-262 76,-273 -8,-4 -15,-15 -15,-25 0,-18 10,-19 170,-19 104,0 170,4 170,10 0,5 -19,29 -42,52 -33,34 -63,89 -139,253 l -96,210 51,27 c 64,33 113,80 137,134 26,58 42,177 35,261 -14,154 -60,237 -154,281 l -57,27 -327,3 c -318,4 -328,3 -328,-16 z m 603,-225 c 47,-20 59,-40 64,-110 6,-75 -13,-127 -55,-148 -18,-9 -83,-14 -199,-17 l -173,-4 v 146 146 h 165 c 116,0 175,-4 198,-13 z"
       id="path9"
       style="stroke-width:1.72689;fill:#000000;fill-opacity:1" />
    <path
       d="m 4660,3185 c 0,-8 11,-25 25,-39 l 25,-25 v -685 -684 l -25,-30 c -14,-17 -25,-35 -25,-42 0,-8 87,-11 353,-8 344,3 353,4 412,27 125,50 236,203 284,392 42,163 50,405 20,589 -36,219 -131,394 -255,466 -78,46 -151,54 -496,54 -272,0 -318,-2 -318,-15 z m 685,-270 c 70,-36 115,-96 145,-192 63,-204 45,-519 -39,-667 -36,-65 -96,-111 -161,-125 -28,-6 -123,-11 -210,-11 h -160 v 508 c 0,280 3,512 8,516 4,4 86,6 183,4 172,-3 177,-4 234,-33 z"
       id="path10"
       style="stroke-width:1.72689;fill:#000000;fill-opacity:1" />
    <path
       d="m 6604,2941 c -97,-25 -187,-100 -230,-195 -67,-147 -49,-364 41,-482 41,-54 112,-81 275,-104 171,-24 199,-32 231,-66 30,-32 32,-105 4,-147 -43,-67 -185,-96 -300,-62 -117,33 -205,96 -205,145 0,25 -17,35 -24,13 -44,-152 -76,-286 -70,-294 5,-8 10,-6 16,5 13,22 20,21 80,-17 115,-73 238,-104 359,-93 147,13 251,82 311,204 32,65 33,69 33,202 0,127 -2,139 -28,195 -32,69 -66,107 -122,140 -52,30 -98,42 -235,60 -62,8 -130,20 -152,25 -77,21 -103,74 -72,148 16,38 29,51 74,75 50,26 62,29 135,25 133,-7 253,-77 276,-160 6,-22 14,-37 18,-32 13,14 101,287 95,293 -3,3 -14,0 -25,-7 -18,-11 -29,-7 -88,33 -119,79 -174,99 -276,102 -49,1 -104,-1 -121,-6 z"
       id="path11"
       style="stroke-width:1.72689;fill:#000000;fill-opacity:1" />
    <path
       d="m 7605,2937 c -103,-35 -169,-85 -228,-175 -94,-143 -133,-303 -124,-512 7,-145 24,-223 77,-337 88,-190 240,-284 435,-269 100,7 189,49 290,136 51,43 77,59 95,57 32,-3 32,0 -37,156 -55,127 -72,144 -73,72 0,-22 -13,-42 -58,-86 -194,-188 -457,-96 -521,182 -15,65 -13,217 4,282 71,271 321,352 524,170 36,-32 45,-47 50,-84 3,-24 10,-43 15,-42 14,2 128,262 121,274 -4,5 -13,5 -25,-1 -15,-8 -32,2 -97,56 -43,36 -106,79 -141,96 -56,28 -75,32 -165,35 -66,2 -116,-2 -142,-10 z"
       id="path12"
       style="stroke-width:1.72689;fill:#000000;fill-opacity:1" />
    <path
       d="m 5900,2912 c 0,-10 9,-25 19,-34 12,-10 22,-36 26,-70 3,-29 5,-281 3,-560 l -3,-506 -22,-24 c -42,-44 -33,-48 115,-48 76,0 142,3 145,6 4,4 -5,20 -18,36 l -25,30 v 556 556 l 26,27 c 14,15 23,32 20,38 -5,7 -57,11 -147,11 -127,0 -139,-2 -139,-18 z"
       id="path13"
       style="stroke-width:1.72689;fill:#000000;fill-opacity:1" />
  </g>
</svg>
