<?xml version="1.0" encoding="UTF-8" standalone="no"?>
<!-- Created with Inkscape (http://www.inkscape.org/) -->

<svg
   version="1.1"
   id="svg1"
   width="900"
   height="900"
   viewBox="0 0 900 900"
   sodipodi:docname="Mint.svg"
   inkscape:version="1.4 (86a8ad7, 2024-10-11)"
   xmlns:inkscape="http://www.inkscape.org/namespaces/inkscape"
   xmlns:sodipodi="http://sodipodi.sourceforge.net/DTD/sodipodi-0.dtd"
   xmlns="http://www.w3.org/2000/svg"
   xmlns:svg="http://www.w3.org/2000/svg">
  <defs
     id="defs1" />
  <sodipodi:namedview
     id="namedview1"
     pagecolor="#ffffff"
     bordercolor="#000000"
     borderopacity="0.25"
     inkscape:showpageshadow="2"
     inkscape:pageopacity="0.0"
     inkscape:pagecheckerboard="0"
     inkscape:deskcolor="#d1d1d1"
     inkscape:zoom="0.83580022"
     inkscape:cx="492.34254"
     inkscape:cy="452.85942"
     inkscape:window-width="1920"
     inkscape:window-height="991"
     inkscape:window-x="-9"
     inkscape:window-y="-9"
     inkscape:window-maximized="1"
     inkscape:current-layer="g1" />
  <g
     inkscape:groupmode="layer"
     inkscape:label="Image"
     id="g1">
    <path
       style="fill:#000000"
       d="M 343.98974,542.06155 V 522.9983 l 9.53163,0.005 c 10.78813,0.005 14.39718,1.42516 18.80305,7.39698 4.69609,6.36519 5.36125,13.26151 1.93236,20.03444 -1.25399,2.47694 -2.08409,4.82048 -1.84466,5.20788 0.23942,0.38739 -0.0546,1.00715 -0.65345,1.37724 -0.67998,0.42025 -0.83964,0.2698 -0.42525,-0.4007 0.36494,-0.59048 0.22036,-1.0736 -0.32128,-1.0736 -0.54163,0 -0.98479,0.33508 -0.98479,0.74462 0,0.40954 -1.89427,1.66492 -4.20949,2.78974 -3.43065,1.66674 -5.83941,2.04513 -13.01881,2.04513 h -8.80931 z m 17.71137,8.347 c 3.69215,-1.90928 5.93556,-7.25918 4.62297,-11.02448 -1.16998,-3.35621 -3.68154,-6.30016 -4.79024,-5.61494 -0.4431,0.27385 -0.80564,0.0548 -0.80564,-0.48689 0,-0.54163 -1.67384,-0.98479 -3.71966,-0.98479 h -3.71965 v 9.7641 9.76411 h 2.83592 c 1.55976,0 4.06909,-0.6377 5.5763,-1.41711 z m 32.50344,-8.57948 -5.8e-4,-19.29572 4.65015,0.32222 4.65015,0.32223 v 18.9735 18.9735 h -4.64957 -4.64957 z m 34.05851,17.9296 c -5.5318,-1.97181 -5.85794,-2.70889 -3.06566,-6.92833 l 2.46178,-3.72 3.84801,1.35766 c 6.61576,2.33417 12.91212,1.39947 11.70812,-1.73809 -0.33293,-0.86762 -2.29256,-1.66004 -5.01755,-2.02897 -6.83219,-0.92497 -10.11884,-2.17134 -12.80248,-4.85498 -2.1854,-2.1854 -2.42946,-3.08536 -2.2596,-8.33223 0.10474,-3.2352 0.37814,-5.69448 0.60756,-5.46506 0.22942,0.22942 1.31412,-0.43478 2.41045,-1.47601 2.96628,-2.81719 5.63087,-3.57564 12.51539,-3.56239 4.45772,0.009 7.48927,0.60086 10.71563,2.09355 l 4.49924,2.08158 -2.8583,3.59672 c -1.57207,1.97819 -2.62172,3.97953 -2.33254,4.44742 0.28917,0.46789 -0.86771,0.001 -2.57085,-1.03721 -4.62477,-2.8196 -13.79064,-2.47951 -13.79064,0.51168 0,1.54028 2.66508,2.28816 9.00998,2.52841 2.6081,0.0988 4.55235,0.49341 4.32054,0.877 -0.23181,0.38359 -0.0226,0.69743 0.46498,0.69743 0.48755,0 2.18609,1.21405 3.77454,2.69788 2.48063,2.31726 2.88808,3.34911 2.88808,7.31391 0,5.40924 -2.33355,9.03217 -7.10062,11.02398 -3.89445,1.6272 -12.74512,1.58456 -17.42606,-0.0839 z m 52.42412,-0.44598 c -1.79009,-0.95145 -4.25707,-2.80313 -5.48218,-4.11485 -1.22511,-1.31172 -2.64977,-2.12396 -3.1659,-1.80497 -0.51613,0.31898 -0.70041,0.19487 -0.40951,-0.27582 0.2909,-0.47069 -0.0529,-3.09871 -0.76398,-5.84004 -1.44308,-5.56319 -0.59681,-11.75161 2.17562,-15.90948 0.85258,-1.27863 1.44672,-2.66973 1.32031,-3.09134 -0.12641,-0.4216 0.19899,-0.50152 0.72311,-0.1776 0.52413,0.32393 0.95296,0.22286 0.95296,-0.2246 0,-0.44746 1.70947,-1.77433 3.79882,-2.94861 4.787,-2.69045 14.46292,-2.94278 18.34419,-0.47838 3.17619,2.01671 6.68434,5.18792 6.68434,6.04235 0,0.36159 -1.44314,1.75818 -3.20697,3.10352 l -3.20698,2.44608 -3.33071,-1.87075 c -5.03088,-2.82568 -9.40333,-2.47446 -12.66516,1.01734 -7.94162,8.50153 3.35143,21.92503 12.4345,14.78029 3.02929,-2.38284 3.68019,-2.34193 6.98517,0.43902 1.50262,1.26438 3.05603,1.99668 3.45201,1.62735 0.39599,-0.36932 0.28359,0.1701 -0.24977,1.19873 -3.67352,7.08471 -16.49007,10.2806 -24.38987,6.08176 z m 48.93656,0.47951 c -5.00836,-1.83183 -5.81615,-2.81791 -4.41587,-5.39049 2.86343,-5.26068 3.2832,-5.5014 6.93358,-3.97617 3.77809,1.57858 10.34646,1.9124 9.46172,0.48085 -0.31727,-0.51334 0.0276,-0.69066 0.78097,-0.40156 1.60366,0.61538 3.03269,-1.27534 1.85445,-2.45358 -0.45244,-0.45244 -3.63276,-1.22058 -7.06738,-1.70698 -7.80838,-1.1058 -11.45283,-3.54587 -12.80694,-8.57463 -1.33069,-4.94183 0.15574,-9.42329 4.04388,-12.19189 3.94955,-2.81233 14.15488,-3.41939 20.16279,-1.19938 2.30154,0.85046 4.71012,1.58529 5.35241,1.63296 1.17125,0.087 0.25285,1.93981 -3.39398,6.8473 -1.35001,1.8167 -1.67629,1.863 -4.57962,0.64991 -1.71933,-0.71838 -5.076,-1.18014 -7.45927,-1.02614 -3.59486,0.2323 -4.33321,0.59183 -4.33321,2.10999 0,1.54564 1.01146,1.99334 6.5094,2.88125 7.25045,1.17093 9.7641,2.03268 9.7641,3.34741 0,0.48692 0.52308,0.58429 1.16239,0.21638 0.63932,-0.36791 0.86333,-0.33764 0.49779,0.0673 -0.36553,0.40491 -0.0517,1.61127 0.69744,2.68079 0.74912,1.06952 1.36204,3.7764 1.36204,6.01528 0,3.38163 -0.52995,4.60065 -3.13071,7.20141 -1.72189,1.72189 -3.0122,3.24928 -2.86734,3.39419 1.02824,1.02865 -15.54159,0.48836 -18.52864,-0.60417 z M 158.93675,528.54861 c 0,-15.60834 -0.27682,-20.55945 -1.1624,-20.79025 -0.63931,-0.16662 -4.30085,-1.03883 -8.13675,-1.93825 -11.31417,-2.65288 -20.61236,-8.01353 -29.81928,-17.1916 -13.84207,-13.79868 -19.15458,-27.79305 -18.31374,-48.24252 0.36045,-8.7664 0.93043,-12.15186 2.97487,-17.66964 8.63892,-23.31575 26.7274,-38.37208 50.97012,-42.42603 l 3.48718,-0.58314 0,-20.41598 V 338.87521 H 450 741.06325 v 20.45812 c 0,20.84214 -0.0474,20.52134 3.02223,20.45295 1.7015,-0.0379 14.96936,4.32851 18.33498,6.034 2.44964,1.24132 4.71408,1.99676 5.0321,1.67874 0.31802,-0.31802 0.57822,-0.10076 0.57822,0.4828 0,0.58356 1.29899,1.73276 2.88666,2.55377 3.54656,1.834 15.69578,13.89627 17.47913,17.35404 0.7164,1.38904 1.72259,2.26593 2.23599,1.94863 0.53349,-0.32972 0.64466,-0.10963 0.25944,0.51366 -0.3707,0.5998 0.18546,2.48118 1.2359,4.18083 1.05045,1.69966 2.85832,5.98126 4.0175,9.51467 1.81549,5.53398 2.10522,8.35763 2.0904,20.3731 -0.017,13.77406 -0.0577,14.04769 -3.25326,21.85299 -1.77983,4.34735 -3.17934,8.42285 -3.11001,9.05666 0.0693,0.63381 -0.15411,0.97925 -0.49652,0.76763 -0.3424,-0.21162 -1.64047,1.15288 -2.8846,3.03223 -6.05597,9.14801 -13.97311,16.18296 -24.18029,21.48595 -7.00072,3.63712 -16.30364,6.57378 -20.82483,6.57378 h -2.42304 v 20.92307 20.92308 h -83.69231 -83.6923 v -6.5094 -6.5094 h 77.64786 77.64787 v -20.45812 -20.45812 l 6.74188,-0.0227 c 8.71436,-0.0294 13.51871,-1.17873 22.08547,-5.28354 13.31865,-6.38169 23.86902,-19.81163 27.43067,-34.91746 4.73967,-20.10206 -3.9353,-41.90637 -21.29111,-53.51464 -8.61847,-5.76439 -16.42354,-8.43455 -26.83016,-9.17876 l -8.13675,-0.58188 V 371.28298 350.9641 H 450 171.02563 v 20.32048 20.32047 l -8.13675,0.54871 c -15.93854,1.07482 -28.46893,7.68922 -39.11755,20.64892 -5.85383,7.12428 -10.36081,20.36076 -10.38665,30.50436 -0.0175,6.88948 2.56764,18.55543 3.92588,17.71599 0.60646,-0.37481 0.7252,-0.17609 0.303,0.50704 -1.26787,2.05146 4.49372,11.50345 11.10096,18.21133 10.18345,10.33855 21.8547,15.35947 35.70346,15.35947 h 6.60765 v 20.45265 20.45265 l 75.55556,0.23795 75.55556,0.23794 0.27497,6.27693 0.27496,6.27692 h -81.87497 -81.87496 z m 39.43879,-36.70037 c -0.89436,-3.56344 0.0483,-4.79908 4.16325,-5.45708 4.75746,-0.76075 9.14341,-4.55282 12.70763,-10.98695 l 2.7399,-4.94608 0.27481,-35.80171 c 0.15115,-19.69094 0.0621,-36.63864 -0.19794,-37.66154 -0.74782,-2.94187 -4.15399,-4.49678 -12.16576,-5.55366 -6.7001,-0.88384 -7.46951,-1.19307 -7.74318,-3.11204 -0.67112,-4.7059 0.23173,-4.88406 24.24362,-4.78422 12.24762,0.0509 22.90637,0.33741 23.68611,0.63662 1.26021,0.48359 3.27856,4.40984 13.27932,25.8321 1.4326,3.06872 5.29188,11.22872 8.57618,18.13333 3.2843,6.90462 6.75511,14.33231 7.7129,16.50599 0.95779,2.17367 1.97475,3.94922 2.25991,3.94566 0.28516,-0.004 5.93657,-14.2608 12.55869,-31.68275 7.16414,-18.84793 12.66108,-32.00855 13.5733,-32.49675 0.8432,-0.45127 11.95433,-0.73557 24.69141,-0.63179 l 23.15832,0.1887 0.283,3.39297 0.283,3.39297 -4.93257,0.6682 c -5.68553,0.7702 -9.57087,2.51737 -10.39937,4.67641 -1.06172,2.76681 -0.65839,84.08701 0.42712,86.1153 1.31923,2.465 6.3567,4.50971 11.11039,4.50971 h 3.80566 l -0.28861,3.48718 -0.28862,3.48718 h -34.40683 -34.40684 v -3.2547 -3.2547 l 6.97436,-0.49738 c 7.18432,-0.51236 9.72094,-1.32252 8.80106,-2.81092 -0.29064,-0.47026 0.11518,-0.60803 0.90182,-0.30617 2.88976,1.1089 3.31657,-3.91862 3.27061,-38.5247 l -0.0453,-34.11383 -2.24438,5.57949 c -7.22239,17.95475 -23.93585,61.59056 -24.04197,62.76924 -0.0691,0.76718 -0.3645,1.6041 -0.6565,1.85983 -0.292,0.25572 -1.60521,3.18495 -2.91825,6.5094 -2.27346,5.75614 -2.54799,6.05824 -5.75571,6.33364 -3.22295,0.2767 -5.62961,-1.02098 -5.71015,-3.07894 -0.02,-0.51145 -1.33256,-3.64992 -2.91676,-6.97436 -10.35856,-21.73742 -14.92929,-31.39183 -18.96681,-40.06217 -2.52019,-5.41197 -6.02124,-12.73504 -7.7801,-16.2735 l -3.19794,-6.43356 -0.057,26.12591 -0.057,26.12592 3.55626,5.49118 c 4.1576,6.4197 6.24569,7.69181 13.1822,8.0309 l 5.11453,0.25002 0.28861,3.48718 0.28862,3.48718 H 225.03453 198.9585 Z m 165.76235,1.70277 c -0.34097,-0.34097 -0.61994,-2.01482 -0.61994,-3.71966 v -3.09972 l 4.88205,-0.0222 c 6.90687,-0.0314 12.05505,-1.41713 13.94872,-3.7546 1.49579,-1.84635 1.62735,-5.37922 1.62735,-43.70002 v -41.69129 l -2.1194,-2.46394 c -2.24347,-2.60819 -7.24105,-4.03545 -14.38659,-4.10867 -3.86509,-0.0396 -3.95213,-0.10999 -3.95213,-3.19571 0,-1.90905 0.53647,-3.36107 1.35831,-3.67644 0.74707,-0.28668 17.01283,-0.55 36.14615,-0.58515 l 34.78784,-0.0639 1.46528,2.23629 c 2.25928,3.44811 0.39417,4.9179 -7.15626,5.63943 -8.45288,0.80778 -11.42005,2.41307 -12.60221,6.81805 -1.069,3.98329 -1.26899,76.08324 -0.2248,81.04399 1.01929,4.84246 4.37422,6.78591 12.62882,7.31565 7.47063,0.47944 8.86866,1.55475 7.52507,5.788 -0.57691,1.8177 -1.40699,1.85983 -36.6393,1.85983 -19.82696,0 -36.32799,-0.27897 -36.66896,-0.61994 z m 82.50469,-0.7073 c -0.28013,-0.72999 -0.37161,-2.28757 -0.2033,-3.4613 0.24084,-1.67954 1.13005,-2.29626 4.17501,-2.89565 4.61133,-0.90773 10.52061,-6.76969 13.64977,-13.54049 1.95018,-4.21974 2.00944,-5.41303 2.00944,-40.46206 v -36.1141 l -2.53229,-2.17879 c -1.99856,-1.71958 -4.10552,-2.31604 -9.99658,-2.82992 l -7.46429,-0.65112 v -3.03514 c 0,-1.9098 0.54537,-3.24441 1.47093,-3.59958 0.80901,-0.31044 11.74967,-0.56445 24.31259,-0.56445 h 22.84166 l 9.44655,9.29591 c 7.795,7.6707 9.67388,9.09325 10.74684,8.13675 1.08317,-0.9656 1.1198,-0.91771 0.2194,0.28683 -0.90204,1.20673 0.7285,3.25063 9.85473,12.35309 6.01458,5.99891 11.29594,10.57899 11.73635,10.17795 0.44042,-0.40103 0.55779,-0.3 0.26083,0.22452 -0.29697,0.52451 2.86747,4.4999 7.03208,8.83418 l 7.57202,7.88052 0.75865,-9.29914 c 0.84414,-10.3472 -0.33752,-25.41194 -2.07765,-26.4874 -0.61232,-0.37843 -0.97296,-1.02297 -0.80141,-1.43229 0.47712,-1.13846 -4.87533,-7.38384 -8.45121,-9.86111 -2.17728,-1.50836 -4.96979,-2.35251 -8.83419,-2.67049 -5.02829,-0.41375 -5.68402,-0.70101 -5.95442,-2.60845 -0.66597,-4.69781 0.0644,-4.83196 26.22285,-4.81663 13.36302,0.008 24.85298,0.36709 25.53325,0.79834 0.69873,0.44296 1.10332,1.93956 0.92992,3.43987 -0.25294,2.18848 -0.86892,2.76981 -3.50088,3.30395 -4.30864,0.8744 -9.79191,6.96291 -11.83044,13.13626 -1.39825,4.23436 -1.67975,10.47786 -2.12772,47.19111 l -0.51628,42.31111 -2.91803,0.28363 c -2.7111,0.26351 -4.06225,-0.95639 -19.05427,-17.20342 -8.87493,-9.61788 -16.48523,-17.37206 -16.91178,-17.23153 -0.42654,0.14054 -0.55148,-0.107 -0.27764,-0.55009 0.69592,-1.12602 -5.41897,-6.8738 -6.38185,-5.9987 -0.43196,0.39258 -0.4938,0.20597 -0.13741,-0.41469 0.35638,-0.62066 -0.0996,-1.90027 -1.01331,-2.84357 -0.9137,-0.9433 -4.94667,-5.35095 -8.96215,-9.79478 -4.01549,-4.44382 -7.74169,-7.80725 -8.28044,-7.47429 -0.54482,0.33672 -0.70728,0.16486 -0.36606,-0.38723 0.33741,-0.54595 -4.22108,-6.28902 -10.12998,-12.76239 l -10.74345,-11.76977 0.27707,32.84436 0.27707,32.84435 2.39449,4.18462 c 1.31696,2.30154 2.9173,4.06963 3.5563,3.9291 0.639,-0.14054 0.91749,0.1398 0.61888,0.62297 -0.29862,0.48317 0.56363,1.74892 1.91611,2.81278 1.84838,1.45394 3.79795,1.93429 7.85047,1.93429 4.57471,0 5.48084,0.28174 5.9817,1.85983 0.32466,1.02291 0.32466,2.69676 0,3.71966 -0.57141,1.80036 -1.40699,1.85983 -26.12945,1.85983 -21.26528,0 -25.62441,-0.22211 -26.04848,-1.32724 z m 160.47584,-0.11238 c -0.86327,-1.04017 -0.96242,-2.17297 -0.34409,-3.93117 0.79227,-2.25281 1.24679,-2.44668 5.17052,-2.20539 5.74681,0.3534 11.55606,-1.31229 13.31,-3.81638 1.23749,-1.76677 1.42891,-8.06853 1.42891,-47.0396 v -44.99953 l -4.41709,0.64966 c -4.87346,0.71678 -12.50425,4.97672 -11.64138,6.49889 0.30146,0.53179 0.2144,0.66541 -0.19345,0.29693 -1.06271,-0.9601 -6.21128,2.93731 -5.46832,4.13945 0.34213,0.55358 0.18949,0.73669 -0.34086,0.40891 -1.33324,-0.82399 -15.13548,14.39333 -15.13548,16.68725 0,1.57232 -2.38298,2.25205 -3.60634,1.0287 -1.31135,-1.31135 -1.43797,-31.12906 -0.14661,-34.52558 l 0.89662,-2.3583 56.63373,-0.0397 c 47.31199,-0.0331 56.81071,0.17358 57.70893,1.25587 1.46741,1.76812 1.02352,36.08647 -0.47319,36.58426 -0.57287,0.19053 -2.35262,-1.69667 -3.95501,-4.19378 -3.68539,-5.74318 -17.84798,-19.50973 -23.44607,-22.79043 -2.34022,-1.37146 -6.20876,-2.76136 -8.59675,-3.08867 l -4.3418,-0.59511 v 44.2368 c 0,25.75804 0.36985,45.20959 0.8854,46.56559 1.25305,3.29576 4.01761,4.4691 12.07389,5.12441 l 7.03387,0.57215 v 3.2547 3.2547 l -35.91136,0.24329 c -31.70581,0.21479 -36.05337,0.0722 -37.12407,-1.21795 z M 145.94013,459.60148 c 0.0122,-1.70064 0.42452,-4.76592 0.91626,-6.81173 0.88059,-3.6635 0.8241,-3.78734 -3.74184,-8.2027 -2.54976,-2.46568 -4.63592,-4.80586 -4.63592,-5.2004 0,-0.39454 2.82461,-1.09717 6.27692,-1.5614 l 6.27692,-0.84405 3.39796,-6.46637 3.39796,-6.46636 3.11144,6.46636 c 1.7113,3.55651 3.73914,6.50827 4.50632,6.55947 3.85606,0.25736 11.24405,1.61704 11.55947,2.12739 0.46961,0.75985 -3.77403,5.68379 -4.89852,5.68379 -0.47716,0 -1.56605,1.06601 -2.41975,2.36892 -1.58043,2.41205 -1.35613,8.19671 0.5121,13.20715 1.04303,2.79733 -0.0343,2.67221 -6.00497,-0.69744 -2.71874,-1.53436 -5.56732,-2.78974 -6.33018,-2.78974 -0.76287,0 -3.76288,1.28681 -6.66669,2.85959 l -5.27967,2.85958 z m 593.64662,-1.82544 c 0.35781,-2.74246 0.86151,-5.84709 1.11932,-6.89917 0.34803,-1.42029 -0.74816,-3.05115 -4.25679,-6.33307 -2.59905,-2.4311 -4.51275,-4.76447 -4.25269,-5.18527 0.26007,-0.4208 2.84553,-1.06153 5.74546,-1.42386 2.89993,-0.36232 5.76667,-0.84836 6.37054,-1.08008 0.60386,-0.23173 2.28905,-2.91342 3.74485,-5.95932 1.45581,-3.0459 2.91691,-5.538 3.2469,-5.538 0.32999,0 1.57996,2.09231 2.77772,4.64957 1.19776,2.55727 2.52467,4.64958 2.9487,4.64958 0.42403,0 0.66634,0.50138 0.53848,1.11417 -0.14683,0.70371 1.82303,1.40193 5.34701,1.89526 8.41607,1.17818 8.5782,1.29989 5.71412,4.28935 -1.367,1.42685 -2.16576,2.94619 -1.77501,3.37632 0.39075,0.43013 0.24821,0.51863 -0.31676,0.19666 -0.56497,-0.32196 -1.94671,0.39337 -3.07054,1.58962 -1.93759,2.06248 -1.9873,2.49664 -0.96079,8.39127 0.59538,3.41895 0.91028,6.3885 0.69977,6.599 -0.21051,0.21051 -2.96442,-0.92788 -6.11981,-2.52975 l -5.73707,-2.9125 -3.72324,1.67895 c -2.04778,0.92342 -3.46076,2.10365 -3.13994,2.62274 0.32897,0.53228 0.12357,0.65966 -0.47108,0.29215 -0.57991,-0.3584 -1.96008,-0.16692 -3.06706,0.42551 -1.979,1.05913 -2.00179,0.99372 -1.36209,-3.90913 z"
       id="path1" />
  </g>
</svg>
