<?xml version="1.0" encoding="UTF-8" standalone="no"?>
<svg
   id="Layer_1"
   data-name="Layer 1"
   viewBox="0 0 900 900"
   version="1.1"
   sodipodi:docname="MVP.svg"
   width="900"
   height="900"
   inkscape:version="1.4 (86a8ad7, 2024-10-11)"
   xmlns:inkscape="http://www.inkscape.org/namespaces/inkscape"
   xmlns:sodipodi="http://sodipodi.sourceforge.net/DTD/sodipodi-0.dtd"
   xmlns="http://www.w3.org/2000/svg"
   xmlns:svg="http://www.w3.org/2000/svg">
  <defs
     id="defs1" />
  <sodipodi:namedview
     id="namedview1"
     pagecolor="#ffffff"
     bordercolor="#000000"
     borderopacity="0.25"
     inkscape:showpageshadow="2"
     inkscape:pageopacity="0.0"
     inkscape:pagecheckerboard="0"
     inkscape:deskcolor="#d1d1d1"
     inkscape:zoom="0.773"
     inkscape:cx="487.06339"
     inkscape:cy="478.00776"
     inkscape:window-width="1920"
     inkscape:window-height="991"
     inkscape:window-x="-9"
     inkscape:window-y="-9"
     inkscape:window-maximized="1"
     inkscape:current-layer="Layer_1" />
  <path
     d="m 266.63334,498.40376 v 5.10086 c 0,2.81481 -0.97974,4.77428 -2.90812,5.81623 -1.80396,0.97974 -5.0231,1.46183 -9.85959,1.46183 h -29.92091 c -4.9298,0 -8.21114,-0.48209 -10.04621,-1.46183 -1.95948,-1.0575 -2.93922,-3.01698 -2.93922,-5.81623 v -1.53959 h 11.5858 v 2.11499 h 32.34693 v -6.03394 h -29.08113 c -4.89869,0 -8.16449,-0.4821 -9.96845,-1.47739 -1.92838,-1.05749 -2.90812,-3.01697 -2.90812,-5.80067 v -4.3544 c 0,-2.76815 0.97974,-4.71208 2.90812,-5.76957 1.80396,-0.99529 5.0542,-1.47738 9.96845,-1.47738 h 27.37048 c 4.82094,0 8.05563,0.45099 9.9218,1.39962 2.00613,1.02639 3.01697,2.81481 3.01697,5.34969 v 1.44628 h -11.32142 v -1.71066 h -30.15419 v 5.5052 h 29.2522 c 4.8987,0 8.14894,0.46654 9.90625,1.44628 1.89727,1.04195 2.86146,3.00142 2.86146,5.80068 z m -89.23399,12.37892 h 12.75216 v -31.61601 h -12.75216 z m 35.37946,-107.69351 47.69617,65.23816 h 34.13534 l 45.2235,-64.98934 66.7311,64.75607 0.23327,0.21772 h 39.54723 l -98.58038,-97.32072 h -27.09056 l -45.59673,65.08265 -46.3432,-65.08265 h -28.83231 l -97.66285,97.32072 h 45.34791 l 65.23816,-65.23816 z m 124.34907,77.53933 c -1.78842,-0.97974 -5.05421,-1.46183 -9.98401,-1.46183 h -28.80121 c -4.86759,0 -8.10228,0.48209 -9.87514,1.46183 -1.91283,1.05749 -2.89257,3.00142 -2.89257,5.78512 v 17.091 c 0,2.81481 0.97974,4.77428 2.90812,5.81623 1.80396,0.97974 5.0231,1.46183 9.85959,1.46183 h 28.80121 c 4.89869,0 8.14894,-0.48209 9.96845,-1.47738 1.92838,-1.0575 2.90812,-3.01698 2.90812,-5.80068 v -4.01226 h -12.92322 v 4.46325 h -28.72346 v -18.1796 h 28.72346 v 4.09002 h 12.92322 v -3.45241 c 0,-2.7837 -0.96419,-4.72763 -2.87701,-5.78512 z m -176.81953,14.22954 c 0,5.39634 -3.07917,10.13952 -8.05563,12.39447 -5.13196,2.33271 -12.95432,3.53017 -23.24935,3.53017 H 99.999991 v -31.61601 h 31.833729 c 8.98872,0 16.01796,1.213 20.87,3.60792 4.69652,2.31716 7.60463,6.93593 7.60463,12.08345 z m -16.65555,-7.23141 c -2.50378,-1.32187 -6.43829,-1.97503 -11.72577,-1.97503 h -19.01937 v 18.42842 h 13.70079 c 7.77571,0 13.2498,-0.66871 16.29788,-1.99058 2.93921,-1.27521 4.26108,-4.71208 4.26108,-7.54243 0,-2.42602 -1.10415,-5.62961 -3.51461,-6.90483 z m 327.7926,-19.31485 h 31.4916 l 96.82307,-97.32072 h -43.49729 l -68.31734,65.84467 -65.82911,-65.84467 h -48.24048 l 97.35183,97.08745 0.23327,0.23327 z m 239.66276,-97.07189 -0.23327,-0.26438 h -90.71137 l -19.23709,19.2371 h 95.54785 l 16.82663,20.06131 H 581.8604 l -60.07509,58.02231 h 41.56891 l 36.31254,-36.31254 h 166.0735 L 711.09261,371.22434 Z M 597.2874,486.39807 v 17.091 c 0,2.8148 -0.96419,4.75873 -2.87701,5.81623 -1.78842,0.97973 -5.02311,1.46183 -9.8907,1.46183 h -35.67493 c -4.8987,0 -8.14894,-0.4821 -9.9218,-1.46183 -1.89727,-1.0575 -2.86146,-3.01698 -2.86146,-5.81623 v -17.091 c 0,-2.7837 0.96419,-4.72763 2.86146,-5.78512 1.77286,-0.97974 5.00755,-1.46184 9.9218,-1.46184 h 35.67493 c 4.94535,0 8.19559,0.4821 9.93735,1.46184 1.88172,1.05749 2.83036,3.00142 2.83036,5.78512 z m -48.39599,-0.63761 v 18.1796 h 35.59718 v -18.1796 z m 129.29442,-0.12441 h 22.25406 v 25.13108 h 12.81436 v -25.13108 h 22.31628 v -6.48494 h -57.3847 z m -231.60714,6.95148 c -1.77286,-0.96419 -5.00755,-1.44628 -9.90625,-1.44628 H 407.4358 v -5.5052 h 30.15418 v 1.71066 h 11.32142 v -1.44628 c 0,-2.51933 -1.01084,-4.3233 -3.01697,-5.34969 -1.85062,-0.93308 -5.10086,-1.39963 -9.9218,-1.39963 h -27.37048 c -4.89869,0 -8.16449,0.4821 -9.96845,1.47739 -1.92838,1.05749 -2.90812,3.00142 -2.90812,5.76957 v 4.35439 c 0,2.78371 0.97974,4.74318 2.90812,5.80068 1.80396,0.99529 5.06976,1.47738 9.96845,1.47738 h 29.08114 v 6.03395 h -32.34693 v -2.11499 h -11.5858 v 1.53959 c 0,2.8148 0.99529,4.77428 2.93921,5.81623 1.81952,0.97973 5.10086,1.46183 10.04621,1.46183 h 29.92091 c 4.82094,0 8.05563,-0.4821 9.8596,-1.46183 1.92837,-1.0575 2.90811,-3.01698 2.90811,-5.81623 v -5.10086 c 0,-2.81481 -0.96419,-4.75873 -2.86146,-5.80068 z m 209.53969,6.46939 21.94303,11.72576 h -19.50146 l -19.3304,-11.72576 h -9.59522 v 11.72576 h -12.6433 v -31.61601 h 42.31539 c 3.95005,0 6.76486,0.43543 8.59992,1.33742 1.95948,0.96418 3.00143,2.61263 3.00143,4.77428 v 7.7446 c 0,2.14609 -1.04195,3.77899 -3.00143,4.72763 -1.83506,0.88643 -4.63431,1.30632 -8.59992,1.30632 z m -26.48405,-6.29832 h 24.88225 c 2.28606,0 3.2658,-0.23327 3.68569,-0.43544 0.45099,-0.21772 0.6376,-0.49765 0.6376,-0.99529 v -4.44771 c 0,-0.49764 -0.18661,-0.79312 -0.6376,-0.99529 -0.41989,-0.20216 -1.41518,-0.43544 -3.68569,-0.43544 h -24.88225 z m -106.68267,-7.49578 v 7.37137 c 0,2.16164 -1.04194,3.81009 -3.00142,4.77428 -1.83507,0.90198 -4.64987,1.33742 -8.59993,1.33742 h -29.67209 v 12.03679 h -12.65884 v -31.61601 h 42.31538 c 3.99671,0 6.81152,0.43543 8.63103,1.33742 1.94393,0.96418 2.97032,2.61263 2.97032,4.77428 z m -41.25789,7.1692 h 24.88226 c 2.2705,0 3.26579,-0.23327 3.68568,-0.43544 0.45099,-0.20217 0.63761,-0.49765 0.63761,-0.99529 v -4.13668 c 0,-0.49764 -0.18662,-0.79312 -0.63761,-0.99529 -0.43544,-0.20217 -1.41518,-0.43544 -3.68568,-0.43544 h -24.88226 z m 315.47589,0.13996 c -1.77286,-0.96419 -5.00756,-1.44628 -9.90625,-1.44628 h -29.23665 v -5.5052 h 30.15418 v 1.71065 h 11.32143 v -1.44628 c 0,-2.51932 -1.01084,-4.32329 -3.01698,-5.34968 -1.85061,-0.93309 -5.10086,-1.39963 -9.92179,-1.39963 h -27.37048 c -4.8987,0 -8.16449,0.4821 -9.96846,1.47739 -1.92837,1.05749 -2.90811,3.00142 -2.90811,5.76957 v 4.35439 c 0,2.78371 0.97974,4.74318 2.90811,5.80068 1.80397,0.99529 5.06976,1.47738 9.96846,1.47738 h 29.08113 v 6.03395 h -32.34693 v -2.11499 h -11.5858 v 1.53959 c 0,2.8148 0.99529,4.77428 2.93922,5.81622 1.81951,0.97974 5.10086,1.46184 10.03066,1.46184 h 29.92091 c 4.82093,0 8.05563,-0.4821 9.85959,-1.46184 1.92837,-1.05749 2.90811,-3.01697 2.90811,-5.81622 v -5.10086 c 0,-2.81481 -0.96418,-4.75874 -2.86146,-5.80068 z M 598.9514,267.43423 c -0.77757,-17.41758 -15.11597,-31.30498 -32.72017,-31.30498 -17.60419,0 -31.55381,13.51417 -32.68906,30.60517 -109.13979,7.7757 -209.44638,53.74567 -279.53658,110.52386 l 5.13197,7.6824 C 329.6321,327.35381 432.73794,279.99977 533.8532,273.93472 c 2.41047,15.72247 15.9713,27.79037 32.37803,27.79037 16.40674,0 28.81676,-11.0415 32.02035,-25.78424 35.86155,5.89399 78.42576,24.61788 84.80184,83.96206 h 24.49347 C 700.59541,319.46925 676.87951,276.71842 598.9514,267.43423 Z m -30.57407,19.05048 c -11.81907,0 -21.4454,-9.62632 -21.4454,-21.4454 0,-11.81907 9.62633,-21.44539 21.4454,-21.44539 11.81907,0 21.44539,9.61077 21.44539,21.44539 0,0.57541 -0.0466,1.13526 -0.0933,1.71066 -1.16635,0.5132 -2.25495,1.36852 -3.73234,2.86146 -2.83035,2.8148 -4.5099,5.08531 1.19746,5.70737 -3.63903,6.656 -10.71492,11.18146 -18.8172,11.18146 z M 309.86626,609.12979 c -4.01227,-21.42984 -22.81392,-37.64996 -45.39457,-37.64996 -17.99298,0 -33.55994,10.29503 -41.19568,25.30214 -34.39972,-15.24038 -53.18582,-42.73527 -53.18582,-75.23772 0,-0.37323 0.0311,-0.74646 0.0311,-1.1197 h -15.31813 c -0.63761,4.60322 -0.99529,9.14423 -0.99529,13.57638 0,33.1245 19.42371,64.16512 64.49169,81.94038 -0.0155,0.5754 -0.0466,1.1508 -0.0466,1.7262 0,25.50431 20.68337,46.20324 46.20323,46.20324 20.76113,0 38.31867,-13.70079 44.15045,-32.53355 2.42602,0.0467 4.88314,0.0778 7.38692,0.0778 108.34667,0 228.49685,-54.5699 307.31139,-111.20813 h -62.22123 c -69.18822,46.2343 -159.85294,84.33525 -251.21746,88.90737 z m -42.37759,34.25975 c -13.60749,0 -25.16218,-8.77099 -29.40772,-20.94774 v 0 c -0.24882,-0.73092 -0.48209,-1.47739 -0.68426,-2.22386 -0.0466,-0.17106 -0.0933,-0.32657 -0.12441,-0.49764 -0.17107,-0.63761 -0.31103,-1.30632 -0.43544,-1.95948 -0.0778,-0.38878 -0.12441,-0.79312 -0.18662,-1.18191 -0.0778,-0.49764 -0.15551,-0.97973 -0.20217,-1.47738 -0.0778,-0.94863 -0.13996,-1.89727 -0.13996,-2.87701 0,-0.97974 0.0622,-1.91282 0.13996,-2.86146 0.0467,-0.45099 0.10886,-0.88643 0.17107,-1.32187 0.0622,-0.45099 0.12441,-0.90198 0.20217,-1.33742 0.10886,-0.5754 0.23327,-1.16636 0.37323,-1.72621 0.0622,-0.23327 0.12441,-0.48209 0.18662,-0.71536 0.18662,-0.66871 0.37323,-1.33742 0.59095,-1.99058 v 0 c 4.16778,-12.31672 15.81578,-21.21212 29.51658,-21.21212 17.1843,0 31.16502,13.98071 31.16502,31.16502 0,0.26437 -0.0311,0.5132 -0.0466,0.77757 -1.33743,0.97974 -2.7526,2.2394 -4.36995,3.8412 -6.0184,6.01839 -9.93735,10.97929 -1.18191,13.07873 -0.18661,0.26438 -0.35768,0.5443 -0.55985,0.80868 v 0 c -5.67626,7.65129 -14.75829,12.64329 -25.00666,12.64329 z"
     id="path1"
     style="stroke-width:1" />
</svg>
