<?xml version="1.0" encoding="UTF-8" standalone="no"?>
<svg
   id="Layer_1"
   data-name="Layer 1"
   viewBox="0 0 900 900"
   version="1.1"
   sodipodi:docname="Streamline.svg"
   width="900"
   height="900"
   inkscape:version="1.4 (86a8ad7, 2024-10-11)"
   xmlns:inkscape="http://www.inkscape.org/namespaces/inkscape"
   xmlns:sodipodi="http://sodipodi.sourceforge.net/DTD/sodipodi-0.dtd"
   xmlns="http://www.w3.org/2000/svg"
   xmlns:svg="http://www.w3.org/2000/svg">
  <defs
     id="defs1" />
  <sodipodi:namedview
     id="namedview1"
     pagecolor="#ffffff"
     bordercolor="#000000"
     borderopacity="0.25"
     inkscape:showpageshadow="2"
     inkscape:pageopacity="0.0"
     inkscape:pagecheckerboard="0"
     inkscape:deskcolor="#d1d1d1"
     inkscape:zoom="0.773"
     inkscape:cx="487.06339"
     inkscape:cy="459.89651"
     inkscape:window-width="1920"
     inkscape:window-height="991"
     inkscape:window-x="-9"
     inkscape:window-y="-9"
     inkscape:window-maximized="1"
     inkscape:current-layer="Layer_1" />
  <path
     d="m 659.48664,443.13759 c 1.10008,-6.91479 1.71123,-13.96927 1.71123,-21.14598 0,-87.77938 -84.53153,-159.17981 -188.44542,-159.17981 -36.58202,0 -70.75435,8.88795 -99.68819,24.20176 -0.12223,0.0699 -0.26193,0.13969 -0.38416,0.20954 -2.8637,1.51916 -5.65755,3.10816 -8.39902,4.74955 0,0 -0.0175,0 -0.0175,0 -10.28487,6.14648 -19.80144,13.11365 -28.42746,20.83167 v 0 c -21.65237,19.3649 -37.64718,43.26981 -45.67951,69.8638 v 0 c -2.951,9.76103 -4.80193,19.87129 -5.5004,30.24347 v 0 c -0.20954,3.02085 -0.33177,6.04171 -0.33177,9.09748 0,3.94632 0.227,7.85772 0.57624,11.73419 v 0 c 0.27938,3.16055 0.66354,6.28618 1.15246,9.39434 h 299.69318 c -0.66354,-1.60647 -1.29215,-3.26531 -2.09539,-4.74955 -5.01147,-9.27211 -11.48972,-16.90281 -19.19028,-22.70006 -7.89263,-5.90202 -16.43135,-10.26741 -25.35422,-12.9565 -9.42926,-2.84623 -19.01567,-5.04639 -28.49731,-6.54809 -9.42925,-1.50171 -19.19028,-2.89862 -29.03861,-4.12093 -10.07534,-1.25725 -19.46967,-3.56217 -27.93854,-6.84495 -7.70056,-2.84623 -14.10896,-6.68778 -18.98074,-11.41987 -5.41309,-5.22102 -8.15456,-12.24057 -8.15456,-20.84913 0,-7.59579 2.07793,-13.93435 6.1814,-18.87598 3.78916,-4.54001 8.52125,-8.20694 14.05658,-10.89603 5.37816,-2.61923 11.0881,-4.36539 16.97266,-5.22101 10.72141,-1.60647 19.34743,-1.65886 29.19577,-0.20954 4.6797,0.71593 9.06256,1.79854 13.06126,3.21292 l 3.61455,1.27471 v 3.82408 c 0,10.04042 2.89862,17.49651 8.83556,22.8223 6.11156,5.43054 12.93904,8.08471 20.8666,8.08471 4.60985,0 8.43394,-0.82069 11.38495,-2.46208 3.21293,-1.78108 5.91948,-4.05109 8.04979,-6.74018 2.20016,-2.724 3.78916,-5.86709 4.76701,-9.34195 1.0477,-3.73677 1.57155,-7.47355 1.57155,-11.15796 0,-9.25463 -2.79386,-16.72818 -8.29426,-22.21112 -6.00678,-6.00679 -13.46288,-10.70395 -22.14129,-13.95181 -8.99271,-3.38755 -18.59659,-5.67501 -28.51477,-6.81002 -10.02295,-1.15246 -18.92835,-1.72869 -26.43684,-1.72869 -0.87307,0 -1.72869,0.0698 -2.58431,0.0698 -0.13969,0 -0.24446,-0.0698 -0.38415,-0.0698 h -71.06866 c 20.76183,-7.03702 43.4095,-10.93097 67.1398,-10.93097 99.04211,0 179.60986,67.45412 179.60986,150.36172 0,7.17671 -0.64608,14.23119 -1.816,21.14598 z M 338.56017,322.19865 h 41.94272 c -2.20016,2.8637 -4.27808,5.81471 -6.11155,8.97526 -2.13031,3.70186 -3.87647,7.66564 -5.2734,11.85642 h -49.1369 c 5.46548,-7.40371 11.69926,-14.37089 18.56166,-20.83168 z m -24.97007,30.24347 h 53.08322 c -1.0477,5.37817 -1.58901,11.07064 -1.58901,17.05997 0,1.30962 0.12224,2.497 0.17462,3.7717 h -62.37278 c 2.95101,-7.21163 6.53063,-14.16134 10.72141,-20.83166 z m -14.17881,30.24346 h 66.6858 c 1.03023,7.12433 2.8637,13.49781 5.67501,18.87598 0.34923,0.681 0.78577,1.29216 1.16993,1.9557 h -78.38506 c 1.0477,-7.10687 2.67162,-14.07404 4.87178,-20.83168 z m -5.67501,51.05768 c -0.3667,-3.87647 -0.5937,-7.78787 -0.5937,-11.73419 0,-3.05577 0.1397,-6.07663 0.3667,-9.09748 h 85.911 c 3.12562,3.68439 6.67032,6.98463 10.65156,9.83087 6.12902,4.3654 12.81681,8.03233 19.87129,11.0008 H 293.75374 Z m 129.7745,-141.77061 c -8.66095,3.23039 -16.71074,7.24656 -23.90491,12.15326 -3.80663,2.60178 -7.28148,5.57025 -10.56426,8.67841 H 349.4562 c 10.05787,-7.96248 21.21582,-14.96458 33.26431,-20.83167 z M 263.98174,412.91159 h -63.42048 c -2.60178,0 -4.69717,-2.09539 -4.69717,-4.69717 0,-2.60176 2.11286,-4.69716 4.69717,-4.69716 h 64.24117 c 0.83816,-7.07195 2.21762,-14.02166 3.9987,-20.83168 H 160.48692 c -2.60177,0 -4.69716,-2.11284 -4.69716,-4.69716 0,-2.58431 2.09539,-4.69717 4.69716,-4.69717 h 111.09061 c 2.33985,-7.12432 5.11624,-14.0915 8.43394,-20.83167 H 104.69716 c -2.58432,0 -4.697169,-2.11285 -4.697169,-4.69717 0,-2.58431 2.095389,-4.69716 4.697169,-4.69716 h 180.30833 c 4.12093,-7.2291 8.78317,-14.17881 13.96926,-20.83167 H 150.16712 c -2.60177,0 -4.69716,-2.09539 -4.69716,-4.69717 0,-2.60177 2.11285,-4.69717 4.69716,-4.69717 h 156.68281 c 6.61794,-7.42117 13.91688,-14.38834 21.77459,-20.83167 h -92.5464 c -2.60177,0 -4.69716,-2.09539 -4.69716,-4.69716 0,-2.60178 2.11285,-4.69717 4.69716,-4.69717 h 104.89175 c 35.98832,-25.21453 81.87737,-40.37118 131.80004,-40.37118 115.26392,0 209.03263,80.65506 209.03263,179.78448 0,7.15925 -0.54131,14.19626 -1.48423,21.14598 h -14.87727 c 1.04769,-6.93225 1.64139,-13.96927 1.64139,-21.14598 0,-91.02725 -87.16824,-165.08183 -194.32998,-165.08183 -38.18849,0 -73.79266,9.44672 -103.86151,25.66853 -2.68908,1.44931 -5.34325,2.96847 -7.94502,4.52255 0,0 -0.0175,0 -0.0349,0.0175 -2.60178,1.57155 -5.15117,3.17801 -7.66564,4.85432 -9.42926,6.26871 -18.16005,13.23589 -26.07015,20.84914 -3.16054,3.02085 -6.19886,6.14647 -9.08002,9.37687 -5.90202,6.58302 -11.24526,13.55019 -15.95989,20.84913 -1.97316,3.07324 -3.80663,6.19886 -5.55278,9.39433 -3.70186,6.72271 -6.91479,13.68989 -9.51657,20.8666 -1.11754,3.0907 -2.11285,6.21632 -3.02085,9.37687 -1.9557,6.79255 -3.43993,13.75973 -4.3654,20.84913 -0.40161,3.0907 -0.73338,6.21632 -0.94292,9.35941 -0.19208,3.02085 -0.31431,6.05917 -0.31431,9.11495 0,7.17671 0.59369,14.21373 1.64139,21.14598 h -57.274 c -2.60178,0 -4.69717,-2.09539 -4.69717,-4.69717 0,-2.60178 2.11285,-4.69717 4.69717,-4.69717 h 41.40142 c -0.31431,-3.87647 -0.50639,-7.78786 -0.50639,-11.73418 0,-3.03832 0.0873,-6.07663 0.26192,-9.09749 z M 800.00001,541.53363 H 201.62642 v 4.43525 h 119.97855 c 38.10118,34.34692 91.7257,55.82467 151.14748,55.82467 59.42177,0 113.0463,-21.47775 151.14748,-55.82467 h 176.10008 z m -327.4571,20.32529 c 15.80273,0 31.15147,-1.69379 45.57474,-5.01149 10.65156,-2.42716 20.39513,-6.16394 29.28307,-10.87855 h 26.62892 c -28.864,16.58849 -63.6824,26.4019 -101.25973,26.4019 -37.57733,0 -72.39573,-9.81341 -101.25973,-26.4019 h 25.05737 c 32.33886,14.77249 66.86041,15.89004 76.01028,15.89004 z m 0.20954,25.23199 c -49.0496,0 -93.85602,-15.55827 -128.09819,-41.12203 h 10.12772 c 32.32139,22.00158 73.33866,35.22001 117.97047,35.22001 44.63181,0 85.64907,-13.23589 117.97047,-35.22001 h 10.12771 c -34.24216,25.56376 -79.04859,41.12203 -128.09818,41.12203 z M 182.59329,536.60946 c -4.10347,2.68908 -8.87049,4.66224 -14.17881,5.88455 -5.44801,1.25725 -11.2278,1.88585 -17.16474,1.88585 -3.12562,0 -6.89732,-0.19207 -11.21033,-0.59369 -4.24317,-0.38416 -8.60857,-1.135 -12.99142,-2.23507 -4.27809,-1.10008 -8.38156,-2.65418 -12.20565,-4.60987 -3.35263,-1.7287 -6.04171,-3.89393 -7.97995,-6.47825 l 1.08262,-12.64219 c 2.30493,1.57154 4.71463,2.96847 7.2291,4.17332 3.71932,1.78108 7.59579,3.24785 11.55957,4.31302 3.92885,1.06515 7.85771,1.86838 11.69926,2.37477 3.80662,0.50638 7.47356,0.76831 10.87857,0.76831 1.9557,0 4.12093,-0.10477 6.51317,-0.29685 2.49701,-0.20954 4.88924,-0.73338 7.07194,-1.55408 2.23508,-0.83816 4.19078,-2.02554 5.81471,-3.50978 1.85093,-1.72869 2.79385,-4.06855 2.79385,-6.98463 0,-3.50977 -1.37946,-6.3211 -4.10347,-8.34663 -2.32239,-1.72871 -5.37817,-3.19547 -9.11495,-4.36541 -3.0907,-0.92546 -6.37348,-1.74615 -9.7261,-2.42716 -3.33516,-0.681 -6.70525,-1.46677 -10.0928,-2.35731 -3.33516,-0.87308 -6.61794,-1.92077 -9.74356,-3.12563 -3.07324,-1.18738 -5.91948,-2.724 -8.52126,-4.57493 -2.88116,-2.06047 -5.18609,-4.74955 -6.84494,-7.94502 -1.65885,-3.178 -2.51446,-7.2291 -2.51446,-12.01357 0,-5.53532 1.16992,-10.37218 3.49231,-14.38835 2.35732,-4.06855 5.55279,-7.49102 9.46418,-10.16264 3.98124,-2.72401 8.60856,-4.76701 13.75973,-6.09409 5.22101,-1.32708 10.73887,-2.00809 16.37897,-2.00809 2.84624,0 6.19886,0.227 9.9531,0.64608 3.75424,0.43654 7.35133,1.29216 10.73888,2.56686 3.24785,1.20484 6.0417,2.96846 8.29425,5.22101 2.07793,2.07793 3.07324,4.76701 3.07324,8.27679 0,1.37947 -0.19208,2.77639 -0.5937,4.17332 -0.36669,1.29216 -0.94292,2.44462 -1.76362,3.45739 -0.80323,1.01277 -1.78108,1.83347 -2.98593,2.49701 -1.10008,0.59369 -2.51446,0.908 -4.2257,0.908 -2.95101,0 -5.48294,-0.97785 -7.75294,-3.00339 -2.21763,-1.97316 -3.28278,-4.73209 -3.28278,-8.48633 v -1.57154 l -1.46678,-0.52385 c -1.50169,-0.54131 -3.16054,-0.94293 -4.95909,-1.22231 -3.73677,-0.55877 -7.03701,-0.52385 -11.07064,0.0698 -2.23508,0.33177 -4.40032,0.99531 -6.46079,1.99063 -2.09539,1.01277 -3.91139,2.40969 -5.3607,4.15585 -1.57155,1.88585 -2.37478,4.33048 -2.37478,7.2291 0,3.30024 1.04769,5.98932 3.12562,7.9974 1.86839,1.79855 4.31302,3.28278 7.2291,4.34794 3.23039,1.25723 6.79256,2.13031 10.59918,2.60178 3.59709,0.43653 7.24656,0.96038 10.94842,1.55408 3.56216,0.55877 7.17671,1.39692 10.73887,2.46208 3.35263,1.01277 6.5481,2.65416 9.51657,4.87178 2.89862,2.1827 5.32578,5.0464 7.21163,8.52126 1.85093,3.43993 2.79385,7.84025 2.79385,13.11365 0,5.93693 -1.20485,11.05318 -3.57962,15.2265 -2.39224,4.19078 -5.64009,7.64817 -9.65626,10.26741 z m 79.7296,-83.67592 h -69.49711 v 10.72141 h 26.47176 v 67.96049 h 17.61874 v -67.96049 h 25.40661 z m 304.68719,78.6819 v -78.6819 h -18.35212 l -19.46967,48.61305 -20.11575,-48.61305 H 489.6378 v 78.6819 h 10.23249 v -58.863 l 24.44622,58.863 h 3.0907 l 23.64298,-59.57892 v 59.57892 z m -114.26861,-78.6819 33.52624,78.6819 h -19.32997 l -9.55149,-24.44622 H 423.7727 l -10.37218,24.44622 h -64.92217 v -78.6819 h 57.57084 v 9.51657 h -40.42357 v 21.00628 h 17.16474 v 9.98803 h -17.16474 v 26.85592 h 42.41419 l 28.79416,-67.38426 h 15.9075 z m 0.43654,43.4095 -12.01357,-30.48793 -12.97396,30.48793 h 24.97007 z m -108.69837,35.15017 0.10477,0.12223 H 323.05428 L 296.93175,491.9078 h -9.37687 v 39.70764 h -16.79805 v -78.6819 h 39.51557 c 3.24785,0 6.58302,0.33177 9.88326,0.97785 3.19547,0.62862 6.11155,1.67631 8.6784,3.14309 2.47955,1.43185 4.45271,3.30024 6.04171,5.7274 1.5017,2.32239 2.27001,5.3607 2.27001,9.0451 0,2.77639 -0.47146,5.29086 -1.41439,7.47355 -0.96039,2.1827 -2.27001,4.10348 -3.85901,5.67502 -1.64139,1.589 -3.64947,2.93355 -5.98932,3.96378 -2.39224,1.06516 -5.01148,1.88585 -7.78787,2.4097 l -3.52724,0.66354 29.89423,39.48064 z M 306.9547,481.32608 c 3.33516,0 6.14648,-0.54131 8.34664,-1.58901 1.88585,-0.908 4.12093,-2.91608 4.12093,-7.43862 0,-1.85094 -0.41908,-3.43994 -1.25723,-4.71463 -0.80324,-1.23978 -1.88586,-2.21763 -3.19547,-2.8637 -1.16993,-0.57624 -2.51447,-0.97785 -3.98125,-1.16992 -1.32708,-0.17462 -2.67162,-0.26193 -4.05108,-0.26193 h -19.39982 v 18.03782 h 19.39982 z M 576.03772,452.951 v 78.68191 h 60.53932 v -12.60727 h -42.20465 v -66.05718 h -18.33467 z m 70.44004,0 v 78.68191 h 17.8632 V 452.951 Z m 83.5013,78.68191 V 452.951 H 719.8688 v 42.09988 L 689.55549,452.951 H 673.5956 v 78.68191 h 11.89134 V 476.3146 l 41.73319,55.31831 h 2.74146 z m 43.11265,-38.15357 v -9.98802 h -17.16474 v -21.00629 h 40.42357 v -9.51657 h -57.55338 v 78.68191 h 58.98523 V 520.35272 H 755.92697 V 493.4968 h 17.16474 z m -425.25944,91.76063 c -2.60178,-2.54939 -7.57833,-6.00677 -15.2265,-10.5468 l -17.1822,-10.21501 -2.20016,3.70184 0.78577,0.47147 c 3.10816,1.85092 3.68439,2.32239 3.75424,2.39223 0.40162,0.43654 0.59369,0.87308 0.59369,1.32708 0,0.0873 -0.0698,0.61116 -1.08262,2.32239 l -13.93434,23.41599 c -0.89054,1.48423 -1.22231,1.74616 -1.23977,1.76363 -0.24447,0.15715 -0.54131,0.22699 -0.90801,0.22699 h -0.227 c -0.52384,-0.0524 -1.135,-0.27939 -1.79854,-0.681 l -3.33516,-2.02555 -2.20016,3.6844 24.25414,14.42327 c 2.88116,1.71123 5.93694,3.17801 9.09749,4.34793 3.07323,1.15247 6.00678,1.7287 8.73079,1.7287 h 0.36669 c 3.42247,-0.0524 6.70525,-0.87308 9.7261,-2.47955 3.05578,-1.60646 5.5004,-3.91139 7.24656,-6.8624 2.56686,-4.33046 3.28278,-9.14987 2.13032,-14.3185 -1.0477,-4.64478 -3.52724,-8.92287 -7.36879,-12.67711 z m -16.57105,29.57993 c -0.69846,0 -1.37946,-0.0524 -2.02554,-0.15716 -1.135,-0.19207 -2.91608,-0.82069 -5.2734,-1.88585 -2.42716,-1.08262 -4.12093,-1.92076 -5.06386,-2.47954 l -9.14987,-5.44802 16.65835,-27.99092 5.97187,3.5447 c 2.79385,1.65885 4.80193,2.91609 5.91947,3.70186 2.04301,1.44931 3.77171,3.05578 5.09879,4.74955 1.32708,1.67632 2.33985,3.59709 2.98593,5.67501 0.64608,2.07793 0.87308,4.12094 0.62861,6.07664 -0.227,1.95569 -0.99531,4.03362 -2.27,6.16395 -1.29216,2.16522 -2.79386,3.89392 -4.47017,5.15115 -1.67631,1.23979 -3.52724,2.09539 -5.5004,2.51447 -1.22231,0.26192 -2.39223,0.38417 -3.47485,0.38417 z m 59.31701,-12.76442 21.47775,5.90201 -1.13501,4.1384 -2.40969,-0.66354 c -1.2747,-0.34923 -2.21763,-0.48893 -2.82878,-0.38416 -0.52385,0.0873 -0.94293,0.29686 -1.23977,0.62863 -0.15716,0.17462 -0.57624,0.75084 -1.11754,2.724 l -6.94972,25.31931 c -0.40161,1.44931 -0.33177,2.09538 -0.26192,2.35731 0.12223,0.43654 0.34923,0.78576 0.71593,1.06516 0.227,0.17461 0.89054,0.55876 2.68908,1.04769 l 2.39224,0.64607 -1.13501,4.15586 -21.49521,-5.90202 1.13501,-4.13839 2.51446,0.69846 c 1.30962,0.36669 2.25255,0.52385 2.82878,0.43654 0.47146,-0.0524 0.8207,-0.20953 1.08262,-0.47145 0.13969,-0.1397 0.48892,-0.62862 0.94292,-2.25256 l 7.12433,-25.91299 c 0.48893,-1.76362 0.43654,-2.40969 0.40162,-2.60178 -0.0873,-0.36669 -0.29685,-0.66354 -0.66354,-0.94291 -0.29685,-0.22701 -1.01277,-0.59371 -2.67162,-1.04771 l -2.51447,-0.681 1.135,-4.13839 z m 93.17502,38.83456 c 0.76831,1.41439 1.11754,2.96847 1.06515,4.5924 -0.13969,3.54471 -2.27,6.58303 -6.33855,9.02764 -3.59709,2.16525 -8.1371,3.24785 -13.48035,3.24785 -0.52384,0 -1.03023,0 -1.57154,-0.0349 -3.12562,-0.12222 -5.91948,-0.57623 -8.3641,-1.36199 -2.1827,-0.69848 -4.52255,-1.85093 -6.98463,-3.40501 l -1.71124,3.42247 -3.9987,-0.15716 -3.33516,-16.44881 5.25593,-0.61115 0.27939,0.62861 c 1.135,2.6367 2.72401,4.90671 4.69717,6.7751 1.99062,1.88585 4.24316,3.35262 6.70524,4.36539 2.46209,1.01278 5.01148,1.57155 7.61326,1.67632 3.47485,0.17461 6.60047,-0.55877 9.25464,-2.06047 2.06046,-1.16993 3.10816,-2.53193 3.16054,-4.12094 0.0524,-1.46677 -0.57623,-2.65416 -1.9557,-3.66693 -1.53661,-1.11754 -4.43524,-2.23508 -8.60856,-3.33516 l -9.48164,-2.46208 c -5.51786,-1.43185 -9.28956,-3.14309 -11.54211,-5.18609 -2.32239,-2.11286 -3.43993,-4.54002 -3.35262,-7.21164 0.0873,-2.09539 0.96039,-4.01616 2.60178,-5.70994 1.589,-1.62393 3.98124,-2.96847 7.10686,-3.96378 3.0907,-0.99531 6.47825,-1.41439 10.0928,-1.27469 3.02085,0.10477 5.93694,0.62861 8.69587,1.53662 1.64139,0.54131 3.19547,1.25723 4.62732,2.13031 l 1.50169,-2.39224 3.96378,0.1397 4.06855,14.31849 -5.22101,0.99532 -0.33177,-0.55878 c -2.02555,-3.45739 -4.80194,-6.25124 -8.29425,-8.32917 -2.84624,-1.7287 -6.07664,-2.65416 -9.6388,-2.79386 -2.13031,-0.10476 -4.05109,0.1397 -5.76232,0.64608 -1.64139,0.48893 -2.89863,1.16993 -3.71932,1.99062 -0.76831,0.78578 -1.15246,1.53662 -1.18739,2.32239 -0.0349,0.69847 0.227,1.39693 0.75085,2.0954 0.57623,0.7683 1.48424,1.48423 2.74147,2.11285 1.30962,0.681 3.5447,1.43185 6.6354,2.25254 l 9.90072,2.6367 c 1.25723,0.33177 3.00339,0.92546 5.36071,1.79854 2.35731,0.89054 4.2257,1.83347 5.57024,2.79386 1.37947,0.99531 2.46209,2.21762 3.21293,3.61455 z m 84.46168,-11.54211 5.16863,1.25725 -0.54131,1.04769 c -1.135,2.18269 -2.47954,4.15585 -4.01616,5.84963 -2.39224,2.70655 -5.06386,4.9591 -7.94502,6.67033 -2.8637,1.7287 -6.21633,3.05578 -9.93565,3.9987 -3.0907,0.76831 -6.11155,1.15247 -8.92287,1.15247 -4.69716,0 -9.09748,-1.08262 -13.0438,-3.19547 -5.32578,-2.84624 -8.69587,-7.07194 -10.05787,-12.53742 -0.99531,-4.01616 -0.69847,-7.99741 0.908,-11.85642 1.589,-3.80662 4.26063,-7.22909 7.96248,-10.14518 3.6844,-2.91608 7.97995,-4.99401 12.76442,-6.1814 2.56685,-0.62862 5.0464,-0.96039 7.36879,-0.97785 v 0 c 2.13031,0 4.24317,0.227 6.4084,0.69847 l 0.48893,-2.5494 3.87647,-0.96038 8.94033,13.42796 -4.80194,2.33985 -0.47146,-0.454 c -2.56685,-2.53193 -4.4527,-4.19078 -5.62263,-4.95909 -1.86839,-1.20485 -4.08601,-2.00808 -6.54809,-2.37478 -2.47955,-0.36669 -5.09879,-0.227 -7.82279,0.454 -3.19547,0.78577 -6.00679,2.20016 -8.34664,4.17332 -2.32239,1.9557 -4.03363,4.41778 -5.06386,7.33387 -1.03023,2.89862 -1.15247,5.93694 -0.36669,9.06256 0.80323,3.21293 2.37477,5.90202 4.64478,7.9974 2.30493,2.09539 5.08132,3.49231 8.27679,4.13839 3.23039,0.64608 6.56555,0.55877 9.90072,-0.26192 3.16054,-0.78577 6.26871,-2.30493 9.23718,-4.52255 2.96847,-2.21762 5.39563,-4.90671 7.19417,-8.01487 l 0.34923,-0.59369 z m 76.32459,-27.48452 c -1.97316,4.15586 -5.57025,7.87517 -10.72141,11.03572 -2.6367,1.62392 -5.23848,2.79386 -7.70056,3.50977 -2.21762,0.62862 -4.80194,0.97785 -7.70056,1.04771 l 0.47146,3.78915 -3.40501,2.09539 -11.9088,-11.83895 4.03363,-3.42247 0.57623,0.36669 c 2.4097,1.55408 4.99401,2.56686 7.6831,3.02085 2.70654,0.454 5.39563,0.41908 8.01487,-0.0873 2.61923,-0.50637 5.04639,-1.46677 7.26401,-2.82877 2.96847,-1.81601 5.16863,-4.12094 6.5481,-6.84494 1.06516,-2.13032 1.18739,-3.82409 0.34923,-5.1861 -0.76831,-1.23977 -1.9557,-1.88585 -3.66693,-1.97315 h -0.27939 c -1.90331,0 -4.83686,0.66354 -8.71333,1.99062 l -9.25464,3.21293 c -5.32578,1.85093 -9.55149,2.51447 -12.46757,2.09539 -3.10816,-0.47145 -5.39563,-1.86839 -6.79256,-4.1384 -1.10008,-1.78108 -1.43185,-3.85901 -1.01277,-6.18139 0.40162,-2.23509 1.65885,-4.67971 3.70186,-7.24657 2.02554,-2.53193 4.60986,-4.78447 7.68309,-6.67031 2.56686,-1.57155 5.2734,-2.77639 8.08472,-3.54471 1.65885,-0.47147 3.35262,-0.73339 5.02894,-0.80324 l -0.0873,-2.82877 3.37008,-2.06047 11.33257,9.63879 -3.78916,3.71932 -0.57623,-0.27938 c -3.59709,-1.74616 -7.47356,-2.56686 -11.52465,-2.32239 -3.33516,0.15715 -6.54809,1.16992 -9.56895,3.02085 -1.79854,1.11754 -3.30024,2.37478 -4.43524,3.75424 -1.10008,1.32708 -1.76362,2.56685 -1.99062,3.71932 -0.20954,1.08262 -0.10477,1.92077 0.29684,2.58431 0.3667,0.5937 0.96039,1.03024 1.79855,1.32708 0.89054,0.31431 2.043,0.40162 3.43993,0.24447 1.46677,-0.17462 3.73678,-0.78578 6.7751,-1.81601 l 9.69117,-3.30024 c 1.22232,-0.41908 3.0034,-0.89054 5.46548,-1.46677 2.27001,-0.52385 4.12093,-0.78577 5.69248,-0.78577 h 0.48892 c 1.69378,0.0698 3.26532,0.48892 4.66225,1.23977 1.43185,0.75085 2.58431,1.85093 3.43993,3.23039 1.85093,3.02086 1.76362,6.74017 -0.26193,11.01826 z"
     id="path1"
     style="stroke-width:1" />
</svg>
