<?xml version="1.0" encoding="UTF-8" standalone="no"?>
<!-- Created with Inkscape (http://www.inkscape.org/) -->

<svg
   version="1.1"
   id="svg1"
   width="900"
   height="900"
   viewBox="0 0 900.00001 900"
   sodipodi:docname="ThoughtSpace.svg"
   inkscape:version="1.4 (86a8ad7, 2024-10-11)"
   xmlns:inkscape="http://www.inkscape.org/namespaces/inkscape"
   xmlns:sodipodi="http://sodipodi.sourceforge.net/DTD/sodipodi-0.dtd"
   xmlns="http://www.w3.org/2000/svg"
   xmlns:svg="http://www.w3.org/2000/svg">
  <defs
     id="defs1" />
  <sodipodi:namedview
     id="namedview1"
     pagecolor="#ffffff"
     bordercolor="#000000"
     borderopacity="0.25"
     inkscape:showpageshadow="2"
     inkscape:pageopacity="0.0"
     inkscape:pagecheckerboard="0"
     inkscape:deskcolor="#d1d1d1"
     inkscape:zoom="0.81825381"
     inkscape:cx="493.12328"
     inkscape:cy="446.68292"
     inkscape:window-width="1920"
     inkscape:window-height="991"
     inkscape:window-x="-9"
     inkscape:window-y="-9"
     inkscape:window-maximized="1"
     inkscape:current-layer="g1" />
  <g
     inkscape:groupmode="layer"
     inkscape:label="Image"
     id="g1">
    <path
       style="fill:#000000"
       d="m 456.79694,787.62733 c -0.41567,-0.67256 -1.88517,-20.31128 -4.35454,-58.195 -1.01591,-15.58546 -1.11511,-20.95566 -0.39533,-21.40051 1.05399,-0.6514 36.78148,-2.8751 37.33296,-2.32363 0.1877,0.18771 0.57965,2.62194 0.871,5.4094 0.64013,6.12437 1.37559,5.7616 -13.2797,6.55034 l -10.66309,0.57389 0.004,3.03561 c 0.002,1.66958 0.24858,6.72424 0.54711,11.23257 l 0.54278,8.19696 9.9069,-0.57948 9.90689,-0.57947 v 5.84671 5.84671 l -8.90897,0.50451 c -4.89993,0.27748 -9.16496,0.80461 -9.47785,1.1714 -0.55041,0.64525 0.68544,22.07593 1.31136,22.74015 0.17048,0.1809 5.47141,-0.0791 11.77985,-0.5777 6.30844,-0.49864 11.77423,-0.71853 12.14619,-0.48864 0.37197,0.22989 0.6763,2.842 0.6763,5.8047 0,5.02508 -0.12633,5.38754 -1.88172,5.3989 -1.03495,0.007 -9.03226,0.56328 -17.7718,1.23684 -18.93283,1.45915 -17.78222,1.42168 -18.29267,0.59574 z m -50.70375,-2.73673 c -4.82975,-0.8753 -12.73297,-2.19761 -17.56272,-2.93848 -4.82975,-0.74086 -8.89205,-1.45317 -9.02732,-1.5829 -0.13528,-0.12973 2.6873,-18.00609 6.2724,-39.72524 l 6.51836,-39.48938 5.01792,0.54919 c 7.03607,0.77005 8.78136,1.29214 8.78136,2.62685 0,0.63934 -2.44624,15.72481 -5.43608,33.52327 -2.98985,17.79845 -5.43608,32.63066 -5.43608,32.96046 0,0.3298 2.72849,1.03762 6.06332,1.57294 3.33483,0.53532 8.45319,1.36721 11.37413,1.84865 l 5.31082,0.87535 -0.57853,4.63042 c -0.63731,5.10084 -1.16371,6.91241 -1.97845,6.80874 -0.29577,-0.0376 -4.48938,-0.78458 -9.31913,-1.65987 z m 130.9927,-42.79025 c -5.45999,-17.60262 -10.21496,-32.31886 -10.5666,-32.70277 -0.35163,-0.38391 -3.54875,0.11837 -7.10471,1.11617 -3.55596,0.99781 -6.74829,1.50008 -7.09406,1.11618 -1.01237,-1.12404 -3.36784,-8.79001 -2.92233,-9.51086 0.22398,-0.36242 3.69834,-1.6656 7.72078,-2.89597 9.06904,-2.77399 18.78048,-5.83164 26.90659,-8.47154 7.01847,-2.28007 6.84354,-2.3639 8.84699,4.23968 1.47151,4.8503 1.61598,4.69084 -6.48665,7.15989 -3.39812,1.03548 -5.64516,2.17792 -5.64516,2.8701 0,0.63245 4.3324,15.01387 9.62755,31.95871 5.29515,16.94484 9.71719,31.33285 9.82676,31.97335 0.19184,1.12144 -5.08448,3.39005 -10.75298,4.62336 l -2.42893,0.52846 z m -206.67968,23.73419 c -7.59807,-3.35726 -7.33468,-2.91364 -4.93474,-8.31142 6.68472,-15.03477 11.37058,-26.21635 11.09919,-26.4853 -0.17061,-0.16908 -3.29698,-1.66778 -6.94748,-3.33044 -5.35611,-2.43949 -6.8345,-2.81671 -7.65903,-1.9542 -0.56196,0.58785 -3.75275,7.56075 -7.09064,15.49534 -3.33789,7.93459 -6.51938,14.42652 -7.06998,14.42652 -1.25578,0 -12.10461,-4.88569 -12.10461,-5.45122 0,-0.22916 3.20685,-7.84638 7.12632,-16.92716 3.91948,-9.08078 10.95223,-25.44868 15.62835,-36.37311 4.67611,-10.92443 8.9441,-19.86261 9.48441,-19.86261 1.20886,0 12.08589,4.88317 12.08589,5.42588 0,0.21522 -2.82258,6.95719 -6.2724,14.98215 -3.44982,8.02497 -6.2724,15.11527 -6.2724,15.75624 0,1.31759 12.82714,6.92916 14.07543,6.15767 0.43698,-0.27006 1.75251,-2.84653 2.9234,-5.72548 3.10454,-7.63331 10.36646,-24.09715 10.8359,-24.56659 0.29806,-0.29805 11.26213,4.06435 12.96427,5.15824 0.1306,0.0839 -3.58335,8.95257 -8.25324,19.70806 -4.66989,10.7555 -9.33638,21.62534 -10.36998,24.15521 -1.0336,2.52987 -3.85098,9.11589 -6.26085,14.6356 -2.40986,5.51972 -4.91173,11.25896 -5.55971,12.75389 -0.64798,1.49492 -1.45535,2.68021 -1.79416,2.63398 -0.33881,-0.0462 -2.87408,-1.08179 -5.63394,-2.30125 z m 279.45189,-19.5681 c -0.64465,-1.03494 -5.29793,-9.4086 -10.34063,-18.60812 -5.04269,-9.19953 -13.08575,-23.858 -17.87347,-32.5744 -4.78771,-8.71639 -8.82028,-16.11888 -8.96126,-16.44997 -0.39921,-0.93758 10.60899,-6.80877 11.86351,-6.32737 0.61384,0.23555 7.05956,11.28068 14.32384,24.54473 7.26427,13.26404 15.75074,28.7098 18.85882,34.3239 4.03176,7.28253 5.37392,10.41982 4.68389,10.9486 -1.48881,1.14089 -10.30547,6.02435 -10.87645,6.02435 -0.27838,0 -1.0336,-0.84677 -1.67825,-1.88172 z M 242.80167,716.71218 c -2.64486,-2.10374 -4.80884,-3.99144 -4.80884,-4.19489 0,-0.20345 9.22043,-12.40297 20.48985,-27.11006 11.26941,-14.70708 20.48984,-27.05012 20.48984,-27.42899 0,-0.37886 -2.45495,-2.65612 -5.45545,-5.06056 -4.8014,-3.8476 -5.3278,-4.54551 -4.39068,-5.82121 3.79616,-5.16777 5.23056,-6.83362 5.88415,-6.83362 0.40776,0 3.44183,2.05897 6.74236,4.57549 21.99809,16.77259 26.9409,20.66162 27.19392,21.39635 0.15672,0.45507 -1.12616,2.67775 -2.85084,4.9393 l -3.13579,4.11192 -3.42155,-2.42744 c -1.88186,-1.33508 -4.36242,-3.1854 -5.51236,-4.1118 -1.14994,-0.92641 -2.46714,-1.67739 -2.92712,-1.66885 -0.45997,0.009 -7.04599,8.17546 -14.6356,18.14871 -7.58961,9.97325 -16.74023,22.0009 -20.33473,26.72812 -3.5945,4.72722 -6.98159,8.59215 -7.52688,8.58873 -0.54529,-0.003 -3.15541,-1.72746 -5.80028,-3.8312 z m 412.51494,-6.29475 c -3.14019,-1.2415 -7.94335,-6.20526 -23.3754,-24.15696 -15.18047,-17.65907 -17.77103,-21.65759 -17.86018,-27.56721 -0.0694,-4.60253 3.34596,-11.44452 7.55974,-15.14426 3.30347,-2.90049 9.58384,-6.18899 13.39218,-7.01236 5.21298,-1.12705 13.32169,3.12373 18.68151,9.79331 3.13384,3.89964 3.00076,4.33176 -2.86517,9.30362 l -3.91214,3.31587 -4.41461,-4.74353 c -5.33832,-5.73608 -8.36057,-6.29821 -12.35987,-2.29891 -3.06057,3.06057 -3.14716,6.09411 -0.28121,9.85157 6.79866,8.91349 30.11955,35.13435 32.12483,36.11956 2.112,1.03764 2.66956,0.98782 5.14864,-0.46004 3.46539,-2.02389 5.31671,-5.18217 4.61342,-7.8703 -0.29252,-1.11806 -2.42028,-4.22729 -4.72836,-6.9094 -2.30807,-2.6821 -4.1965,-5.19333 -4.1965,-5.58049 0,-0.38717 2.11756,-2.51304 4.7057,-4.72415 l 4.7057,-4.02021 4.48646,5.00094 c 2.46755,2.75052 5.24245,6.53105 6.16646,8.40119 2.00157,4.05108 2.21431,10.84661 0.47024,15.02076 -1.63312,3.90861 -8.38159,10.5047 -13.06265,12.76769 -4.10579,1.98489 -11.19633,2.41665 -14.99879,0.91331 z M 452.5281,689.18759 c -1.21233,-5.40759 -4.18111,-12.48393 -7.19158,-17.14171 -3.45456,-5.34488 -16.1076,-18.38353 -32.88627,-33.88849 -13.49205,-12.46784 -25.38021,-25.59149 -28.06687,-30.98373 -1.7233,-3.45875 -2.12959,-5.75221 -2.50896,-14.1629 -0.24897,-5.51971 -0.75714,-10.50627 -1.12927,-11.08124 -1.2744,-1.96906 -4.98357,-1.0429 -12.18712,3.04306 -7.77172,4.40823 -15.64424,6.7837 -22.48179,6.7837 -2.36214,0 -8.3596,-0.78032 -13.32769,-1.73405 -8.74899,-1.67955 -27.48471,-6.30461 -28.77847,-7.1042 -1.40034,-0.86546 -19.70402,-4.56294 -28.95873,-5.84988 -11.3203,-1.57418 -16.5998,-1.19981 -23.68607,1.6796 -2.73309,1.11055 -4.96925,1.81606 -4.96925,1.5678 0,-0.24827 1.85501,-2.48107 4.12224,-4.96178 7.90365,-8.64785 11.25038,-18.74615 16.87608,-50.92127 3.81643,-21.82736 7.39054,-36.88374 10.27604,-43.28908 3.00597,-6.67277 7.2462,-10.89869 17.93145,-17.87097 5.36512,-3.50081 9.88199,-6.47839 10.03749,-6.61684 0.1555,-0.13845 -0.55088,-1.37923 -1.56973,-2.7573 l -1.85245,-2.50558 1.82301,-2.56019 1.82302,-2.5602 -4.85305,-3.07213 c -11.35625,-7.18887 -13.85794,-9.07594 -17.40038,-13.12548 -6.78059,-7.75123 -10.76605,-19.06229 -16.2589,-46.14403 -3.19151,-15.73531 -9.11049,-35.37562 -12.93657,-42.92602 -1.09011,-2.15123 -4.09285,-5.90767 -6.67277,-8.34764 -2.57992,-2.43998 -4.69076,-4.56636 -4.69076,-4.72529 0,-0.15893 1.78764,0.25665 3.97252,0.92352 10.88216,3.32145 22.96914,2.07858 45.09903,-4.63741 27.62418,-8.3834 33.92735,-10.13911 42.45047,-11.82435 6.00408,-1.18716 11.22753,-1.7029 15.21011,-1.50179 6.17399,0.31177 8.52344,1.26266 22.6682,9.17448 5.25603,2.93993 6.34298,1.89084 7.13715,-6.88856 1.65859,-18.33531 4.08341,-23.95731 15.52144,-35.98678 4.34686,-4.57162 13.1561,-13.05398 19.57609,-18.84968 13.01652,-11.75077 27.61262,-27.62478 30.667,-33.35195 1.10183,-2.066 2.62425,-6.47731 3.38316,-9.80291 l 1.37982,-6.04655 2.23845,7.10873 c 3.80776,12.09241 10.37198,20.11586 34.90206,42.66078 18.14715,16.67854 28.56807,28.06354 31.80217,34.74429 1.59249,3.28965 2.07939,5.95719 2.44663,13.40434 0.65124,13.20606 1.66851,14.0747 10.68125,9.12068 6.4731,-3.55806 15.81542,-6.26223 21.63466,-6.26223 6.66207,0 29.94278,4.94471 43.41139,9.22036 9.22654,2.929 28.76226,6.11869 37.63441,6.14475 6.75909,0.0199 9.2113,-0.32847 12.78485,-1.81603 2.4319,-1.01233 4.82181,-1.8406 5.31092,-1.8406 0.4891,0 -1.02027,2.08935 -3.35415,4.64299 -2.33389,2.55364 -5.41465,7.09706 -6.84615,10.09649 -2.89262,6.06094 -6.73672,20.75294 -8.74358,33.41758 -3.99488,25.21045 -8.84708,45.7903 -12.46597,52.87246 -2.79388,5.4676 -6.27846,8.76177 -15.95712,15.08512 -4.59977,3.00516 -8.50367,5.56552 -8.67534,5.68969 -0.17168,0.12417 1.25208,2.00281 3.16389,4.17475 l 3.47603,3.94897 -3.52989,3.5967 c -1.94144,1.97819 -3.3652,3.73562 -3.1639,3.9054 0.2013,0.16978 3.61045,2.44898 7.57588,5.0649 13.02841,8.59458 17.95787,14.91324 21.93314,28.11428 2.40379,7.9825 5.88,23.98894 7.26514,33.45281 1.68718,11.52755 9.27097,36.33458 12.59508,41.19925 1.01756,1.48916 3.71738,4.64479 5.99958,7.01252 l 4.14946,4.30496 -5.72291,-1.58692 c -11.87245,-3.29213 -22.58104,-1.98206 -52.17489,6.38299 -21.31699,6.0255 -35.25624,9.30259 -42.90016,10.08573 -6.94836,0.71188 -14.39459,-1.22738 -21.7417,-5.66229 -4.88693,-2.94989 -5.96048,-3.30218 -7.67807,-2.51959 -1.5737,0.71703 -2.09994,1.7609 -2.48362,4.92662 -2.28529,18.85576 -4.01885,22.22578 -19.27451,37.46964 -6.44465,6.43966 -16.48732,16.13245 -22.31703,21.53951 -11.54499,10.70799 -22.77629,23.48947 -24.71244,28.12333 -0.67361,1.61217 -1.90513,5.5868 -2.73673,8.83252 -1.36807,5.33959 -1.56553,5.66248 -2.07447,3.39234 z m 1.71694,-45.38318 c 0.49486,-0.33794 1.81206,-1.94409 2.92712,-3.56921 8.16244,-11.89631 16.09106,-20.78288 23.4796,-26.31643 9.9669,-7.46459 14.12883,-11.62097 16.46144,-16.4395 1.77058,-3.65754 4.34214,-15.20303 5.51246,-24.74928 l 0.53828,-4.39068 -9.4374,0.0135 -9.43741,0.0135 -12.96297,11.3828 c -7.12962,6.26054 -14.93907,13.07463 -17.35431,15.14242 l -4.39136,3.75963 -7.15397,-6.58365 c -3.93468,-3.62101 -11.36717,-10.44444 -16.51665,-15.16317 l -9.36268,-8.57953 -7.52688,0.21632 -7.52688,0.21632 0.26937,5.01792 c 0.46424,8.64795 2.52532,17.33831 5.58841,23.56303 3.03515,6.16794 6.70465,9.76447 20.66354,20.25268 4.42563,3.32525 15.91445,16.44423 19.48838,22.25359 2.555,4.15311 4.65369,5.38574 6.74191,3.95972 z m 123.95256,-81.6121 c 7.83231,-3.01168 18.88499,-5.28454 30.28508,-6.22778 6.9198,-0.57255 7.11561,-0.64783 7.36799,-2.83253 0.1426,-1.2344 -0.31875,-3.36213 -1.02523,-4.7283 -0.70647,-1.36617 -3.0024,-7.1304 -5.10206,-12.80941 -3.1733,-8.58289 -4.02016,-12.16031 -5.01796,-21.19763 -0.66022,-5.97969 -1.4449,-11.98619 -1.74374,-13.34777 -1.69379,-7.71739 -6.31915,-13.82687 -17.21976,-22.745 l -5.7955,-4.74147 -5.80356,5.75908 -5.80355,5.75909 v 39.95672 c 0,35.39492 0.14682,39.95672 1.28601,39.95672 0.7073,0 4.56483,-1.26077 8.57228,-2.80172 z M 335.00597,526.20225 v -37.95547 l -7.62899,-8.44454 -7.629,-8.44454 -2.61593,1.82053 c -1.43876,1.0013 -5.52963,4.70907 -9.09083,8.2395 -9.54134,9.45888 -11.04811,13.1541 -13.1107,32.15281 -1.32337,12.18968 -2.21149,16.78878 -4.68151,24.24308 -1.67658,5.05974 -3.58245,10.03306 -4.23528,11.05182 -1.46612,2.28792 -1.52576,4.77542 -0.14157,5.90389 0.57497,0.46875 5.56153,1.11096 11.08125,1.42714 12.17437,0.69735 23.36858,2.8282 30.10752,5.73105 8.78282,3.78326 7.94504,7.55034 7.94504,-35.72527 z m 227.31183,36.11556 c 0.7697,-0.7697 1.00359,-25.0053 1.00359,-103.99339 0,-56.6444 -0.24453,-106.43472 -0.5434,-110.64517 l -0.54339,-7.65536 H 451.54741 340.86022 v 111.0912 c 0,61.10017 0.25089,111.3421 0.55754,111.64875 0.30665,0.30666 49.9088,0.55755 110.227,0.55755 84.18337,0 109.90268,-0.23322 110.67304,-1.00358 z M 355.91398,451.25801 v -96.18036 h 95.74273 95.74273 l 0.45447,1.88172 c 0.24996,1.03495 0.35122,44.22044 0.22501,95.96775 l -0.22946,94.08603 -95.96774,0.2126 -95.96774,0.21261 z m 107.04898,83.60195 v -5.04446 l -9.82676,0.23562 -9.82676,0.23562 -0.26184,3.65004 c -0.43135,6.01295 -0.50934,5.96764 10.27143,5.96764 h 9.64393 z m 42.9854,-15.2363 c 0.70591,-3.33483 2.41714,-12.08483 3.80272,-19.44445 6.02895,-32.02314 8.40902,-44.8115 8.40902,-45.18249 0,-0.21833 -11.4785,-0.39696 -25.50777,-0.39696 h -25.50777 v 10.03584 c 0,8.99037 0.15247,10.03859 1.46356,10.06217 0.80496,0.0145 6.81694,0.035 13.35995,0.0456 6.54301,0.0106 12.10867,0.36275 12.36813,0.78256 0.43966,0.71139 -0.87477,5.80095 -4.63905,17.96272 -0.85422,2.75986 -1.96456,6.61739 -2.46741,8.57228 l -0.91428,3.55437 h -34.93428 -34.93427 l -3.12772,-9.42666 c -1.72025,-5.18466 -3.44706,-9.94335 -3.83735,-10.57486 -0.55144,-0.89224 -2.41455,-1.05098 -8.35801,-0.7121 -4.20661,0.23985 -7.86158,0.6493 -8.12217,0.90988 -0.38831,0.38831 4.9552,24.45569 8.15694,36.73922 l 0.81746,3.1362 h 51.34441 51.34441 z m -43.18499,-51.85186 -0.21857,-33.66188 -9.00577,-0.23753 c -6.75175,-0.17808 -9.09938,0.0312 -9.37976,0.83632 -0.20569,0.59061 -0.48105,15.84556 -0.61191,33.89987 l -0.23792,32.82603 9.83625,-4.6e-4 9.83625,-4.6e-4 z M 439.546,464.6356 v -10.03584 h -14.58625 c -9.23654,0 -14.78426,-0.32039 -15.12613,-0.87356 -0.5421,-0.87713 -6.2178,-21.57737 -6.2384,-22.75249 -0.006,-0.34498 25.91649,-0.62724 57.60563,-0.62724 51.76732,0 57.66815,-0.1343 58.12425,-1.32288 0.71931,-1.87449 0.6075,-17.29713 -0.13385,-18.46218 -0.4522,-0.71066 -17.61763,-1.12345 -64.59292,-1.55335 l -63.97706,-0.58548 -4.47561,4.59275 -4.4756,4.59276 1.77722,12.01435 c 2.40492,16.25783 5.74843,38.07476 6.42326,41.91281 l 0.55142,3.1362 h 24.56202 24.56202 z m 23.41696,-68.57825 v -9.19953 h 17.35315 17.35314 l 8.92732,9.31277 8.92733,9.31277 5.90975,-5.34025 c 3.25036,-2.93713 5.91285,-5.52842 5.91664,-5.75841 0.004,-0.22998 -4.1944,-5.12246 -9.32932,-10.87216 -5.13492,-5.7497 -10.96908,-12.28387 -12.9648,-14.52037 l -3.62858,-4.06636 -2.88662,1.36979 c -2.58097,1.22475 -7.57482,1.34538 -47.16178,1.13925 -40.77997,-0.21235 -44.40263,-0.34595 -45.88987,-1.69234 -1.56406,-1.41592 -2.0587,-1.03039 -15.76826,12.29012 l -14.15356,13.75189 6.4237,6.31802 c 3.53304,3.4749 6.84074,6.31801 7.35045,6.31801 0.50972,0 4.77004,-3.51192 9.46739,-7.80426 4.69735,-4.29234 9.36222,-8.24396 10.36637,-8.78136 1.20941,-0.64726 7.20848,-0.97711 17.7708,-0.97711 h 15.94507 v 8.64198 c 0,4.75308 0.25089,8.89287 0.55755,9.19952 0.30665,0.30665 4.82277,0.55755 10.03584,0.55755 h 9.47829 z m -134.72892,25.81431 6.77193,-7.63849 V 375.78339 337.3336 l -2.29988,0.57164 c -1.26493,0.3144 -6.43966,2.18572 -11.4994,4.1585 -9.58385,3.73671 -21.81862,6.32335 -29.90939,6.32335 -6.20265,0 -9.02574,2.07494 -7.58143,5.57225 0.53895,1.30504 3.09958,7.45344 5.6903,13.66312 3.4949,8.37691 4.92391,13.01678 5.53782,17.98088 1.47012,11.88736 3.26888,20.51868 5.07825,24.36795 2.43025,5.17014 17.40377,19.44146 20.47584,19.5156 0.53022,0.0128 4.0114,-3.41406 7.73596,-7.61523 z m 262.97845,-0.93379 c 10.57989,-10.67184 11.80951,-13.39971 13.4771,-29.89845 0.72062,-7.12963 1.93463,-15.59737 2.69781,-18.8172 1.57681,-6.65255 5.83984,-18.83735 7.00774,-20.02987 1.09501,-1.1181 0.96766,-4.11749 -0.22549,-5.31063 -0.55197,-0.55198 -2.90412,-1.00721 -5.227,-1.01164 -9.88171,-0.0188 -26.17421,-2.46493 -32.87565,-4.93583 -3.69514,-1.36244 -6.94552,-2.25008 -7.22306,-1.97254 -0.27755,0.27755 -0.50463,17.17549 -0.50463,37.55098 v 37.04635 l 6.84507,7.5574 c 3.76479,4.15657 7.18566,7.55739 7.60194,7.55739 0.41627,0 4.20805,-3.48118 8.42617,-7.73596 z M 419.56895,331.02179 c 2.01784,-2.1913 9.65604,-11.03538 16.97377,-19.65353 7.31774,-8.61814 13.57421,-15.66934 13.90327,-15.66934 0.32906,0 7.89021,8.17502 16.80255,18.16671 8.91235,9.9917 16.86287,18.83578 17.66783,19.65353 2.05747,2.09015 16.29215,2.2104 17.08498,0.14432 0.66847,-1.74201 -1.0031,-15.21552 -2.68569,-21.64761 -2.98631,-11.41589 -7.01336,-16.33849 -23.38973,-28.59122 -5.9092,-4.42124 -14.10625,-13.47108 -19.3722,-21.38762 -4.54517,-6.83296 -6.61681,-7.37528 -9.58416,-2.50896 -3.14606,5.15939 -14.28974,18.89581 -17.87757,22.03705 -1.83991,1.61088 -6.67375,5.49809 -10.74186,8.63825 -8.35816,6.4516 -12.38731,11.90311 -14.34091,19.40348 -1.71741,6.59357 -4.01698,22.71361 -3.45069,24.18935 0.35688,0.93001 2.18445,1.20977 7.90292,1.20977 h 7.43869 z M 195.13142,672.9016 c -2.18488,-2.74008 -3.97252,-5.23559 -3.97252,-5.54556 0,-0.30998 2.10905,-2.96584 4.68677,-5.9019 4.12718,-4.70093 4.55313,-5.51083 3.56753,-6.78331 -0.92625,-1.19585 -6.99934,-8.70871 -9.19024,-11.36901 -0.32815,-0.39847 -3.40298,0.82465 -6.83295,2.71804 -3.42997,1.89338 -6.41672,3.44252 -6.63722,3.44252 -0.2205,0 -2.15727,-2.23557 -4.30393,-4.96793 l -3.90303,-4.96793 5.24322,-2.88589 c 20.91125,-11.50968 66.00136,-35.68483 66.55729,-35.68483 0.37528,0 3.4394,3.44333 6.80917,7.65185 5.71783,7.14103 6.04919,7.77426 4.96357,9.48544 -1.61077,2.53894 -51.90849,59.80579 -52.52025,59.79733 -0.27219,-0.004 -2.28252,-2.24874 -4.46741,-4.98882 z m 26.76069,-40.367 c 7.01378,-7.86388 12.60015,-14.45014 12.41415,-14.63614 -0.186,-0.18599 -3.47831,1.43053 -7.31625,3.59228 -24.53415,13.81905 -27.49304,15.64716 -26.80823,16.56306 3.86211,5.1654 7.23764,8.88881 8.01335,8.83918 0.51956,-0.0332 6.6832,-6.49451 13.69698,-14.35838 z m 204.27276,34.75698 c -23.47818,-3.84109 -31.50303,-5.68002 -45.49417,-10.42515 -30.73408,-10.42354 -60.721,-29.08156 -83.72801,-52.09601 -9.81683,-9.82 -16.74979,-17.85857 -16.02631,-18.58206 0.59432,-0.59431 14.36228,2.5251 31.27906,7.08692 10.78586,2.90854 12.34773,3.57439 16.7264,7.13069 15.91232,12.92381 39.72217,26.08744 59.09765,32.67302 10.63125,3.61349 10.88979,3.76203 18.81721,10.81132 4.42082,3.93112 11.79423,10.9328 16.38536,15.5593 8.33923,8.40347 8.46772,8.74585 2.94281,7.84197 z m 49.3429,-0.61115 c 0,-2.50228 31.50232,-31.00359 35.05297,-31.71372 4.57797,-0.91559 22.14613,-8.1921 31.01632,-12.84657 10.04536,-5.27111 20.12256,-11.69162 29.23421,-18.62605 7.88483,-6.00076 11.50236,-7.85353 19.33724,-9.90384 3.41414,-0.89344 10.8392,-2.99893 16.50014,-4.67886 5.66095,-1.67994 12.05268,-3.29567 14.20385,-3.59052 l 3.91123,-0.53609 -3.74686,4.53115 c -24.86328,30.06764 -58.86691,53.75038 -96.06497,66.90702 -14.17993,5.01532 -24.02212,7.313 -47.56241,11.10352 -1.03495,0.16665 -1.88172,-0.12407 -1.88172,-0.64604 z m 235.00597,-13.12816 c -2.84328,-1.11785 -10.87216,-5.9979 -10.87216,-6.60823 0,-0.27075 1.69091,-2.81609 3.75758,-5.6563 l 3.75759,-5.16403 3.08092,2.09077 c 5.64369,3.82991 9.57057,3.56102 12.46302,-0.85342 2.16454,-3.3035 1.77143,-6.29278 -1.17357,-8.92414 -4.80194,-4.29053 -7.87739,-4.60007 -19.52886,-1.96551 -14.43358,3.26364 -17.3634,3.69875 -21.17389,3.14461 -7.65152,-1.11274 -15.65925,-6.58004 -18.87777,-12.88885 -3.35748,-6.58121 -1.14195,-15.83998 5.56741,-23.26645 4.15708,-4.60139 8.45618,-6.72236 13.62587,-6.72236 4.07059,0 9.80669,2.00379 12.97781,4.53353 1.52983,1.22042 1.47179,1.42854 -1.67264,5.99747 -1.79161,2.60324 -3.71835,4.91059 -4.28165,5.12745 -0.56329,0.21686 -2.30126,-0.39499 -3.86215,-1.35968 -4.44577,-2.74764 -6.84312,-2.17097 -9.99674,2.40464 -2.01393,2.92204 -1.78601,4.57174 1.08309,7.83948 1.67564,1.90844 3.77733,3.17631 6.33125,3.8194 4.223,1.06336 6.22112,0.83074 18.07429,-2.10421 15.38574,-3.80965 25.05345,-2.10855 32.0539,5.64011 5.71554,6.32643 6.69457,11.49032 3.69726,19.50134 -4.29352,11.47545 -16.27772,18.8556 -25.03056,15.41438 z M 175.68698,571.94266 c -3.53702,-0.74113 -8.40653,-4.99585 -10.80247,-9.43865 -5.49134,-10.18257 -1.6535,-21.78314 8.17186,-24.70096 10.86222,-3.22574 21.44781,5.75145 21.44781,18.18898 0,11.21901 -8.20515,18.17421 -18.8172,15.95063 z m 549.80298,-23.11272 c -9.86339,-5.20921 -11.49315,-19.08304 -3.33339,-28.3765 3.33372,-3.79689 8.89123,-6.02119 13.49979,-5.40305 16.3679,2.1954 17.89772,26.96706 2.10827,34.13813 -4.56942,2.07529 -7.84756,1.97952 -12.27467,-0.35858 z m -80.87752,-9.97092 c -1.39229,-5.17473 -3.38559,-14.24083 -4.42954,-20.14689 -1.61138,-9.11617 -1.74633,-11.26385 -0.89337,-14.21744 5.88081,-20.36392 8.10336,-39.39068 7.42933,-63.60102 -0.4964,-17.83014 -1.48259,-25.02759 -5.63696,-41.13984 l -2.56068,-9.93129 2.15928,-12.14544 c 3.35724,-18.88374 5.5947,-29.28902 6.40587,-29.79034 1.47197,-0.90973 10.96811,21.64913 15.71941,37.34278 14.38798,47.52375 11.81773,100.9076 -7.06454,146.72984 -3.04281,7.38409 -7.41407,16.30825 -7.98816,16.30825 -0.33505,0 -1.74834,-4.23387 -3.14064,-9.40861 z M 249.86833,535.9319 c -5.39334,-12.59314 -8.01779,-20.14085 -10.97774,-31.57109 -8.99167,-34.72251 -9.28363,-75.15414 -0.78508,-108.72162 3.75421,-14.82838 11.88784,-37.17421 13.75787,-37.79756 0.49046,-0.16348 1.30116,1.31172 1.80156,3.27823 9.55832,37.56349 9.3393,35.91038 6.56947,49.58306 -4.94881,24.42871 -4.79025,52.4452 0.43976,77.7068 2.91864,14.09741 3.00081,11.98181 -1.43148,36.8591 -3.20545,17.99134 -3.75243,20.48985 -4.48576,20.48985 -0.37401,0 -2.57389,-4.42205 -4.8886,-9.82677 z M 121.03605,494.95221 c -1.29619,-10.2311 -3.63855,-35.45313 -3.31943,-35.74285 0.14535,-0.13195 2.60044,-0.5055 5.45576,-0.83011 5.91998,-0.67302 5.54449,-1.15341 6.49096,8.3043 0.27383,2.73629 0.66829,5.1455 0.87658,5.35379 0.41981,0.4198 10.48522,-0.4803 44.7289,-3.99989 14.41426,-1.48151 23.1899,-2.06246 23.51078,-1.55643 0.56459,0.89039 1.67465,12.55497 1.2365,12.99313 -0.28222,0.28221 -18.93168,2.27687 -49.00057,5.24087 -9.42951,0.9295 -17.61801,1.86188 -18.19666,2.07194 -0.79105,0.28717 -0.91849,2.12011 -0.51364,7.38708 l 0.53845,7.00513 -2.7271,0.54542 c -1.4999,0.29999 -3.94802,0.54542 -5.44026,0.54542 h -2.71317 z m 653.09095,-33.87097 0.13151,-11.91756 -10.07562,-0.73684 c -5.5416,-0.40526 -10.66374,-0.51116 -11.38255,-0.23533 -1.08045,0.41461 -1.30691,2.17259 -1.30691,10.14544 v 9.64393 h -5.43608 c -3.71608,0 -5.48072,-0.33076 -5.57715,-1.0454 -0.0776,-0.57497 -0.17168,-4.99701 -0.20908,-9.82676 l -0.068,-8.78136 h -11.70849 -11.70848 l -0.23204,11.91756 -0.23204,11.91757 h -5.96137 -5.96137 l 0.54519,-11.91757 c 0.29985,-6.55466 0.54657,-15.21057 0.54825,-19.23536 l 0.003,-7.3178 19.44444,0.002 c 10.69445,9.9e-4 28.75896,0.24943 40.14337,0.55207 l 20.69893,0.55027 v 19.10145 19.10145 h -5.89354 -5.89354 z M 176.5233,419.43605 c -9.19952,-1.75311 -22.37157,-4.21493 -29.27121,-5.4707 -6.89964,-1.25578 -15.9319,-2.90134 -20.07168,-3.6568 -4.13979,-0.75546 -7.52689,-1.73071 -7.52689,-2.16722 0,-2.21358 2.3175,-12.91832 2.794,-12.9057 1.23499,0.0327 15.34985,2.46193 23.88288,4.11033 5.01278,0.96837 9.25624,1.61857 9.42991,1.4449 0.59142,-0.59142 2.87347,-14.95677 2.44419,-15.38604 -0.42486,-0.42487 -9.29704,-2.16746 -25.03714,-4.91757 -8.22892,-1.43776 -8.2304,-1.43846 -7.78032,-3.68887 0.24759,-1.23796 0.71103,-4.21737 1.02988,-6.62092 0.31884,-2.40354 1.01621,-4.53758 1.54972,-4.74231 0.92494,-0.35493 6.83403,0.62935 38.10266,6.34676 7.5896,1.38774 18.06468,3.28838 23.27795,4.22363 5.21326,0.93526 11.28114,2.08703 13.48417,2.5595 l 4.0055,0.85902 -1.14301,6.01676 c -0.62865,3.30922 -1.30215,6.43596 -1.49667,6.94832 -0.39319,1.03566 -1.55632,0.88693 -20.37622,-2.60563 -6.5657,-1.21845 -12.38231,-2.06715 -12.92579,-1.88599 -0.54348,0.18116 -1.44557,2.93801 -2.00465,6.12633 -1.64408,9.37581 -1.65469,9.33175 2.40572,9.98653 6.90317,1.1132 29.37616,5.46336 29.65277,5.73996 0.2418,0.2418 -0.42737,4.18272 -1.89965,11.18753 -0.52803,2.51224 -1.96485,2.41645 -22.52612,-1.50182 z m 532.3178,-20.5722 c -7.41133,-2.55072 -12.51399,-10.12665 -13.19068,-19.58424 -0.547,-7.64508 0.24621,-11.14375 3.32023,-14.64488 3.89035,-4.43086 5.60268,-5.19213 20.74261,-9.22177 35.35858,-9.41104 40.52929,-10.27181 45.68572,-7.60531 6.60389,3.415 10.58692,10.63841 11.04521,20.03101 0.17413,3.56873 0.083,7.41935 -0.20252,8.55694 -0.72491,2.88826 -5.1928,7.75598 -8.81508,9.60393 -2.71052,1.3828 -12.7017,4.40677 -13.08516,3.9604 -0.0827,-0.0962 -0.92168,-2.92185 -1.86443,-6.27912 l -1.71411,-6.10413 1.94862,-0.74086 c 1.07175,-0.40748 3.3932,-1.01187 5.15879,-1.3431 3.42589,-0.6427 7.84057,-4.34666 7.84057,-6.57831 0,-2.70644 -2.476,-7.16704 -4.48686,-8.08325 -2.23986,-1.02055 -4.40683,-0.55107 -35.65651,7.72509 -16.39958,4.34326 -18.40216,5.41248 -18.39592,9.82194 0.002,1.21398 0.74888,3.43035 1.66035,4.92527 1.41761,2.32505 2.13292,2.71804 4.94725,2.71804 1.80952,0 5.62108,-0.59719 8.47015,-1.32708 2.84907,-0.7299 5.46163,-1.01216 5.8057,-0.62724 1.01763,1.13846 3.33686,11.5246 2.69853,12.08477 -0.62764,0.5508 -15.91404,4.12931 -17.3127,4.05286 -0.45998,-0.0251 -2.52987,-0.62857 -4.59976,-1.34096 z M 203.7037,343.45309 c -6.39865,-2.13788 -41.68773,-20.34458 -46.63257,-24.05915 -8.48687,-6.37535 -7.95912,-21.02146 1.12139,-31.12119 7.53282,-8.3783 13.82658,-8.71547 28.29469,-1.51582 18.48008,9.19611 36.89826,19.10475 38.85437,20.90296 5.20615,4.78588 6.47039,13.52296 3.13141,21.64104 -5.13931,12.49527 -14.2125,17.67932 -24.76929,14.15216 z m 12.16658,-14.84165 c 2.72157,-2.93662 2.80128,-7.68562 0.16915,-10.07797 -1.03495,-0.94067 -11.14001,-6.46326 -22.4557,-12.27243 -21.58746,-11.08242 -24.95598,-12.17861 -27.79253,-9.04426 -0.7555,0.83483 -1.79375,2.72299 -2.30722,4.19592 -1.80717,5.18405 -1.08728,5.70832 28.771,20.95273 10.05875,5.13558 17.5495,8.45894 19.06621,8.45894 1.62727,0 3.21321,-0.77149 4.54909,-2.21293 z m 462.29975,3.11546 -3.482,-5.78803 5.55117,-4.94834 5.55116,-4.94834 -4.21459,-7.03544 c -4.78303,-7.98432 -4.62104,-7.92619 -13.01077,-4.66932 l -5.56882,2.1618 -3.00347,-5.04193 c -1.6519,-2.77307 -3.00346,-5.33383 -3.00346,-5.69059 0,-0.64881 2.34669,-1.58098 35.96177,-14.28499 18.70007,-7.06724 24.08303,-9.12906 33.81729,-12.95291 5.59752,-2.19885 5.84062,-2.22427 6.94492,-0.72629 2.19803,2.9816 9.417,15.27672 9.417,16.03874 0,0.79317 -60.07195,53.67367 -60.97298,53.67367 -0.27787,0 -2.07212,-2.60462 -3.98722,-5.78803 z m 31.96667,-36.32436 c 8.08426,-6.83266 14.54511,-12.57657 14.35745,-12.76424 -0.6008,-0.60079 -36.56106,14.10829 -36.56106,14.95483 0,1.44404 6.00022,10.74144 6.76516,10.48268 0.40688,-0.13764 7.35419,-5.84061 15.43845,-12.67327 z M 273.11828,320.4443 c 0,-0.59971 3.90365,-5.75416 8.67478,-11.45432 30.03299,-35.88104 66.0616,-59.59671 109.92878,-72.36015 9.24627,-2.69026 26.33211,-6.02533 34.44303,-6.72311 l 6.27241,-0.53962 -6.35352,7.0309 c -3.49444,3.867 -10.26863,10.50109 -15.05377,14.74243 -7.47789,6.62809 -9.58149,8.01989 -14.97264,9.90631 -21.25571,7.43761 -31.61607,12.06268 -45.44744,20.28867 -8.08805,4.81023 -21.50407,14.83167 -29.65692,22.15298 -6.59032,5.91816 -5.93832,5.63273 -27.76303,12.15369 -20.24429,6.04874 -20.07168,6.00745 -20.07168,4.80222 z m 341.6368,-5.45417 c -6.43967,-1.26942 -15.01592,-3.29865 -19.05835,-4.5094 -6.56933,-1.96759 -8.03478,-2.80374 -13.79928,-7.87352 -21.06672,-18.52781 -42.81602,-30.93398 -70.17265,-40.02766 l -14.28254,-4.74769 -14.52161,-14.00298 c -7.98688,-7.70164 -14.33343,-14.20005 -14.10345,-14.44091 0.73457,-0.76929 15.11324,1.00727 26.34409,3.25496 34.26775,6.8582 67.39561,22.33594 94.92234,44.34888 15.66343,12.52594 41.68657,40.92005 37.00717,40.3789 -0.34498,-0.0399 -5.89606,-1.11116 -12.33572,-2.38058 z M 247.37336,280.12939 c -3.41908,-1.25502 -15.61265,-12.20351 -43.88916,-39.40767 l -8.16455,-7.85491 4.31745,-4.96388 c 2.37459,-2.73013 4.70905,-4.96387 5.18768,-4.96387 0.47863,0 4.46789,3.4902 8.86502,7.756 16.99288,16.48536 36.28889,34.54281 38.40109,35.93622 1.2156,0.80193 2.90642,1.46053 3.75738,1.46356 2.4675,0.009 7.23383,-5.30334 7.23632,-8.06498 0.002,-2.60508 -3.90586,-6.64715 -32.62806,-33.74552 -8.0444,-7.58961 -14.73031,-14.17857 -14.85758,-14.64214 -0.12727,-0.46356 1.76565,-2.81509 4.20649,-5.2256 l 4.43788,-4.38276 23.97153,22.63465 c 17.49461,16.51894 24.45522,23.6338 25.76166,26.33255 3.39641,7.01605 1.70676,15.00229 -4.66657,22.0568 -6.44731,7.1364 -14.60002,9.76454 -21.93658,7.07155 z m 367.90138,-26.80302 -5.29857,-4.87955 7.82554,-8.39342 c 4.30404,-4.61639 16.63635,-17.89466 27.40513,-29.50727 l 19.57959,-21.11385 2.58289,2.30758 c 8.72391,7.79403 17.58857,17.03042 19.10763,19.90887 2.58792,4.90385 2.40645,10.77628 -0.4855,15.71102 -3.17128,5.41138 -14.63537,16.99713 -18.35754,18.55235 -7.1241,2.97664 -14.20825,1.08439 -22.21385,-5.93355 l -4.46046,-3.91016 -7.2919,7.86186 c -4.01054,4.32402 -8.59746,9.30496 -10.19315,11.06876 l -2.90125,3.20691 z m 49.52184,-22.74225 c 5.17807,-4.9161 9.60148,-10.50407 10.19875,-12.88378 0.46724,-1.86164 -0.0608,-2.8508 -3.32244,-6.22333 l -3.87798,-4.00988 -9.16627,9.59445 c -5.04145,5.27694 -9.16626,9.98124 -9.16625,10.454 3e-5,0.91437 5.33592,5.49817 7.49422,6.4379 2.06314,0.8983 4.40498,-0.10814 7.83997,-3.36936 z m -360.86112,-0.0187 c -4.26852,-2.70701 -5.58012,-4.36136 -11.40538,-14.38581 -2.24997,-3.87189 -7.55257,-12.94163 -11.78356,-20.15498 -8.6727,-14.78598 -10.21181,-19.45369 -8.49851,-25.77371 1.40091,-5.1677 8.15611,-11.70862 14.57089,-14.1087 10.80776,-4.0437 18.3235,-1.43666 24.62565,8.54209 1.91935,3.03909 3.48974,5.89316 3.48974,6.34237 0,0.79793 -9.55459,6.78819 -10.70789,6.71331 -0.32034,-0.0208 -1.98823,-2.28895 -3.70643,-5.04035 -1.7182,-2.7514 -3.9728,-5.31654 -5.01021,-5.7003 -2.49745,-0.92387 -6.56312,0.28683 -8.38312,2.49638 -2.47811,3.00854 -1.78519,6.33646 3.01534,14.48178 2.46339,4.17977 7.22145,12.30389 10.57346,18.05359 9.22213,15.81873 9.21185,15.80289 11.12825,17.14519 0.98457,0.68962 2.63416,1.25386 3.66574,1.25386 2.54171,0 7.78806,-4.72988 7.78806,-7.02138 0,-1.40808 -7.21703,-15.36253 -8.87421,-17.15868 -0.2677,-0.29016 -1.52508,0.22527 -5.46728,2.24116 -0.49248,0.25184 -5.73019,-8.18896 -5.73019,-9.23446 0,-0.58654 15.47805,-9.81238 16.41704,-9.78553 1.15961,0.0332 13.92708,22.51833 15.61157,27.494 1.84252,5.44246 1.36312,9.46215 -1.67196,14.01905 -2.993,4.49372 -7.02641,7.68725 -12.60838,9.98291 -6.79024,2.79259 -12.20288,2.66495 -17.03862,-0.40179 z m 266.66839,-6.39923 c -4.52637,-1.66125 -9.64494,-5.31663 -12.61681,-9.0102 -2.17287,-2.70052 -2.60682,-4.03239 -2.86118,-8.78136 -0.24757,-4.62206 0.0743,-6.43639 1.8465,-10.40686 1.18048,-2.64486 2.5203,-4.80884 2.97736,-4.80884 0.45707,0 3.23724,1.18655 6.17816,2.63679 l 5.34713,2.63678 -2.06628,4.51335 c -2.49752,5.4553 -2.08183,8.01935 1.67106,10.30758 6.7499,4.11558 12.31328,-0.12914 12.31328,-9.39473 0,-3.88173 -0.8459,-6.89319 -4.3524,-15.49492 -3.97656,-9.75483 -4.35431,-11.25451 -4.37451,-17.36734 -0.0187,-5.66394 0.32254,-7.34865 2.22407,-10.97938 6.09679,-11.64109 15.87131,-14.93983 27.22322,-9.18738 9.0563,4.58917 12.73243,9.64348 12.73243,17.50578 0,4.538 -2.52379,12.27867 -4.00337,12.27867 -0.56898,0 -9.79156,-4.64621 -10.90323,-5.4929 -0.14904,-0.11351 0.40494,-2.1095 1.23106,-4.43551 1.47782,-4.16089 1.47407,-4.2666 -0.23228,-6.55207 -2.15308,-2.88382 -6.25248,-4.20037 -9.07479,-2.91444 -1.12138,0.51093 -2.85197,2.52277 -3.84575,4.47075 -2.48126,4.86366 -1.83921,9.67773 2.82694,21.19657 4.86902,12.01963 5.84831,16.699 4.68188,22.37156 -1.26337,6.14402 -5.43843,12.79091 -9.88597,15.73894 -3.11332,2.06365 -4.5012,2.44171 -8.78136,2.3921 -2.79599,-0.0324 -6.51081,-0.58273 -8.25516,-1.22294 z m -201.5157,-23.15393 c -0.67704,-2.88946 -4.88023,-20.44297 -9.34043,-39.00779 -4.4602,-18.56482 -7.99419,-33.86731 -7.85332,-34.00554 0.53458,-0.52454 10.61237,-2.9093 12.29442,-2.9093 1.02085,0 1.761,0.53621 1.761,1.27578 0,2.1211 6.86895,30.03065 7.58684,30.82643 0.61754,0.68453 2.86112,0.29261 11.85761,-2.07138 1.96637,-0.5167 3.1362,-1.32094 3.1362,-2.15611 0,-0.73261 -1.47441,-7.39821 -3.27647,-14.81245 -4.68449,-19.27352 -4.98022,-17.16737 2.68579,-19.12787 3.58493,-0.91681 6.70113,-1.48384 6.9249,-1.26007 0.40548,0.40547 1.46095,4.5718 7.78821,30.74264 7.3441,30.37676 10.96717,45.74882 10.96717,46.53184 0,0.79202 -13.16844,4.20737 -13.69068,3.55079 -0.14068,-0.17687 -1.48594,-5.5904 -2.98946,-12.03006 -3.94356,-16.89043 -5.04595,-20.48985 -6.27542,-20.48985 -1.73995,0 -12.55564,2.54995 -13.62875,3.21316 -0.73427,0.4538 -0.69352,1.62594 0.1654,4.75782 2.97704,10.85519 6.49712,27.13681 6.09405,28.18719 -0.24741,0.64472 -2.65186,1.64375 -5.34325,2.22007 -2.69138,0.57633 -5.50979,1.2212 -6.26312,1.43307 -1.08262,0.30446 -1.62773,-0.71596 -2.60069,-4.86837 z m 89.90229,-7.11304 c -3.26609,-0.40532 -3.10069,3.92874 -1.39156,-36.46358 0.73615,-17.39786 1.08527,-31.88568 0.7758,-32.19514 -0.30947,-0.30947 -3.55976,-0.69877 -7.22287,-0.86513 l -6.6602,-0.30245 0.24523,-5.55497 0.24524,-5.55496 7.52688,0.19011 c 4.13979,0.10457 13.83065,0.42689 21.53525,0.71627 l 14.00836,0.52616 v 5.86013 5.86013 l -7.3178,-0.304 -7.3178,-0.304 -0.54158,8.78136 c -0.29786,4.82975 -0.9793,19.88352 -1.51432,33.45281 -0.53501,13.5693 -1.12626,25.14188 -1.3139,25.71685 -0.33477,1.02583 -4.88033,1.20689 -11.05673,0.44041 z"
       id="path1" />
  </g>
</svg>
