<?xml version="1.0" encoding="UTF-8" standalone="no"?>
<svg
   id="Layer_2"
   viewBox="0 0 900.00003 899.99999"
   version="1.1"
   sodipodi:docname="TrashPandaBlack.svg"
   width="900"
   height="900"
   inkscape:version="1.4 (86a8ad7, 2024-10-11)"
   xmlns:inkscape="http://www.inkscape.org/namespaces/inkscape"
   xmlns:sodipodi="http://sodipodi.sourceforge.net/DTD/sodipodi-0.dtd"
   xmlns="http://www.w3.org/2000/svg"
   xmlns:svg="http://www.w3.org/2000/svg">
  <sodipodi:namedview
     id="namedview10"
     pagecolor="#ffffff"
     bordercolor="#000000"
     borderopacity="0.25"
     inkscape:showpageshadow="2"
     inkscape:pageopacity="0.0"
     inkscape:pagecheckerboard="0"
     inkscape:deskcolor="#d1d1d1"
     inkscape:zoom="0.30637643"
     inkscape:cx="682.16736"
     inkscape:cy="83.230946"
     inkscape:window-width="1920"
     inkscape:window-height="991"
     inkscape:window-x="-9"
     inkscape:window-y="-9"
     inkscape:window-maximized="1"
     inkscape:current-layer="Layer_2"
     showgrid="false" />
  <defs
     id="defs1">
    <style
       id="style1">.cls-1{fill:#fff;stroke-width:0px;}</style>
  </defs>
  <g
     id="Layer_1-2"
     style="fill:#000000;fill-opacity:1"
     transform="translate(36.41,83.21)">
    <g
       id="Artwork_19"
       style="fill:#000000;fill-opacity:1">
      <path
         class="cls-1"
         d="m 637.79,506 c -24.69,-10.53 -40.13,-32.62 -48.73,-63.19 -1.88,-6.69 1.86,-13.67 8.47,-15.84 24.42,-7.98 49.34,-8.62 74.78,-1.44 -17.22,-22.34 -42.87,-42.5 -66.62,-65.42 -5.37,-5.18 -12.72,-7.78 -20.15,-7.11 l -16.79,1.51 c -6.68,0.6 -12.92,3.76 -17.23,8.9 -43.16,51.51 -118.09,81.01 -227.87,84.86 -2,0.07 -2.78,2.64 -1.17,3.82 15.17,11.17 32.32,18.2 54.08,21.71 2.3,0.37 2.36,3.64 0.09,4.14 -68.24,14.8 -121.79,46.22 -162.65,92 -1.55,1.74 0.45,4.34 2.53,3.3 28.8,-14.45 116.47,-55.36 185.57,-55.36 76.1,0 88.92,12.52 145.16,12.52 64.24,0 90.52,-24.4 90.52,-24.4 z"
         id="path1"
         style="fill:#000000;fill-opacity:1" />
      <path
         class="cls-1"
         d="m 172.25,216.2 c 0.49,-0.23 0.72,-0.8 0.54,-1.3 -5.52,-15.38 -9.83,-30.28 -12.9,-44.76 v 0.09 c -19.75,-23.11 -36.59,-51.74 -51.58,-83.85 -5.68,46.59 1.69,96.61 22.18,150.96 0.23,0.62 0.97,0.88 1.54,0.53 12.77,-7.77 26.17,-15.01 40.23,-21.67 z"
         id="path2"
         style="fill:#000000;fill-opacity:1" />
      <path
         class="cls-1"
         d="m 164.03,53.81 c 0.34,-1.03 1.43,-1.64 2.49,-1.4 28.11,6.43 54.24,19.02 77.89,37.6 17.6,13.82 33.34,30.52 47.07,49.96 0.27,0.39 0.77,0.54 1.22,0.38 15.76,-5.75 30.83,-10.29 45.27,-13.65 0.71,-0.16 1.04,-0.98 0.65,-1.6 C 320.42,96.55 298.68,72.3 273.7,52.69 237.68,24.42 196.92,7.32 152.52,1.86 L 137.54,0.02 c -1.16,-0.14 -2.21,0.68 -2.36,1.84 -6.21,50.35 -1.07,79.35 18.93,121.2 -0.62,-24.34 2.69,-47.36 9.92,-69.25 z"
         id="path3"
         style="fill:#000000;fill-opacity:1" />
      <path
         class="cls-1"
         d="m 676.16,83.07 c 6.23,34.8 1.61,73.03 -13.14,107.34 -0.2,0.47 -0.04,1.02 0.4,1.29 12.94,8.26 25.57,16.96 37.86,26.05 0.53,0.39 1.28,0.21 1.57,-0.39 9.35,-19.51 20.56,-39.17 24.91,-58.93 0.38,-1.71 -1.41,-3.09 -2.98,-2.33 -5.18,2.52 -10.07,3.98 -14.58,4.05 -1.47,0.02 -2.5,-1.41 -2.04,-2.8 11.59,-34.98 11.32,-82.53 1.55,-124.58 -0.25,-1.06 -1.27,-1.76 -2.36,-1.61 l -18,2.51 c -58.38,8.15 -104.29,41.46 -136.85,99.19 -0.31,0.55 -0.06,1.26 0.52,1.5 14.04,5.79 26.53,11.37 40,17.96 0.49,0.24 1.09,0.06 1.37,-0.41 20.24,-34.49 47.51,-60.07 79.03,-70.46 1.21,-0.4 2.5,0.38 2.73,1.63 z"
         id="path4"
         style="fill:#000000;fill-opacity:1" />
      <path
         class="cls-1"
         d="m 684.85,327.96 c -14.94,-9.19 -30.92,-9.37 -47.03,-2.24 -1.31,0.58 -1.68,2.27 -0.73,3.35 7.67,8.67 15,15.19 25.69,21.62 0.67,0.4 1.52,0.41 2.19,0 8.24,-5.09 16.75,-12.24 20.64,-20 0.48,-0.96 0.15,-2.15 -0.77,-2.72 z"
         id="path5"
         style="fill:#000000;fill-opacity:1" />
      <path
         class="cls-1"
         d="m 380.89,334.35 c 8.28,11.3 19.81,23.38 32.7,32.44 0.56,0.39 1.29,0.49 1.93,0.26 19.99,-7.08 35.76,-18.48 48.53,-32.96 0.89,-1.01 0.6,-2.61 -0.59,-3.24 -28.76,-15.31 -53.32,-17.8 -82,0.5 -1.01,0.65 -1.27,2.03 -0.56,3 z"
         id="path6"
         style="fill:#000000;fill-opacity:1" />
      <path
         class="cls-1"
         d="m 655.14,506.89 c 4.53,9.78 9.36,15.98 14.42,19.83 2.15,1.63 4.34,2.83 6.55,3.69 8.71,-18.61 13.95,-40.18 15.31,-65.08 -3.59,11.56 -9.5,21.13 -17.59,28.81 -5.31,5.05 -11.55,9.3 -18.69,12.75 z"
         id="path7"
         style="fill:#000000;fill-opacity:1" />
      <path
         class="cls-1"
         d="m 762.69,398.67 c 20.91,-1.89 40.79,-6.27 59.95,-12.39 1.4,-0.45 1.92,-2.17 1.01,-3.33 C 731.39,265.41 632.42,195.4 529.11,156.28 c -2.03,-0.77 -3.75,1.66 -2.36,3.34 55.41,66.7 62.28,127.84 62.65,151.78 0.03,2.03 2.81,2.59 3.63,0.73 12.89,-29.18 58.49,-102.94 152.75,56.25 0.87,1.46 -0.28,3.3 -1.97,3.17 -16.93,-1.31 -32.49,-0.55 -49.34,2.02 -1.69,0.26 -2.41,2.3 -1.23,3.54 11.71,12.28 22.38,25.47 30.6,40.35 19.13,34.65 21.23,71.62 6.35,110.22 -0.51,1.31 0.37,2.76 1.77,2.87 35.6,2.91 68.14,26.56 99.08,61.05 1.37,1.53 3.9,0.4 3.67,-1.64 -7.15,-63.95 -31.12,-126.66 -73.56,-188 -0.92,-1.33 -0.07,-3.15 1.55,-3.3 z"
         id="path8"
         style="fill:#000000;fill-opacity:1" />
      <path
         class="cls-1"
         d="M 213.4,379.24 C 398.87,194 500.51,274.46 541.84,318.73 c 2.1,2.25 5.84,0.43 5.39,-2.62 -6.61,-44.05 -45.53,-215.72 -254.42,-142.23 -2.23,0.78 -1.7,4.1 0.66,4.11 21.74,0.07 42.3,5.24 61.52,16.17 C 169.35,220.83 48.48,303.12 0.12,447.71 c -0.73,2.19 2.09,3.82 3.6,2.06 33.53,-39.23 75.84,-61.32 127.18,-65.76 1.92,-0.17 3.03,2.12 1.73,3.53 -56.29,61.41 -59.76,135.5 -34.93,216.36 0.63,2.06 3.58,1.95 4.07,-0.14 26.05,-111.18 84.3,-183.71 177.02,-214.85 1.96,-0.66 1.91,-3.46 -0.08,-4.03 -19.71,-5.67 -41.74,-5.83 -63.48,-2.05 -2.02,0.35 -3.28,-2.13 -1.83,-3.58 z"
         id="path9"
         style="fill:#000000;fill-opacity:1" />
      <path
         class="cls-1"
         d="m 653.61,564.31 c -4.9,5.43 -10.24,10.51 -16,15.21 -4.42,3.62 -9.11,7.04 -14.02,10.22 -11.77,7.67 -24.89,14.17 -39.28,19.6 -30.99,11.73 -67.75,18.51 -109.04,21.42 -2.08,0.15 -3.08,-2.47 -1.46,-3.77 11.8,-9.46 19.49,-19.94 21.45,-31.84 0.28,-1.68 -1.43,-2.97 -2.97,-2.27 -31.34,14.24 -61.67,21.58 -90.77,20.85 h -0.01 l 1.43,-4.57 c 10.29,-32.96 43.21,-53.37 77.3,-47.92 0.21,0.03 24.21,6.09 67.03,6.09 39.02,0 67.09,-7.75 85.9,-15.98 l 20.44,12.95 z"
         id="path10"
         style="fill:#000000;fill-opacity:1" />
    </g>
  </g>
</svg>
