<?xml version="1.0" encoding="UTF-8" standalone="no"?>
<!-- Created with Inkscape (http://www.inkscape.org/) -->

<svg
   version="1.1"
   id="svg1"
   width="900"
   height="900"
   viewBox="0 0 900 899.99999"
   sodipodi:docname="Westside.svg"
   inkscape:version="1.4 (86a8ad7, 2024-10-11)"
   xmlns:inkscape="http://www.inkscape.org/namespaces/inkscape"
   xmlns:sodipodi="http://sodipodi.sourceforge.net/DTD/sodipodi-0.dtd"
   xmlns="http://www.w3.org/2000/svg"
   xmlns:svg="http://www.w3.org/2000/svg">
  <defs
     id="defs1" />
  <sodipodi:namedview
     id="namedview1"
     pagecolor="#ffffff"
     bordercolor="#000000"
     borderopacity="0.25"
     inkscape:showpageshadow="2"
     inkscape:pageopacity="0.0"
     inkscape:pagecheckerboard="0"
     inkscape:deskcolor="#d1d1d1"
     inkscape:zoom="0.51243147"
     inkscape:cx="469.33105"
     inkscape:cy="391.27184"
     inkscape:window-width="1920"
     inkscape:window-height="991"
     inkscape:window-x="-9"
     inkscape:window-y="-9"
     inkscape:window-maximized="1"
     inkscape:current-layer="g1" />
  <g
     inkscape:groupmode="layer"
     inkscape:label="Image"
     id="g1">
    <path
       style="fill:#000000;stroke-width:1"
       d="m 437.63784,782.56901 c -10.28455,-24.6144 -32.81001,-56.18123 -46.48243,-65.13974 -6.38417,-4.18307 -19.78889,-9.10164 -29.78826,-10.93015 -16.60498,-3.03644 -18.42721,-2.34225 -21.02533,8.00953 -3.74949,14.93912 -12.80596,11.38076 -17.54089,-6.89195 -3.77954,-14.58571 -33.25158,-43.23096 -44.47875,-43.23096 -3.27198,0 -5.94905,-4.20872 -5.94905,-9.35272 0,-5.82577 3.11756,-9.3527 8.26716,-9.3527 12.48774,0 42.592,22.20586 52.79982,38.94683 4.97384,8.15719 9.05123,12.20079 9.06084,8.98579 0.0234,-7.84963 28.9167,-7.57678 48.1003,0.45421 14.33546,6.00138 42.93041,33.79303 54.20618,52.68336 5.16195,8.6479 5.37232,8.6479 10.53428,0 11.27575,-18.89033 39.87071,-46.68198 54.20617,-52.68336 8.27637,-3.4648 22.70594,-6.29965 32.06571,-6.29965 13.5967,0 16.44712,1.487 14.17925,7.39699 -1.56117,4.06836 -2.83849,8.27708 -2.83849,9.35272 0,1.07563 -5.787,1.96357 -12.85997,1.97318 -26.72032,0.0363 -59.06162,31.75046 -77.5831,76.07862 -4.00571,9.587 -9.60225,17.431 -12.43671,17.431 -2.83448,0 -8.43101,-7.844 -12.43673,-17.431 z m -78.75217,-18.4045 c -36.65515,-7.9014 -62.60817,-32.56098 -56.04206,-53.24896 4.21864,-13.29175 11.38961,-11.16604 17.04332,5.05216 6.559,18.8152 27.6859,29.0733 61.21972,29.7251 18.70792,0.3636 28.58047,2.7232 31.55793,7.5425 3.09916,5.0163 2.05146,7.9189 -3.67937,10.1931 -8.81849,3.4997 -35.46322,3.8911 -50.09954,0.7361 z m 132.1242,0.1532 c -6.18849,-1.8246 -7.09616,-4.4076 -3.74757,-10.6645 3.42808,-6.4054 10.60034,-8.3149 31.98886,-8.5163 33.74229,-0.3179 54.39558,-10.19214 61.01104,-29.16927 6.13817,-17.60792 12.57973,-18.05966 18.69681,-1.31118 2.58327,7.07299 4.863,9.60009 5.06605,5.61578 0.20305,-3.98431 7.67072,-9.88447 16.59482,-13.11146 21.09063,-7.62646 35.21425,-25.9733 35.21425,-45.74393 0,-16.54335 3.76448,-19.45428 13.09379,-10.12497 8.44641,8.44641 6.74971,31.0953 -3.39693,45.34494 -10.91969,15.3353 -54.20159,39.76157 -63.87658,36.04893 -3.89381,-1.4942 -8.17462,0.47375 -9.70484,4.46143 -6.65387,17.33973 -73.37172,35.29853 -100.9397,27.17053 z M 268.15135,722.19084 c -35.13838,-17.51019 -54.03703,-53.79202 -36.93014,-70.89889 9.32931,-9.32931 13.09379,-6.41838 13.09379,10.12497 0,19.77062 14.12362,38.11746 35.21425,45.74392 8.9241,3.227 16.22564,7.37678 16.22564,9.22175 0,1.84494 1.27733,6.6831 2.83851,10.75146 3.93502,10.25453 -1.81921,9.32016 -30.44205,-4.94321 z m 291.60946,-7.86753 c -4.05752,-16.16643 8.56977,-38.11455 31.47376,-54.70612 22.6245,-16.3891 36.54143,-18.135 36.54143,-4.58417 0,5.144 -3.08331,9.35272 -6.8518,9.35272 -11.43499,0 -39.64972,28.07894 -43.62326,43.41333 -4.71663,18.20205 -13.76452,21.56752 -17.54013,6.52424 z M 193.36927,657.26132 c -22.53824,-20.36194 -35.06281,-45.3855 -31.15589,-62.24814 2.20659,-9.52385 1.73023,-10.80912 -2.01957,-5.44909 -4.25233,6.07835 -5.89819,5.76629 -12.33207,-2.33818 -23.25501,-29.29333 -29.1965,-77.4779 -11.33682,-91.9398 5.84253,-4.73098 13.5462,-8.6018 17.11925,-8.6018 8.82256,0 8.21234,11.45982 -1.01814,19.12044 -9.677,8.03119 -6.85804,43.69253 4.86855,61.58955 6.65335,10.1543 9.96485,11.73194 16.86933,8.03679 11.01737,-5.89633 15.18672,0.6157 9.67535,15.11173 -5.46843,14.38303 3.01791,34.36815 22.2954,52.50515 14.01042,13.18151 19.67874,30.69047 9.93569,30.69047 -2.56459,0 -12.87007,-7.41469 -22.90108,-16.47712 z m 55.62208,-2.33277 c 0,-15.55652 -3.35446,-22.44907 -19.39436,-39.8503 -17.66494,-19.16421 -20.09649,-20.40497 -27.26852,-13.91437 -11.37718,10.2962 -14.64608,3.89348 -11.2155,-21.96747 2.24493,-16.92314 0.86288,-27.51099 -5.40559,-41.41198 -6.44645,-14.29565 -7.13406,-19.96346 -2.93174,-24.16578 4.20232,-4.20232 7.26189,-3.71795 13.04502,2.06518 9.51382,9.51382 20.51389,50.97495 17.34166,65.36366 -1.7006,7.7137 -1.1066,9.04297 2.05271,4.59362 3.51055,-4.94396 8.07319,-3.07629 21.68813,8.8778 27.94413,24.53526 39.74889,59.04101 25.18198,73.6079 -9.67811,9.67813 -13.09379,6.2352 -13.09379,-13.19826 z m 386.2995,11.41289 c -8.7192,-22.72185 1.36292,-48.47427 28.20426,-72.0413 16.0137,-14.06021 17.75968,-14.61272 20.66619,-6.53961 2.2959,6.37707 -1.83269,14.29079 -14.9144,28.5881 -14.72646,16.09489 -18.08912,23.26667 -18.08912,38.57992 0,19.39816 -10.03332,26.61501 -15.86693,11.41289 z m 43.92505,-1.40555 c 0,-4.8414 8.6115,-17.41404 19.13666,-27.9392 17.33443,-17.33443 18.98596,-21.01961 17.53633,-39.13008 -1.8939,-23.66097 4.32544,-27.90786 16.66531,-11.37996 8.58432,11.49778 8.61384,12.721 0.80122,33.1781 -4.8257,12.6359 -15.88113,27.89051 -27.29099,37.65694 -21.81665,18.67421 -26.84853,20.10126 -26.84853,7.6142 z M 328.48937,582.28067 v -25.98882 l 19.72558,1.43796 c 15.65232,1.14104 21.14737,3.98225 26.61085,13.75909 6.16728,11.03628 6.04966,13.59641 -1.12798,24.55085 -6.41816,9.79537 -11.71514,12.22975 -26.61084,12.22975 h -18.59761 z m 30.67159,9.89548 c 7.26351,-5.39369 8.0428,-8.43068 3.89983,-15.19816 -2.84766,-4.65162 -8.63465,-9.13789 -12.85997,-9.96948 -5.97442,-1.17582 -7.68239,2.20306 -7.68239,15.19816 0,18.32535 2.98331,20.11245 16.64253,9.96948 z m 34.79736,-9.6266 c 0,-14.14596 2.10437,-25.71994 4.67635,-25.71994 2.57199,0 4.67636,11.57398 4.67636,25.71994 0,14.14597 -2.10437,25.71995 -4.67636,25.71995 -2.57198,0 -4.67635,-11.57398 -4.67635,-25.71995 z m 28.6281,21.61562 c -9.94465,-6.48524 -1.8821,-15.63238 8.75911,-9.93739 10.68214,5.71693 14.05268,5.9 14.05268,0.76327 0,-2.15915 -5.4046,-6.38821 -12.0102,-9.39793 -8.6155,-3.92549 -11.58949,-8.43344 -10.52179,-15.94878 1.20994,-8.51654 4.47757,-10.47655 17.46593,-10.47655 9.48978,0 16.85808,2.64155 18.14603,6.50542 1.64201,4.92603 -0.81785,5.7559 -10.1321,3.41816 -15.03092,-3.77251 -16.28804,2.47646 -1.77878,8.84203 6.8747,3.01609 10.5218,8.66848 10.5218,16.30704 0,9.60157 -2.50717,11.9086 -14.02907,12.90916 -7.71597,0.67005 -16.92911,-0.67295 -20.47361,-2.98443 z m 56.48154,-1.50729 c -9.13811,-9.13811 -6.93485,-35.43833 3.43365,-40.98738 18.43026,-9.86359 43.2234,-3.50257 35.43927,9.09241 -1.78154,2.88257 -6.32318,2.44919 -12.25168,-1.1691 -7.91104,-4.82828 -10.4477,-4.3654 -15.82924,2.88848 -10.92721,14.72894 5.05481,33.05696 18.84541,21.61176 6.87945,-5.70944 14.01229,1.67433 9.17633,9.49908 -4.0357,6.52991 -32.02296,5.85553 -38.81374,-0.93525 z m 55.75095,1.38648 c -10.02466,-6.3495 -1.83804,-15.48799 8.78273,-9.80392 4.83182,2.58591 9.89902,2.89931 11.26044,0.69645 1.36145,-2.20285 -2.86325,-6.43761 -9.38821,-9.41058 -8.47964,-3.86359 -11.43902,-8.39371 -10.37516,-15.88197 1.19292,-8.39682 4.50542,-10.47655 16.68654,-10.47655 8.359,0 15.06578,2.10435 14.90401,4.67634 -0.16171,2.572 -4.37051,4.17507 -9.35271,3.5624 -12.82693,-1.57736 -11.23901,5.63377 2.63232,11.95396 6.42999,2.9297 11.69089,8.10751 11.69089,11.50625 0,14.71496 -21.99344,22.58181 -36.84085,13.17762 z m 162.0487,-4.06876 c -10.99515,-12.71741 -12.75936,-27.91143 -6.18408,-53.25976 7.16868,-27.63599 18.32127,-41.46588 26.68995,-33.09719 4.20233,4.20232 3.51472,9.87013 -2.93173,24.16578 -6.32821,14.0335 -7.65599,24.44766 -5.34148,41.89522 3.35365,25.2811 -1.27826,32.9662 -12.23266,20.29595 z m 41.42183,-12.82255 c -1.57926,-4.11548 1.318,-15.69457 6.43836,-25.7313 11.03156,-21.62362 12.10744,-47.88861 2.29523,-56.03203 -14.78832,-12.27322 -6.28593,-23.64995 10.82922,-14.49021 8.6277,4.61741 8.5561,4.89014 10.79406,-41.1124 1.09459,-22.49974 -0.12602,-26.28461 -11.3676,-35.24832 -6.92662,-5.5231 -12.59385,-11.31607 -12.59385,-12.87328 0,-6.96811 16.32679,-8.07839 25.96153,-1.76547 21.50441,14.09023 25.89965,58.99519 8.97735,91.71929 -3.78442,7.31826 -6.88077,23.60126 -6.88077,36.18442 0,14.84398 -3.76795,30.00377 -10.72935,43.16797 -11.85602,22.42009 -19.36485,27.54155 -23.72418,16.18133 z M 365.0349,529.94618 c 47.106,-0.76342 122.86294,-0.76218 168.34875,0.003 45.48581,0.76494 6.94454,1.38955 -85.64727,1.38802 -92.59179,-0.002 -129.80747,-0.62738 -82.70148,-1.39079 z M 155.46429,514.5779 c 0,-2.66249 3.37178,-9.98688 7.49284,-16.27642 5.42235,-8.27555 7.03763,-19.51068 5.84544,-40.65826 -1.35609,-24.0552 -0.30719,-29.48634 5.93159,-30.71355 14.41338,-2.83523 19.0005,54.1902 6.32998,78.69227 -6.81375,13.17635 -25.59985,19.74855 -25.59985,8.95596 z m 565.43277,-2.66287 c -8.15827,-9.83011 -11.17778,-61.29231 -4.597,-78.34797 4.11603,-10.66766 6.46633,-12.28244 11.63435,-7.99337 4.75897,3.9496 5.80985,12.72501 3.96294,33.09303 -1.90576,21.01703 -0.66383,30.54099 5.13705,39.39424 4.20776,6.42184 7.65046,13.85445 7.65046,16.51694 0,7.56485 -16.86651,5.67676 -23.7878,-2.66287 z m -516.8563,-3.86961 c -3.91368,-10.1989 0.24749,-25.44834 22.41765,-82.15371 18.37113,-46.98843 32.87353,-70.71619 39.29623,-64.29351 3.07642,3.07644 -2.07657,19.81966 -23.02562,74.81532 -6.61317,17.36096 -11.15478,31.56538 -10.09247,31.56538 1.06232,0 7.67948,-9.9957 14.70477,-22.21268 24.22528,-42.12762 48.77993,-75.99075 55.10203,-75.99075 12.0208,0 11.52286,13.73637 -1.94196,53.57058 -14.15012,41.86153 -14.85798,50.34804 -2.06515,24.75834 18.49889,-37.00364 60.89007,-96.89155 68.63305,-96.96096 11.59789,-0.10393 10.30931,5.74389 -7.43449,33.73939 -8.58996,13.55291 -27.77969,47.4257 -42.64388,75.27285 -14.86417,27.84715 -30.09498,51.80895 -33.84622,53.24843 -3.75124,1.43949 -10.2742,-0.83649 -14.49546,-5.05775 -7.03813,-7.03813 -7.08179,-10.58756 -0.52621,-42.77311 8.35215,-41.00607 4.69501,-39.1767 -21.30273,10.65596 -13.98566,26.80783 -21.60248,36.5627 -29.41525,37.67212 -6.3289,0.89871 -11.67044,-1.44182 -13.36429,-5.8559 z m 122.60318,-5.16917 c -10.11721,-10.11721 -9.46018,-19.74101 3.01452,-44.15451 18.68843,-36.57405 50.2708,-48.58345 50.2708,-19.11581 0,15.09382 -17.31304,33.04932 -31.86679,33.04932 -5.96723,0 -10.22039,2.91906 -10.22039,7.01452 0,20.29698 30.73213,-1.95318 62.97542,-45.59444 7.12597,-9.64497 14.856,-17.53632 17.17788,-17.53632 9.12766,0 14.29547,21.63582 9.40142,39.36055 -4.10199,14.85624 -3.83352,16.61712 1.81837,11.92647 3.64701,-3.02675 12.96941,-15.80455 20.71647,-28.3951 l 14.08553,-22.89192 h -16.32401 c -11.39267,0 -16.32402,-2.11903 -16.32402,-7.01452 0,-4.51918 4.57484,-7.03726 12.85999,-7.07839 22.70569,-0.11277 33.00573,-5.18429 38.76434,-19.08684 7.78137,-18.78584 20.66255,-18.44614 16.88427,0.44527 -2.66189,13.30938 -2.01805,14.02907 12.55072,14.02907 8.4461,0 19.44137,3.08961 24.43395,6.86581 8.63609,6.532 8.39536,6.87303 -4.95165,7.01452 l -14.02906,0.14878 v 30.63186 c 0,33.83348 -2.22691,34.07814 26.46829,-2.90776 8.69526,-11.20751 13.95281,-14.57591 17.46804,-11.19136 3.56391,3.43146 1.56056,11.35689 -6.87735,27.20748 -18.50082,34.7537 -11.02591,35.54718 15.60752,1.65679 19.66746,-25.02638 26.98044,-31.02605 39.28323,-32.22855 12.59901,-1.23147 16.91759,-4.98273 25.92713,-22.52118 5.9456,-11.57397 16.00168,-27.35666 22.34686,-35.07265 9.29646,-11.30486 12.38626,-12.74276 15.91178,-7.40488 5.94677,9.00387 0.88808,20.74954 -29.70291,68.96644 -24.6151,38.79781 -30.54436,53.00911 -22.11656,53.00911 2.07594,0 13.81777,-13.67835 26.09295,-30.3963 23.52196,-32.0353 35.9917,-37.79033 45.08144,-20.80599 7.41648,13.85782 -7.8564,38.99374 -24.90669,40.9911 -9.00301,1.05467 -12.6313,4.15628 -12.6313,10.79778 0,9.8515 1.79219,9.40317 24.10365,-6.02971 22.53134,-15.58497 24.96691,-7.69807 4.41646,14.30127 -15.19582,16.26716 -34.75223,19.26934 -41.93339,6.43733 -4.28274,-7.65281 -5.011,-7.64676 -13.58515,0.11277 -10.75873,9.73644 -24.44146,6.06637 -24.44146,-6.55591 0,-11.88525 -3.86311,-11.14757 -14.86455,2.83848 -10.51053,13.362 -20.23539,14.98979 -26.17244,4.38087 -3.70985,-6.62912 -4.65599,-6.62912 -10.15767,0 -8.40143,10.12311 -24.01167,9.18733 -26.83489,-1.60865 -2.22238,-8.49839 -3.11398,-8.38821 -18.92018,2.33818 -19.54275,13.26206 -21.59533,13.54012 -29.51429,3.99835 -5.09334,-6.13708 -3.73684,-9.34751 8.78011,-20.77998 8.73313,-7.97649 14.70354,-17.94445 14.55884,-24.30689 l -0.24528,-10.7854 -7.93834,11.64889 c -28.06317,41.18056 -55.00679,57.92902 -60.34601,37.51176 -2.39351,-9.1528 -2.61864,-9.15968 -14.84445,-0.45414 -20.27236,14.4352 -37.96583,14.56544 -37.96583,0.27946 0,-5.66202 4.46167,-11.16479 11.09834,-13.68804 6.29104,-2.39186 12.46637,-9.67026 14.25665,-16.80329 5.00304,-19.93371 0.0849,-18.49477 -15.82553,4.63022 -22.31354,32.4316 -49.16916,46.4617 -62.81478,32.81608 z m 145.44395,-37.85254 c 7.18263,-9.34132 19.20485,-24.23191 26.71606,-33.09017 l 13.65672,-16.10595 -15.56333,1.52479 c -13.61639,1.33406 -17.51155,5.03477 -31.13727,29.58293 -8.5657,15.43197 -15.59908,29.63639 -15.62975,31.56538 -0.13323,8.37562 9.8809,2.22927 21.95757,-13.47698 z m 139.08777,-24.55665 c -4.09967,-4.09967 -30.16318,26.18007 -30.16318,35.04258 0,4.38849 6.70096,-0.63734 16.5206,-12.39067 9.08633,-10.87563 15.2255,-21.06899 13.64258,-22.65191 z m -245.27547,2.98488 c 0,-2.6086 -3.10162,-2.10223 -7.01452,1.1452 -3.85799,3.20184 -7.01453,7.9259 -7.01453,10.49788 0,2.60861 3.10163,2.10222 7.01453,-1.14519 3.85799,-3.20184 7.01452,-7.9259 7.01452,-10.49789 z m 312.24715,-1.48215 c -1.56753,-1.56753 -5.37072,2.065 -8.45154,8.07227 -5.35498,10.44162 -5.22956,10.56705 2.85003,2.85002 4.64834,-4.43974 7.16901,-9.35479 5.60151,-10.92229 z M 118.7117,488.5997 c -10.00897,-21.9673 -11.53351,-50.01168 -3.73354,-68.67966 8.30658,-19.88045 27.86186,-31.9049 37.00968,-22.75707 4.37918,4.37918 2.90846,7.91889 -6.65068,16.00656 -15.43812,13.0617 -19.65234,31.05016 -13.03312,55.63205 4.14536,15.39468 3.87398,20.46774 -1.37578,25.71748 -5.60215,5.60216 -7.3537,4.75347 -12.21656,-5.91936 z m 22.72352,-62.93229 c 0,-2.69536 5.78699,-9.87707 12.85997,-15.95933 7.81053,-6.71651 15.6954,-20.84918 20.08128,-35.99321 4.6334,-15.99878 10.07994,-25.48507 15.19814,-26.47074 15.79296,-3.04144 6.19163,45.55479 -13.66214,69.14965 -11.5748,13.75586 -34.47725,19.91612 -34.47725,9.27363 z m 582.80144,-9.27363 c -19.77328,-23.49919 -29.45965,-72.19197 -13.75956,-69.16842 5.07915,0.97816 9.98691,9.82517 13.8095,24.89375 3.85658,15.20266 10.91217,27.84982 20.17867,36.17035 17.17508,15.42175 18.09024,22.27861 2.97346,22.27861 -6.81283,0 -15.99548,-5.60974 -23.20207,-14.17429 z m -169.99588,-9.19884 c -1.0096,-13.40268 15.49048,-21.31061 24.87794,-11.92314 3.98099,3.98098 4.98348,7.23815 2.22778,7.23815 -2.75572,0 -5.01039,3.15653 -5.01039,7.01454 0,11.18982 -21.24569,8.94986 -22.09533,-2.32955 z M 118.05345,379.01761 c 0,-28.11368 8.75369,-51.1254 24.11904,-63.40413 6.22274,-4.97273 10.48632,-12.63186 9.5692,-17.19023 -5.53607,-27.51593 30.21086,-73.61473 57.08394,-73.61473 15.2386,0 29.14723,9.45971 22.97852,15.62842 -1.69234,1.69234 -8.57112,3.07699 -15.28615,3.07699 -17.50863,0 -29.97143,10.40893 -40.18683,33.56403 -4.90481,11.11773 -10.61394,21.42732 -12.6869,22.91021 -2.07297,1.4829 1.67023,5.17449 8.31824,8.2035 6.648,3.02904 10.79225,7.60275 9.20942,10.16381 -1.58281,2.56105 -0.83636,4.65647 1.65879,4.65647 6.88553,0 28.37675,-27.28169 31.5963,-40.10943 2.00719,-7.99727 6.09981,-11.33046 13.91195,-11.33046 9.88179,0 10.59046,1.25654 6.61125,11.72262 -14.49523,38.12536 -34.20615,58.42268 -56.73482,58.42268 -13.77329,0 -18.88859,-10.76504 -7.55297,-15.89508 3.215,-1.45498 1.71074,-2.14186 -3.34281,-1.52642 -13.27954,1.61726 -30.56076,29.73395 -30.56076,49.72264 0,11.82446 -2.80461,18.64048 -9.3527,22.72983 -8.88823,5.55081 -9.35271,4.67026 -9.35271,-17.73072 z m 653.52044,16.79956 c -5.08043,-3.74294 -8.18362,-12.22116 -8.18362,-22.35842 0,-19.42937 -17.4938,-47.57152 -30.56076,-49.16289 -5.05353,-0.61544 -6.5578,0.0715 -3.34281,1.52642 11.33562,5.13004 6.22032,15.89508 -7.55298,15.89508 -21.79238,0 -49.22471,-27.78486 -58.86699,-59.62351 -2.70225,-8.92278 -1.43898,-10.52179 8.31256,-10.52179 8.26809,0 12.29808,3.18359 14.34282,11.33046 3.21955,12.82774 24.71077,40.10943 31.5963,40.10943 2.49515,0 3.24161,-2.09542 1.65879,-4.65647 -1.58281,-2.56106 2.56142,-7.13477 9.20943,-10.16381 6.648,-3.02901 10.3912,-6.7206 8.31824,-8.2035 -2.07298,-1.48289 -7.78208,-11.79248 -12.68692,-22.91021 -10.2154,-23.1551 -22.6782,-33.56403 -40.18682,-33.56403 -6.71504,0 -13.59381,-1.38465 -15.28615,-3.07699 -6.16871,-6.16871 7.73994,-15.62842 22.97852,-15.62842 26.55542,0 62.58675,45.9997 57.21879,73.04885 -0.8356,4.21055 5.23596,14.8102 13.49235,23.55476 15.95845,16.90204 21.68529,35.79202 19.23166,63.43547 -1.35597,15.27689 -2.33774,16.38803 -9.69241,10.96957 z M 403.56155,347.66682 c -28.22303,-9.96446 -62.06841,-44.57798 -71.95213,-73.58508 -18.09896,-53.11751 -4.51821,-105.60415 36.71618,-141.9001 82.75975,-72.848041 207.79826,-14.19377 207.96483,97.55415 0.13225,88.77551 -86.93558,148.22132 -172.72888,117.93103 z m 85.02117,-13.26463 c 72.8056,-24.80735 97.65863,-120.46171 46.7511,-179.93569 -54.83,-64.056531 -154.66917,-48.51151 -188.13999,29.29351 -12.06843,28.05382 -11.36729,70.65944 1.57464,95.68641 25.64656,49.59497 85.9652,73.30398 139.81425,54.95577 z m -75.91899,-3.50376 c -22.69538,-7.19356 -57.40295,-43.22315 -64.42929,-66.88345 -9.09856,-30.63828 -7.05839,-58.05808 6.31691,-84.8988 39.55372,-79.373951 151.323,-79.714541 190.75677,-0.5813 44.26321,88.82473 -37.34824,182.5687 -132.64439,152.36355 z m 15.79848,-46.4664 c 2.33644,-9.73918 1.36124,-12.85997 -4.0185,-12.85997 -3.90699,0 -7.10361,-1.90638 -7.10361,-4.23638 0,-2.33001 -4.87652,-1.93504 -10.8367,0.87772 -9.26584,4.37277 -10.11319,6.65513 -5.84545,15.74509 3.77917,8.04932 17.77137,15.86373 24.2079,13.51968 0.28119,-0.10246 1.89955,-5.97316 3.59636,-13.04614 z m 70.96999,7.16428 c -1.20209,-3.13262 -0.17318,-6.93945 2.28649,-8.4596 6.7427,-4.16722 5.36569,-11.56465 -2.15272,-11.56465 -3.64365,0 -7.85237,-2.63046 -9.35269,-5.84545 -2.18231,-4.67635 -3.27345,-4.67635 -5.45576,0 -1.50032,3.21499 -5.70904,5.84545 -9.3527,5.84545 -7.5184,0 -8.89541,7.39743 -2.15272,11.56465 2.45967,1.52015 3.48858,5.32698 2.28647,8.4596 -1.42072,3.70238 2.76029,5.69568 11.94683,5.69568 9.18654,0 13.36755,-1.9933 11.9468,-5.69568 z m -93.30399,-78.18549 c 3.9933,-8.4617 3.15714,-11.01339 -4.84046,-14.77157 -14.89422,-6.99899 -29.63603,2.24999 -24.00855,15.06294 5.71518,13.0126 22.65126,12.84157 28.84901,-0.29137 z m 116.30324,6.5165 c -1.65921,-2.68466 -0.47356,-7.94556 2.63478,-11.69088 4.53169,-5.46035 4.22538,-6.80968 -1.54589,-6.80968 -3.95859,0 -8.42497,-2.63045 -9.9253,-5.84545 -2.1823,-4.67635 -3.27345,-4.67635 -5.45574,0 -1.50034,3.215 -5.41725,5.84545 -8.70423,5.84545 -3.85318,0 -5.18239,4.15335 -3.7415,11.69087 1.78069,9.31513 5.03104,11.69089 15.99473,11.69089 8.36743,0 12.57764,-1.91292 10.74315,-4.8812 z m -60.26052,-44.85015 c -1.28436,-3.34695 -0.39949,-7.2817 1.96636,-8.74387 2.36586,-1.46218 0.69569,-6.39188 -3.7115,-10.95487 -7.32758,-7.58667 -8.87407,-7.67207 -18.07849,-0.99851 -7.04781,5.10993 -8.67959,8.98888 -5.44285,12.93843 2.54242,3.10233 3.4818,7.48641 2.08752,9.7424 -1.39427,2.256 3.77601,4.10181 11.48954,4.10181 9.59335,0 13.28676,-1.92276 11.68942,-6.08539 z M 209.24235,260.5488 c -10.5608,-7.92022 -8.1818,-9.49977 21.78434,-14.46389 31.6825,-5.24845 69.56199,-54.04386 50.90499,-65.57453 -7.6202,-4.70953 -35.10151,9.56262 -48.05492,24.95686 -11.72035,13.92885 -31.64895,20.14093 -31.64895,9.86552 0,-2.63968 9.25648,-14.05589 20.56995,-25.36937 32.81563,-32.81561 70.54635,-37.26573 83.06208,-9.79669 4.44228,9.74973 3.47428,15.21634 -5.90291,33.33533 -19.7738,38.20778 -68.68015,63.57179 -90.71458,47.04677 z m 439.57725,-0.14779 c -36.51314,-15.95092 -65.7121,-60.05704 -54.11017,-81.73545 14.21362,-26.55838 49.60188,-21.74217 82.58337,11.23932 11.34567,11.34567 20.62852,22.78825 20.62852,25.42792 0,10.27542 -19.9286,4.06333 -31.64895,-9.86551 -12.95341,-15.39424 -40.43473,-29.66639 -48.05492,-24.95686 -18.657,11.53067 19.2225,60.32608 50.90499,65.57453 29.81939,4.93981 32.34726,6.55904 22.05963,14.13025 -11.12216,8.18538 -23.92217,8.24152 -42.36247,0.1858 z"
       id="path1" />
  </g>
</svg>
