<svg id="visual" viewBox="0 0 900 600" width="900" height="600" xmlns="http://www.w3.org/2000/svg" xmlns:xlink="http://www.w3.org/1999/xlink" version="1.1"><rect x="0" y="0" width="900" height="600" fill="#001220"></rect><defs><linearGradient id="grad1_0" x1="33.3%" y1="0%" x2="100%" y2="100%"><stop offset="20%" stop-color="#001220" stop-opacity="1"></stop><stop offset="80%" stop-color="#001220" stop-opacity="1"></stop></linearGradient></defs><defs><linearGradient id="grad2_0" x1="0%" y1="0%" x2="66.7%" y2="100%"><stop offset="20%" stop-color="#001220" stop-opacity="1"></stop><stop offset="80%" stop-color="#001220" stop-opacity="1"></stop></linearGradient></defs><g transform="translate(900, 0)"><path d="M0 432.7C-8.7 367.3 -17.4 301.9 -38 312.7C-58.5 323.5 -90.8 410.6 -99.6 403.9C-108.3 397.2 -93.4 296.9 -106.4 280.5C-119.3 264.1 -160 331.7 -186.4 355.1C-212.7 378.4 -224.6 357.4 -236.3 342.4C-248 327.3 -259.5 318.2 -273.9 309.1C-288.3 300.1 -305.6 291.2 -307.6 272.5C-309.7 253.9 -296.5 225.6 -302.9 209C-309.2 192.5 -335.1 187.6 -317.9 166.8C-300.6 146.1 -240.2 109.4 -264.6 100.4C-289 91.3 -398.1 110 -420.1 103.5C-442 97.1 -376.8 65.7 -364.3 44.2C-351.9 22.8 -392.3 11.4 -432.7 0L0 0Z" fill="#FBAE3C"></path></g><g transform="translate(0, 600)"><path d="M0 -432.7C18.8 -434.7 37.7 -436.7 51.5 -423.9C65.3 -411.1 74.1 -383.6 96.2 -390.3C118.3 -397.1 153.8 -438.2 153.4 -404.5C153 -370.9 116.8 -262.7 131.5 -250.6C146.2 -238.5 211.9 -322.6 224.4 -325.1C236.9 -327.6 196.2 -248.4 204.9 -231.3C213.6 -214.1 271.6 -258.9 304.6 -269.9C337.7 -280.8 345.9 -257.9 328.4 -226.7C310.9 -195.4 267.6 -155.8 257.7 -135.2C247.7 -114.7 270.9 -113.2 276.8 -105C282.6 -96.7 271 -81.8 295.2 -72.8C319.3 -63.7 379.1 -60.7 408 -49.5C436.9 -38.4 434.8 -19.2 432.7 0L0 0Z" fill="#FBAE3C"></path></g></svg>