<?xml version="1.0" encoding="UTF-8" standalone="no"?>
<!-- Created with Inkscape (http://www.inkscape.org/) -->

<svg
   width="210mm"
   height="297mm"
   viewBox="0 0 210 297"
   version="1.1"
   id="svg1"
   xmlns="http://www.w3.org/2000/svg"
   xmlns:svg="http://www.w3.org/2000/svg">
  <defs
     id="defs1">
    <linearGradient
       id="swatch17">
      <stop
         style="stop-color:#000000;stop-opacity:1;"
         offset="0"
         id="stop17" />
    </linearGradient>
  </defs>
  <g
     id="layer1">
    <path
       d="m 14.222571,26.272034 v 90.236016 c -0.244394,15.00753 -0.138837,30.00593 2.012895,44.89076 1.514685,9.68988 1.954438,27.51818 17.243405,50.34111 5.058206,7.03386 14.337228,17.38722 25.878536,24.71683 3.784952,2.73473 7.723905,5.12224 11.785761,7.14374 3.515584,1.77122 7.117014,3.26402 10.78281,4.4695 3.562387,1.18951 7.179797,2.10517 10.831824,2.74181 v -22.7531 c -3.673375,-0.75078 -7.294756,-1.85535 -10.831824,-3.30374 -3.712329,-1.53913 -7.3185,-3.45261 -10.78281,-5.72151 -6.480487,-4.32534 -11.285352,-9.15095 -14.30011,-12.5178 -16.504291,-21.42828 -19.126516,-40.84789 -20.0521,-67.67414 V 93.750328 H 92.757621 V 71.440108 H 36.790958 V 48.831573 H 92.757621 V 26.271991 Z"
       style="display:inline;opacity:1;fill:#000000;fill-opacity:1;stroke:none;stroke-width:0.1;stroke-opacity:1"
       id="path120" />
    <path
       d="M 115.77651,26.272034 V 96.02117 c 4.09124,1.667714 7.91225,4.23195 11.2843,7.57271 3.58794,3.56453 6.60257,7.94662 8.88424,12.91417 0.81673,1.78577 1.53524,3.63895 2.15047,5.54664 V 48.831619 h 34.10013 v 90.009861 c 0.50819,24.30473 -3.05259,48.42072 -20.05192,67.67414 -3.48214,3.89228 -8.15943,8.36775 -14.04821,12.32427 V 155.4231 c -0.63821,2.05822 -1.39594,4.05543 -2.26709,5.97565 -2.22874,5.03428 -5.20428,9.49224 -8.76762,13.13569 -3.38789,3.24658 -7.20796,5.72019 -11.2843,7.30692 v 69.01007 c 3.80494,-0.62653 7.57401,-1.55558 11.2843,-2.7815 10.51487,-3.44794 24.77675,-11.24285 24.77675,-11.24285 39.83839,-23.51756 42.57487,-75.52493 42.92666,-120.31906 V 26.271988 Z"
       style="display:inline;opacity:1;fill:#000000;fill-opacity:1;stroke:none;stroke-width:0.1;stroke-opacity:1"
       id="path121" />
    <path
       d="m 104.49459,110.3459 c -4.00846,0.0618 -7.975666,0.66061 -11.736788,1.77194 -6.016696,1.59078 -10.042893,4.12851 -10.831962,4.64931 -4.871808,3.22699 -8.591673,7.42713 -10.782853,12.17509 -1.557438,3.15572 -2.403995,6.50739 -2.500359,9.89954 -0.0089,0.0744 -0.02267,0.14946 -0.03158,0.22388 0.07312,3.47001 0.93132,6.90066 2.533033,10.12569 2.191137,4.74799 5.911002,8.94816 10.78281,12.17509 l 0.04062,0.0315 c 3.239943,2.02184 6.889578,3.58333 10.78985,4.61636 3.761119,1.11134 7.728319,1.71027 11.736789,1.77196 0.0745,-0.009 0.1494,-0.0123 0.22387,-0.0214 3.76965,-0.0726 7.50147,-0.6201 11.05804,-1.62275 4.07111,-1.03327 7.87908,-2.64003 11.24468,-4.74455 l 0.0406,-0.0316 c 5.07013,-3.36049 8.88762,-7.77253 11.03471,-12.75332 1.43291,-3.05636 2.20431,-6.28592 2.28113,-9.54984 -0.003,-0.0744 -0.009,-0.14946 -0.0135,-0.22388 -0.0406,-3.3442 -0.80661,-6.65731 -2.26944,-9.78996 -2.23853,-4.81412 -6.04912,-9.05956 -11.03471,-12.29401 -0.78907,-0.54123 -4.96817,-3.2723 -11.28408,-4.94526 -3.56772,-0.94709 -7.29927,-1.43963 -11.05805,-1.45953 -0.0745,-0.003 -0.1494,-0.005 -0.22387,-0.009 z m 0,19.69654 c 0.0745,0.003 0.1494,0.009 0.22387,0.0122 6.02127,0.10382 10.87935,3.97053 11.03706,8.78504 h 0.0227 v 0.22388 c -0.0227,4.90097 -4.93062,8.89224 -11.05805,8.99031 -0.0745,0.0122 -0.14894,0.0214 -0.22387,0.0361 -6.232948,1.9e-4 -11.285525,-4.04088 -11.284306,-9.02524 0.01807,-0.075 0.03612,-0.14946 0.05597,-0.22388 0.151667,-4.87849 5.125966,-8.77657 11.228336,-8.79905 z"
       style="display:inline;opacity:1;fill:#000000;fill-opacity:1;stroke:none;stroke-width:0.1;stroke-opacity:1"
       id="path122" />
  </g>
</svg>
